<svg width="1003" height="644" viewBox="0 0 1003 644" fill="none" xmlns="http://www.w3.org/2000/svg">
<path fill-rule="evenodd" clip-rule="evenodd" d="M125.403 3.90626L147.062 72.1986C147.327 73.0681 146.869 73.9976 145.981 74.2831C145.711 74.3768 145.455 74.3715 145.197 74.327L107.884 70.5986L110.883 86.4067C111.052 87.3012 110.472 88.159 109.577 88.327C109.13 88.411 108.711 88.2969 108.366 88.1L89.2198 75.534L68.7311 85.7199C67.9099 86.1392 66.9267 85.7816 66.5274 84.9786C66.2405 84.4248 66.3018 83.7729 66.6484 83.3015L122.445 3.384C122.972 2.62744 124.005 2.47138 124.741 2.98039C125.068 3.19791 125.284 3.53956 125.382 3.88776L125.403 3.90626ZM88.0558 72.3371L112.37 23.5789L73.0157 79.8404L88.0373 72.3578L88.0558 72.3371ZM117.582 20.5361L91.4327 72.9734L106.904 83.112L104.235 68.9753L104.23 68.8969C104.219 68.7011 104.227 68.4845 104.294 68.2842L117.623 20.5731L117.582 20.5361ZM123.927 10.1002L107.988 67.2325L143.168 70.7659L123.927 10.1002Z" fill="#0079FF"/>
<path fill-rule="evenodd" clip-rule="evenodd" d="M971.384 489.372V490.03H974.996V309.08H971.384V489.372ZM982.777 295.138C981.633 295.533 979.584 295.928 977.088 295.05L971.928 307.003H987.894L982.777 295.138ZM977.896 293.149C979.695 293.734 981.118 293.514 981.954 293.251L979.904 288.496L977.896 293.149ZM978.998 285.541V285.527V285.497V285.468V285.454V285.439C979.026 285.395 979.054 285.351 979.096 285.307C979.096 285.307 979.11 285.278 979.124 285.263L979.137 285.234C979.137 285.234 979.151 285.205 979.165 285.205V285.19C979.165 285.19 979.249 285.117 979.291 285.088H979.305C979.305 285.088 979.333 285.088 979.347 285.073C979.444 285.029 979.556 285.015 979.667 285H979.695H979.723C979.821 285 979.932 285.029 980.044 285.059C980.044 285.059 980.072 285.059 980.086 285.073H980.1H980.114C980.155 285.102 980.197 285.132 980.239 285.176C980.239 285.176 980.253 285.205 980.267 285.219L980.281 285.249C980.281 285.249 980.295 285.278 980.309 285.293V285.307C980.309 285.307 980.379 285.395 980.406 285.454V285.468V285.483V285.512V285.541V285.556L989.888 307.558C989.958 307.705 990 307.866 990 308.041V501.265C990 502.845 989.386 504.279 988.396 505.318C987.406 506.356 986.04 507 984.534 507H974.466C972.96 507 971.594 506.356 970.604 505.318C969.614 504.279 969 502.845 969 501.265V308.027C969 307.851 969.042 307.69 969.112 307.544L978.594 285.541H978.998ZM971.384 492.093V501.236C971.384 502.245 971.775 503.152 972.402 503.811C973.03 504.469 973.908 504.879 974.857 504.879H984.924C985.886 504.879 986.751 504.469 987.379 503.811C988.006 503.152 988.41 502.231 988.41 501.236V492.093H971.371H971.384ZM988.424 490.015V309.065H984.813V490.015H988.424ZM982.833 490.015V309.065H976.976V490.015H982.833Z" fill="#0079FF"/>
<path fill-rule="evenodd" clip-rule="evenodd" d="M100.35 120.713C102.791 120.713 104.788 118.715 104.788 116.272C104.788 113.829 102.791 111.831 100.35 111.831C97.9091 111.831 95.9121 113.829 95.9121 116.272C95.9121 118.715 97.9091 120.713 100.35 120.713Z" fill="#0079FF"/>
<path fill-rule="evenodd" clip-rule="evenodd" d="M158.929 263.196C161.37 263.196 163.367 261.197 163.367 258.755C163.367 256.312 161.37 254.313 158.929 254.313C156.488 254.313 154.491 256.312 154.491 258.755C154.491 261.197 156.488 263.196 158.929 263.196Z" fill="#0079FF"/>
<path fill-rule="evenodd" clip-rule="evenodd" d="M822.659 113.944C825.404 113.944 827.651 111.696 827.651 108.948C827.651 106.2 825.404 103.951 822.659 103.951C819.913 103.951 817.666 106.2 817.666 108.948C817.666 111.696 819.913 113.944 822.659 113.944Z" fill="#0079FF"/>
<path fill-rule="evenodd" clip-rule="evenodd" d="M979.618 268.286C982.364 268.286 984.611 266.038 984.611 263.29C984.611 260.542 982.364 258.294 979.618 258.294C976.873 258.294 974.626 260.542 974.626 263.29C974.626 266.038 976.873 268.286 979.618 268.286Z" fill="#0079FF"/>
<path fill-rule="evenodd" clip-rule="evenodd" d="M707.081 120.106C709.827 120.106 712.074 117.858 712.074 115.11C712.074 112.362 709.827 110.114 707.081 110.114C704.335 110.114 702.089 112.362 702.089 115.11C702.089 117.858 704.335 120.106 707.081 120.106Z" fill="#0079FF"/>
<path fill-rule="evenodd" clip-rule="evenodd" d="M516.755 405.702C519.501 405.702 521.748 403.454 521.748 400.706C521.748 397.958 519.501 395.71 516.755 395.71C514.009 395.71 511.763 397.958 511.763 400.706C511.763 403.454 514.009 405.702 516.755 405.702Z" fill="#0079FF"/>
<path d="M150.83 165.153C149.471 165.153 148.278 164.043 148.278 162.682C148.278 161.322 149.305 160.212 150.691 160.212H150.83C152.189 160.212 153.299 161.322 153.299 162.682C153.299 164.043 152.189 165.153 150.83 165.153ZM138.293 165.153H125.895C124.536 165.153 123.427 164.043 123.427 162.682C123.427 161.322 124.536 160.212 125.895 160.212H138.293C139.652 160.212 140.762 161.322 140.762 162.682C140.762 164.043 139.652 165.153 138.293 165.153ZM113.525 165.153H101.127C99.7675 165.153 98.658 164.043 98.658 162.682C98.658 161.322 99.7675 160.212 101.127 160.212H113.525C114.884 160.212 115.993 161.322 115.993 162.682C115.993 164.043 114.884 165.153 113.525 165.153ZM88.7562 165.153H76.358C74.999 165.153 73.8895 164.043 73.8895 162.682C73.8895 161.322 74.999 160.212 76.358 160.212H88.7562C90.1152 160.212 91.2247 161.322 91.2247 162.682C91.2247 164.043 90.1152 165.153 88.7562 165.153ZM63.9876 165.153H51.5895C50.2304 165.153 49.121 164.043 49.121 162.682C49.121 161.322 50.2304 160.212 51.5895 160.212H63.9876C65.3467 160.212 66.4562 161.322 66.4562 162.682C66.4562 164.043 65.3467 165.153 63.9876 165.153ZM39.2191 165.153H26.821C25.4619 165.153 24.3525 164.043 24.3525 162.682C24.3525 161.322 25.4619 160.212 26.821 160.212H39.2191C40.5782 160.212 41.6877 161.322 41.6877 162.682C41.6877 164.043 40.5782 165.153 39.2191 165.153ZM14.8944 162.46C14.5061 162.46 14.1178 162.377 13.7295 162.183C9.67997 160.045 6.2684 156.826 3.85535 152.94C3.1342 151.774 3.49477 150.247 4.6597 149.525C5.82462 148.804 7.35012 149.165 8.07126 150.33C10.0128 153.495 12.7864 156.076 16.0593 157.825C17.2797 158.463 17.7235 159.962 17.0856 161.184C16.6418 162.016 15.782 162.488 14.8944 162.488V162.46ZM2.46853 142.336C1.10945 142.336 0.0277363 141.254 0 139.894V139.449C0 135.008 1.16492 130.623 3.38383 126.764C4.07724 125.571 5.575 125.154 6.76766 125.848C7.96032 126.542 8.37636 128.041 7.68296 129.235C5.90783 132.344 4.9648 135.869 4.9648 139.449V139.81C4.99253 141.17 3.91082 142.308 2.524 142.336H2.46853ZM14.1733 121.796C13.3134 121.796 12.4813 121.352 12.0376 120.547C11.3441 119.353 11.7602 117.854 12.9529 117.16C16.8082 114.94 21.2183 113.746 25.6838 113.746H26.0444C27.4035 113.746 28.5129 114.856 28.5129 116.217C28.5129 117.577 27.4035 118.687 26.0444 118.687H25.6838C22.0781 118.687 18.5556 119.631 15.4214 121.435C15.0331 121.657 14.617 121.768 14.201 121.768L14.1733 121.796ZM100.35 118.715H87.9518C86.5927 118.715 85.4833 117.604 85.4833 116.244C85.4833 114.884 86.5927 113.774 87.9518 113.774H100.35C101.709 113.774 102.818 114.884 102.818 116.244C102.818 117.604 101.709 118.715 100.35 118.715ZM75.5814 118.715H63.1833C61.8242 118.715 60.7148 117.604 60.7148 116.244C60.7148 114.884 61.8242 113.774 63.1833 113.774H75.5814C76.9405 113.774 78.0499 114.884 78.0499 116.244C78.0499 117.604 76.9405 118.715 75.5814 118.715ZM50.8129 118.715H38.4148C37.0557 118.715 35.9462 117.604 35.9462 116.244C35.9462 114.884 37.0557 113.774 38.4148 113.774H50.8129C52.172 113.774 53.2814 114.884 53.2814 116.244C53.2814 117.604 52.172 118.715 50.8129 118.715Z" fill="#0079FF"/>
<path d="M299.191 188.358C297.832 188.358 296.723 187.248 296.723 185.888C296.723 182.168 295.724 178.532 293.811 175.34C293.117 174.174 293.505 172.647 294.67 171.953C295.835 171.259 297.361 171.648 298.054 172.814C300.412 176.755 301.66 181.28 301.66 185.888C301.66 187.248 300.55 188.358 299.191 188.358ZM287.154 168.04C286.738 168.04 286.349 167.928 285.961 167.734C282.938 166.069 279.499 165.18 276.004 165.18H275.255C273.896 165.18 272.786 164.07 272.786 162.71C272.786 161.35 273.896 160.24 275.255 160.24H276.004C280.303 160.24 284.574 161.35 288.346 163.432C289.539 164.098 289.983 165.597 289.317 166.79C288.873 167.595 288.014 168.067 287.154 168.067V168.04ZM262.885 165.153H250.486C249.127 165.153 248.018 164.042 248.018 162.682C248.018 161.322 249.127 160.212 250.486 160.212H262.885C264.244 160.212 265.353 161.322 265.353 162.682C265.353 164.042 264.244 165.153 262.885 165.153ZM238.116 165.153H225.718C224.359 165.153 223.249 164.042 223.249 162.682C223.249 161.322 224.359 160.212 225.718 160.212H238.116C239.475 160.212 240.585 161.322 240.585 162.682C240.585 164.042 239.475 165.153 238.116 165.153ZM213.348 165.153H200.949C199.59 165.153 198.481 164.042 198.481 162.682C198.481 161.322 199.59 160.212 200.949 160.212H213.348C214.707 160.212 215.816 161.322 215.816 162.682C215.816 164.042 214.707 165.153 213.348 165.153ZM188.579 165.153H176.181C174.822 165.153 173.712 164.042 173.712 162.682C173.712 161.322 174.822 160.212 176.181 160.212H188.579C189.938 160.212 191.048 161.322 191.048 162.682C191.048 164.042 189.938 165.153 188.579 165.153ZM163.811 165.153H151.412C150.053 165.153 148.944 164.042 148.944 162.682C148.944 161.322 150.053 160.212 151.412 160.212H163.811C165.17 160.212 166.279 161.322 166.279 162.682C166.279 164.042 165.17 165.153 163.811 165.153Z" fill="#0079FF"/>
<path d="M276.004 331.725H268.016C266.657 331.725 265.547 330.615 265.547 329.255C265.547 327.895 266.657 326.784 268.016 326.784H276.004C277.308 326.784 278.639 326.645 279.915 326.423C281.274 326.174 282.55 327.034 282.827 328.394C283.077 329.727 282.217 331.031 280.858 331.309C279.277 331.614 277.64 331.781 276.032 331.781L276.004 331.725ZM255.618 331.725H243.22C241.861 331.725 240.751 330.615 240.751 329.255C240.751 327.895 241.861 326.784 243.22 326.784H255.618C256.977 326.784 258.086 327.895 258.086 329.255C258.086 330.615 256.977 331.725 255.618 331.725ZM230.849 331.725H218.451C217.092 331.725 215.983 330.615 215.983 329.255C215.983 327.895 217.092 326.784 218.451 326.784H230.849C232.208 326.784 233.318 327.895 233.318 329.255C233.318 330.615 232.208 331.725 230.849 331.725ZM206.081 331.725H193.683C192.324 331.725 191.214 330.615 191.214 329.255C191.214 327.895 192.324 326.784 193.683 326.784H206.081C207.44 326.784 208.549 327.895 208.549 329.255C208.549 330.615 207.44 331.725 206.081 331.725ZM181.312 331.725H168.914C167.555 331.725 166.446 330.615 166.446 329.255C166.446 327.895 167.555 326.784 168.914 326.784H181.312C182.671 326.784 183.781 327.895 183.781 329.255C183.781 330.615 182.671 331.725 181.312 331.725ZM291.37 325.896C290.676 325.896 290.011 325.618 289.512 325.063C288.596 324.036 288.707 322.482 289.733 321.566C292.535 319.095 294.587 315.931 295.752 312.434C296.168 311.129 297.583 310.407 298.886 310.851C300.19 311.268 300.911 312.683 300.467 313.988C299.053 318.346 296.473 322.26 293.034 325.313C292.563 325.729 291.98 325.924 291.398 325.924L291.37 325.896ZM299.219 303.357C297.86 303.357 296.751 302.247 296.751 300.887V288.451C296.751 287.091 297.86 285.981 299.219 285.981C300.578 285.981 301.688 287.091 301.688 288.451V300.887C301.688 302.247 300.578 303.357 299.219 303.357ZM299.219 278.514C297.86 278.514 296.751 277.404 296.751 276.044V263.636C296.751 262.276 297.86 261.166 299.219 261.166C300.578 261.166 301.688 262.276 301.688 263.636V276.044C301.688 277.404 300.578 278.514 299.219 278.514ZM299.219 253.671C297.86 253.671 296.751 252.561 296.751 251.201V238.793C296.751 237.433 297.86 236.323 299.219 236.323C300.578 236.323 301.688 237.433 301.688 238.793V251.201C301.688 252.561 300.578 253.671 299.219 253.671ZM299.219 228.828C297.86 228.828 296.751 227.718 296.751 226.358V213.923C296.751 212.562 297.86 211.452 299.219 211.452C300.578 211.452 301.688 212.562 301.688 213.923V226.358C301.688 227.718 300.578 228.828 299.219 228.828Z" fill="#0079FF"/>
<path d="M523.578 146.282C522.219 146.282 521.109 145.171 521.109 143.811C521.109 139.259 522.08 134.873 523.994 130.765C524.576 129.516 526.046 128.989 527.295 129.572C528.543 130.155 529.07 131.626 528.487 132.875C526.878 136.317 526.074 140.008 526.074 143.839C526.074 145.199 524.965 146.309 523.606 146.309L523.578 146.282ZM533.646 124.464C532.953 124.464 532.259 124.159 531.76 123.604C530.873 122.549 530.984 120.995 532.037 120.106C535.505 117.136 539.471 115.027 543.798 113.778C545.101 113.417 546.488 114.166 546.849 115.499C547.209 116.803 546.46 118.191 545.129 118.552C541.468 119.579 538.139 121.383 535.227 123.881C534.756 124.27 534.201 124.464 533.618 124.464H533.646ZM707.054 117.58H705.417C704.058 117.58 702.949 116.47 702.949 115.11C702.949 113.75 704.058 112.64 705.417 112.64H707.054C708.413 112.64 709.522 113.75 709.522 115.11C709.522 116.47 708.413 117.58 707.054 117.58ZM693.047 117.58H680.649C679.289 117.58 678.18 116.47 678.18 115.11C678.18 113.75 679.289 112.64 680.649 112.64H693.047C694.406 112.64 695.515 113.75 695.515 115.11C695.515 116.47 694.406 117.58 693.047 117.58ZM668.278 117.58H655.88C654.521 117.58 653.412 116.47 653.412 115.11C653.412 113.75 654.521 112.64 655.88 112.64H668.278C669.637 112.64 670.747 113.75 670.747 115.11C670.747 116.47 669.637 117.58 668.278 117.58ZM643.51 117.58H631.112C629.752 117.58 628.643 116.47 628.643 115.11C628.643 113.75 629.752 112.64 631.112 112.64H643.51C644.869 112.64 645.978 113.75 645.978 115.11C645.978 116.47 644.869 117.58 643.51 117.58ZM618.741 117.58H606.343C604.984 117.58 603.874 116.47 603.874 115.11C603.874 113.75 604.984 112.64 606.343 112.64H618.741C620.1 112.64 621.21 113.75 621.21 115.11C621.21 116.47 620.1 117.58 618.741 117.58ZM593.973 117.58H581.574C580.215 117.58 579.106 116.47 579.106 115.11C579.106 113.75 580.215 112.64 581.574 112.64H593.973C595.332 112.64 596.441 113.75 596.441 115.11C596.441 116.47 595.332 117.58 593.973 117.58ZM569.204 117.58H556.806C555.447 117.58 554.337 116.47 554.337 115.11C554.337 113.75 555.447 112.64 556.806 112.64H569.204C570.563 112.64 571.673 113.75 571.673 115.11C571.673 116.47 570.563 117.58 569.204 117.58Z" fill="#0079FF"/>
<path d="M552.257 235.494C547.708 235.494 543.326 234.522 539.221 232.607C537.973 232.024 537.446 230.553 538.028 229.304C538.611 228.055 540.081 227.528 541.329 228.111C544.796 229.72 548.457 230.525 552.285 230.525C553.644 230.525 554.753 231.636 554.753 232.996C554.753 234.356 553.644 235.466 552.285 235.466L552.257 235.494ZM530.456 225.39C529.763 225.39 529.07 225.085 528.57 224.53C525.658 221.116 523.467 217.035 522.247 212.761C521.886 211.428 522.635 210.068 523.966 209.707C525.27 209.347 526.657 210.096 527.017 211.428C528.043 215.037 529.874 218.451 532.315 221.338C533.202 222.392 533.091 223.947 532.037 224.835C531.566 225.224 531.011 225.418 530.429 225.418L530.456 225.39ZM523.578 202.241C522.219 202.241 521.109 201.13 521.109 199.77V187.335C521.109 185.975 522.219 184.864 523.578 184.864C524.937 184.864 526.046 185.975 526.046 187.335V199.77C526.046 201.13 524.937 202.241 523.578 202.241ZM523.578 177.398C522.219 177.398 521.109 176.287 521.109 174.927V162.492C521.109 161.132 522.219 160.022 523.578 160.022C524.937 160.022 526.046 161.132 526.046 162.492V174.927C526.046 176.287 524.937 177.398 523.578 177.398ZM523.578 152.555C522.219 152.555 521.109 151.445 521.109 150.084V143.811C521.109 142.451 522.219 141.341 523.578 141.341C524.937 141.341 526.046 142.451 526.046 143.811V150.084C526.046 151.445 524.937 152.555 523.578 152.555Z" fill="#0079FF"/>
<path d="M580.937 330.841C579.578 330.841 578.468 329.731 578.468 328.37V315.935C578.468 314.575 579.578 313.465 580.937 313.465C582.296 313.465 583.405 314.575 583.405 315.935V328.37C583.405 329.731 582.296 330.841 580.937 330.841ZM580.937 305.998C579.578 305.998 578.468 304.888 578.468 303.528V291.12C578.468 289.76 579.578 288.65 580.937 288.65C582.296 288.65 583.405 289.76 583.405 291.12V303.528C583.405 304.888 582.296 305.998 580.937 305.998ZM580.937 281.155C579.578 281.155 578.468 280.045 578.468 278.685V266.249C578.468 264.889 579.578 263.779 580.937 263.779C582.296 263.779 583.405 264.889 583.405 266.249V278.685C583.405 280.045 582.296 281.155 580.937 281.155ZM579.855 256.423C578.773 256.423 577.775 255.701 577.47 254.619C576.444 251.01 574.613 247.596 572.172 244.71C571.285 243.655 571.396 242.1 572.45 241.212C573.476 240.324 575.057 240.435 575.944 241.49C578.857 244.904 581.048 248.984 582.268 253.259C582.629 254.563 581.88 255.951 580.549 256.312C580.327 256.368 580.105 256.395 579.855 256.395V256.423ZM564.24 238.131C563.907 238.131 563.546 238.048 563.213 237.909C559.774 236.299 556.085 235.494 552.258 235.494C550.899 235.494 549.789 234.384 549.789 233.024C549.789 231.664 550.899 230.553 552.258 230.553C556.806 230.553 561.189 231.525 565.294 233.44C566.542 234.023 567.069 235.494 566.486 236.743C566.07 237.659 565.183 238.187 564.24 238.187V238.131Z" fill="#0079FF"/>
<path d="M552.258 403.177C550.899 403.177 549.789 402.066 549.789 400.706C549.789 399.346 550.899 398.236 552.258 398.236C556.085 398.236 559.774 397.431 563.213 395.821C564.462 395.238 565.932 395.793 566.514 397.014C567.097 398.264 566.542 399.735 565.321 400.318C561.216 402.233 556.834 403.204 552.285 403.204L552.258 403.177ZM574.058 393.073C573.476 393.073 572.921 392.879 572.45 392.49C571.423 391.602 571.285 390.047 572.172 388.993C574.613 386.106 576.471 382.692 577.47 379.083C577.83 377.751 579.217 377.001 580.521 377.362C581.824 377.723 582.601 379.111 582.241 380.416C581.02 384.69 578.857 388.77 575.917 392.185C575.417 392.768 574.724 393.045 574.031 393.045L574.058 393.073ZM580.937 369.923C579.578 369.923 578.468 368.813 578.468 367.453V355.045C578.468 353.685 579.578 352.575 580.937 352.575C582.296 352.575 583.405 353.685 583.405 355.045V367.453C583.405 368.813 582.296 369.923 580.937 369.923ZM580.937 345.08C579.578 345.08 578.468 343.97 578.468 342.61V331.368C578.468 330.008 579.578 328.898 580.937 328.898C582.296 328.898 583.405 330.008 583.405 331.368V342.61C583.405 343.97 582.296 345.08 580.937 345.08Z" fill="#0079FF"/>
<path d="M979.618 265.76C978.259 265.76 977.15 264.65 977.15 263.29V250.827C977.15 249.467 978.259 248.356 979.618 248.356C980.978 248.356 982.087 249.467 982.087 250.827V263.29C982.087 264.65 980.978 265.76 979.618 265.76ZM979.618 240.89C978.259 240.89 977.15 239.779 977.15 238.419V226.012C977.15 224.652 978.259 223.541 979.618 223.541C980.978 223.541 982.087 224.652 982.087 226.012V238.419C982.087 239.779 980.978 240.89 979.618 240.89ZM979.618 216.047C978.259 216.047 977.15 214.937 977.15 213.576V201.141C977.15 199.781 978.259 198.671 979.618 198.671C980.978 198.671 982.087 199.781 982.087 201.141V213.576C982.087 214.937 980.978 216.047 979.618 216.047ZM979.175 191.232C977.982 191.232 976.928 190.371 976.734 189.178C976.096 185.403 974.765 181.822 972.74 178.519C972.019 177.353 972.407 175.826 973.572 175.105C974.737 174.383 976.262 174.772 976.983 175.937C979.313 179.768 980.894 183.959 981.615 188.345C981.837 189.705 980.922 190.982 979.591 191.204C979.452 191.204 979.313 191.232 979.175 191.232ZM966.582 170.552C966.055 170.552 965.528 170.386 965.085 170.053C962.006 167.721 958.567 166.028 954.878 165.001C953.574 164.64 952.797 163.28 953.158 161.948C953.519 160.615 954.905 159.866 956.209 160.227C960.508 161.42 964.502 163.391 968.08 166.111C969.162 166.944 969.384 168.498 968.552 169.581C968.052 170.219 967.331 170.552 966.582 170.552ZM943.256 163.918H930.83C929.471 163.918 928.362 162.808 928.362 161.448C928.362 160.088 929.471 158.978 930.83 158.978H943.256C944.615 158.978 945.725 160.088 945.725 161.448C945.725 162.808 944.615 163.918 943.256 163.918ZM918.404 163.918H905.979C904.62 163.918 903.51 162.808 903.51 161.448C903.51 160.088 904.62 158.978 905.979 158.978H918.404C919.764 158.978 920.873 160.088 920.873 161.448C920.873 162.808 919.764 163.918 918.404 163.918ZM893.581 163.918H881.182C879.823 163.918 878.714 162.808 878.714 161.448C878.714 160.088 879.823 158.978 881.182 158.978H893.581C894.94 158.978 896.049 160.088 896.049 161.448C896.049 162.808 894.94 163.918 893.581 163.918ZM868.756 163.918H856.358C854.999 163.918 853.89 162.808 853.89 161.448C853.89 160.088 854.999 158.978 856.358 158.978H868.756C870.116 158.978 871.225 160.088 871.225 161.448C871.225 162.808 870.116 163.918 868.756 163.918ZM843.932 163.918H831.507C830.148 163.918 829.038 162.808 829.038 161.448C829.038 160.088 830.148 158.978 831.507 158.978H843.932C845.292 158.978 846.401 160.088 846.401 161.448C846.401 162.808 845.292 163.918 843.932 163.918Z" fill="#0079FF"/>
</svg>
