<svg width="48" height="48" viewBox="0 0 48 48" fill="none" xmlns="http://www.w3.org/2000/svg">
<rect width="48" height="48" rx="8" fill="#FEF3C7"/>
<path d="M23 30V33C23 33.55 22.55 34 22 34C21.45 34 21 33.55 21 33V30H23Z" fill="#D97706"/>
<path d="M27 30V33C27 33.55 26.55 34 26 34C25.45 34 25 33.55 25 33V30H27Z" fill="#D97706"/>
<path d="M29 23V28C29 29.1 28.1 30 27 30H21C19.9 30 19 29.1 19 28V23C19 21.9 19.9 21 21 21H27C28.1 21 29 21.9 29 23Z" fill="#D97706"/>
<path d="M17 23V27C17 27.55 16.55 28 16 28C15.45 28 15 27.55 15 27V23C15 22.45 15.45 22 16 22C16.55 22 17 22.45 17 23Z" fill="#D97706"/>
<path d="M33 23V27C33 27.55 32.55 28 32 28C31.45 28 31 27.55 31 27V23C31 22.45 31.45 22 32 22C32.55 22 33 22.45 33 23Z" fill="#D97706"/>
<path d="M21.6 19.6H26.4C27.28 19.6 28 18.88 28 18C28 15.79 26.21 14 24 14C21.79 14 20 15.79 20 18C20 18.88 20.72 19.6 21.6 19.6Z" fill="#D97706"/>
</svg>
