<svg width="73" height="73" viewBox="0 0 73 73" fill="none" xmlns="http://www.w3.org/2000/svg">
<rect x="0.5" y="0.5" width="72" height="72" rx="36" fill="#FAFAFA"/>
<path d="M22.0961 31.3074C22.0389 26.955 24.8036 23.0655 28.933 21.689L29.5 21.5L33.413 20.382C35.4205 19.8084 37.5573 19.8776 39.5235 20.5798L43.5 22L46.5951 22.8441C48.1254 23.2615 49.4054 24.3109 50.1148 25.7296C50.6874 26.8748 50.8484 28.1823 50.5706 29.4323L50.4454 29.9955C50.1558 31.2988 50.2829 32.6602 50.8089 33.8874C51.2612 34.9428 51.4199 36.1009 51.2681 37.2391L50.9126 39.9052C50.6439 41.9204 49.7674 43.8059 48.3998 45.3103L46.0797 47.8623C45.694 48.2866 45.2724 48.677 44.8197 49.0291L42.6854 50.6891C39.053 53.5143 33.9614 53.4959 30.3496 50.6444L27.5611 48.443C27.1875 48.148 26.8354 47.8268 26.5076 47.4817L24.9476 45.8396C23.2133 44.014 22.2316 41.6014 22.1985 39.0837L22.0961 31.3074Z" fill="#FFB130"/>
<path d="M31.583 36.2834L34.2663 38.9667L41.433 31.8" stroke="#292D32" stroke-width="1.5" stroke-linecap="round" stroke-linejoin="round"/>
<path d="M50.8169 28.3667C50.8169 26.3167 49.2503 24.0501 47.3336 23.3334L39.0169 20.2167C37.6336 19.7001 35.3669 19.7001 33.9836 20.2167L25.6669 23.3501C23.7503 24.0667 22.1836 26.3334 22.1836 28.3667V40.7501C22.1836 42.7167 23.4836 45.3001 25.0669 46.4834L32.2336 51.8334C34.5836 53.6001 38.4503 53.6001 40.8003 51.8334L47.9669 46.4834C49.5503 45.3001 50.8503 42.7167 50.8503 40.7501V34.8834" stroke="#292D32" stroke-width="1.5" stroke-linecap="round" stroke-linejoin="round"/>
</svg>
