<svg xmlns="http://www.w3.org/2000/svg" width="530" height="530" viewBox="0 0 530 530" fill="none">
  <path d="M264.264 530C312.847 530 357.505 518.697 398.236 496.092C438.477 473.486 470.62 442.035 494.667 401.739C518.222 360.95 530 315.248 530 264.631C530 214.015 518.222 168.558 494.667 128.261C470.62 87.9648 438.477 56.5137 398.236 33.9082C357.505 11.3027 312.847 -2.43285e-07 264.264 -2.97715e-07C215.681 -3.52145e-07 171.269 11.3027 131.028 33.9082C90.2963 56.5137 58.3982 87.9648 35.3333 128.261C11.7778 168.558 2.37855e-05 214.015 2.37288e-05 264.631C2.36721e-05 315.248 11.7778 360.95 35.3333 401.739C58.8889 442.035 90.787 473.486 131.028 496.092C171.269 518.697 215.681 530 264.264 530ZM264.264 415.007C223.042 415.007 190.162 401.247 165.625 373.727C140.597 346.208 128.083 309.842 128.083 264.631C128.083 218.929 140.597 182.564 165.625 155.535C190.162 128.016 223.042 114.256 264.264 114.256C305.977 114.256 339.347 127.77 364.375 154.798C388.912 181.827 401.181 218.438 401.181 264.631C401.181 310.334 388.912 346.945 364.375 374.464C339.347 401.493 305.977 415.007 264.264 415.007Z" fill="#66AFFF"/>
</svg>