<svg xmlns="http://www.w3.org/2000/svg" width="199" height="205" viewBox="0 0 199 205" fill="none">
  <path d="M199.553 205C163.069 205 129.534 196.491 98.9472 179.473C68.7287 162.455 44.5907 138.777 26.5333 108.441C8.84444 77.7343 2.65889e-07 43.3282 2.23197e-07 5.22252C1.80506e-07 -32.8832 8.84444 -67.1043 26.5333 -97.4409C44.5907 -127.777 68.7287 -151.455 98.9472 -168.473C129.534 -185.491 163.069 -194 199.553 -194C236.036 -194 269.387 -185.491 299.606 -168.473C330.193 -151.455 354.146 -127.777 371.467 -97.4409C389.156 -67.1043 398 -32.8832 398 5.22252C398 43.3282 389.156 77.7343 371.467 108.441C353.778 138.777 329.824 162.455 299.606 179.473C269.387 196.491 236.036 205 199.553 205ZM199.553 118.43C230.508 118.43 255.199 108.071 273.625 87.3532C292.419 66.6356 301.817 39.2587 301.817 5.22252C301.817 -29.1836 292.419 -56.5605 273.625 -76.9082C255.199 -97.6259 230.508 -107.985 199.553 -107.985C168.229 -107.985 143.169 -97.8109 124.375 -77.4632C105.949 -57.1154 96.7361 -29.5536 96.7361 5.22252C96.7361 39.6286 105.949 67.1905 124.375 87.9082C143.169 108.256 168.229 118.43 199.553 118.43Z" fill="#CCE4FF" fill-opacity="0.5"/>
</svg>