<svg xmlns="http://www.w3.org/2000/svg" width="199" height="187" viewBox="0 0 199 187" fill="none">
  <path d="M0.552796 398C-35.9305 398 -69.4657 389.512 -100.053 372.537C-130.271 355.561 -154.409 331.943 -172.467 301.683C-190.156 271.053 -199 236.733 -199 198.723C-199 160.713 -190.156 126.578 -172.467 96.3171C-154.409 66.0565 -130.271 42.4386 -100.053 25.4631C-69.4657 8.48771 -35.9305 -1.82693e-07 0.552795 -2.23567e-07C37.0361 -2.64441e-07 70.3871 8.48771 100.606 25.4631C131.193 42.4386 155.146 66.0565 172.467 96.3171C190.156 126.578 199 160.713 199 198.723C199 236.733 190.156 271.053 172.467 301.683C154.778 331.943 130.824 355.561 100.606 372.537C70.3871 389.512 37.0361 398 0.552796 398ZM0.552796 311.647C31.5083 311.647 56.1991 301.314 74.625 280.648C93.4195 259.982 102.817 232.674 102.817 198.723C102.817 164.403 93.4195 137.095 74.625 116.798C56.1991 96.1326 31.5083 85.7997 0.552796 85.7997C-30.7713 85.7997 -55.8306 95.9481 -74.625 116.245C-93.0509 136.541 -102.264 164.034 -102.264 198.723C-102.264 233.043 -93.0509 260.536 -74.625 281.202C-55.8306 301.498 -30.7713 311.647 0.552796 311.647Z" fill="#CCE4FF" fill-opacity="0.5"/>
</svg>