<svg width="48" height="48" viewBox="0 0 48 48" fill="none" xmlns="http://www.w3.org/2000/svg">
<rect width="48" height="48" rx="8" fill="#F0F9FC"/>
<path d="M24 34.75C19.45 34.75 15.75 31.05 15.75 26.5V21.5C15.75 16.95 19.45 13.25 24 13.25C28.55 13.25 32.25 16.95 32.25 21.5V26.5C32.25 31.05 28.55 34.75 24 34.75ZM24 14.75C20.28 14.75 17.25 17.78 17.25 21.5V26.5C17.25 30.22 20.28 33.25 24 33.25C27.72 33.25 30.75 30.22 30.75 26.5V21.5C30.75 17.78 27.72 14.75 24 14.75Z" fill="#0079FF"/>
<path d="M24 23.75C22.76 23.75 21.75 22.74 21.75 21.5V19.5C21.75 18.26 22.76 17.25 24 17.25C25.24 17.25 26.25 18.26 26.25 19.5V21.5C26.25 22.74 25.24 23.75 24 23.75ZM24 18.75C23.59 18.75 23.25 19.09 23.25 19.5V21.5C23.25 21.91 23.59 22.25 24 22.25C24.41 22.25 24.75 21.91 24.75 21.5V19.5C24.75 19.09 24.41 18.75 24 18.75Z" fill="#0079FF"/>
<path d="M24 18.75C23.59 18.75 23.25 18.41 23.25 18V14C23.25 13.59 23.59 13.25 24 13.25C24.41 13.25 24.75 13.59 24.75 14V18C24.75 18.41 24.41 18.75 24 18.75Z" fill="#0079FF"/>
</svg>
