<svg width="40" height="41" viewBox="0 0 40 41" fill="none" xmlns="http://www.w3.org/2000/svg">
<path d="M15.5168 24.79L18.0168 27.29L24.6835 20.6234" stroke="#414141" stroke-width="1.5" stroke-linecap="round" stroke-linejoin="round"/>
<path d="M18.2666 3.62329H16.6666C14.9999 3.62329 13.3333 3.62329 13.3333 6.95662C13.3333 10.29 14.9999 10.29 16.6666 10.29H23.3333C26.6666 10.29 26.6666 8.62329 26.6666 6.95662C26.6666 3.62329 24.9999 3.62329 23.3333 3.62329" stroke="#414141" stroke-width="1.5" stroke-miterlimit="10" stroke-linecap="round" stroke-linejoin="round"/>
<path d="M5 16.9567C5 9.35666 7.78333 7.28999 13.3333 6.98999" stroke="#414141" stroke-width="1.5" stroke-miterlimit="10" stroke-linecap="round" stroke-linejoin="round"/>
<path d="M26.6667 6.98999C32.2167 7.28999 35 9.33999 35 16.9567V26.9567C35 33.6233 33.3333 36.9567 25 36.9567H15C6.66667 36.9567 5 33.6233 5 26.9567V23.4733" stroke="#414141" stroke-width="1.5" stroke-miterlimit="10" stroke-linecap="round" stroke-linejoin="round"/>
</svg>
