<svg xmlns="http://www.w3.org/2000/svg" width="40" height="40" viewBox="0 0 40 40" fill="none">
  <path d="M5 11.6667C5 8.90523 7.23858 6.66666 10 6.66666H10.4575C11.7653 6.66666 13.0195 7.18618 13.9443 8.11094C14.6327 8.79932 15.5094 9.26854 16.464 9.45946L18.371 9.84086C18.898 9.94626 19.4385 9.96601 19.9718 9.89935L24.459 9.33845C25.3317 9.22936 26.1138 8.74602 26.6016 8.01424C27.1629 7.17234 28.1078 6.66666 29.1196 6.66666H30.1146C32.8127 6.66666 35 8.85393 35 11.5521V31.6667C35 34.4281 32.7614 36.6667 30 36.6667H10C7.23858 36.6667 5 34.4281 5 31.6667V11.6667Z" fill="#FFB130"/>
  <path d="M15.5168 24.5L18.0168 27L24.6835 20.3333" stroke="#292D32" stroke-width="2" stroke-linecap="round" stroke-linejoin="round"/>
  <path d="M18.2666 3.33334H16.6666C14.9999 3.33334 13.3333 3.33334 13.3333 6.66668C13.3333 10 14.9999 10 16.6666 10H23.3333C26.6666 10 26.6666 8.33334 26.6666 6.66668C26.6666 3.33334 24.9999 3.33334 23.3333 3.33334" stroke="#414141" stroke-width="2" stroke-miterlimit="10" stroke-linecap="round" stroke-linejoin="round"/>
  <path d="M5 16.6666C5 9.06665 7.78333 6.99998 13.3333 6.69998" stroke="#414141" stroke-width="2" stroke-miterlimit="10" stroke-linecap="round" stroke-linejoin="round"/>
  <path d="M26.6667 6.69998C32.2167 6.99998 35 9.04998 35 16.6666V26.6666C35 33.3333 33.3333 36.6666 25 36.6666H15C6.66667 36.6666 5 33.3333 5 26.6666V23.1833" stroke="#292D32" stroke-width="2" stroke-miterlimit="10" stroke-linecap="round" stroke-linejoin="round"/>
</svg>