<svg width="41" height="41" viewBox="0 0 41 41" fill="none" xmlns="http://www.w3.org/2000/svg">
<path d="M16.7288 33.9557L24.7288 33.9557C31.3955 33.9557 34.0622 31.2891 34.0622 24.6224L34.0622 16.6224C34.0622 9.95573 31.3955 7.28906 24.7288 7.28906L16.7288 7.28906C10.0622 7.28906 7.39551 9.95573 7.39551 16.6224L7.39551 24.6224C7.39551 31.2891 10.0622 33.9557 16.7288 33.9557Z" stroke="#292D32" stroke-width="1.5" stroke-linecap="round" stroke-linejoin="round"/>
<path d="M12.3955 18.1224L12.3955 23.1224C12.3955 27.2891 14.0622 28.9557 18.2288 28.9557L23.2288 28.9557C27.3955 28.9557 29.0622 27.2891 29.0622 23.1224L29.0622 18.1224C29.0622 13.9557 27.3955 12.2891 23.2288 12.2891L18.2288 12.2891" stroke="#292D32" stroke-width="1.5" stroke-linecap="round" stroke-linejoin="round"/>
<path d="M14.0781 7.28939L14.0781 3.95605" stroke="#292D32" stroke-width="1.5" stroke-linecap="round" stroke-linejoin="round"/>
<path d="M20.7285 7.28939L20.7285 3.95605" stroke="#292D32" stroke-width="1.5" stroke-linecap="round" stroke-linejoin="round"/>
<path d="M27.3955 7.28939L27.3955 3.95605" stroke="#292D32" stroke-width="1.5" stroke-linecap="round" stroke-linejoin="round"/>
<path d="M34.0615 13.9561L37.3949 13.9561" stroke="#292D32" stroke-width="1.5" stroke-linecap="round" stroke-linejoin="round"/>
<path d="M34.0615 20.6226L37.3949 20.6226" stroke="#292D32" stroke-width="1.5" stroke-linecap="round" stroke-linejoin="round"/>
<path d="M34.0615 27.2891L37.3949 27.2891" stroke="#292D32" stroke-width="1.5" stroke-linecap="round" stroke-linejoin="round"/>
<path d="M27.3955 33.9561L27.3955 37.2894" stroke="#292D32" stroke-width="1.5" stroke-linecap="round" stroke-linejoin="round"/>
<path d="M20.7451 33.9561L20.7451 37.2894" stroke="#292D32" stroke-width="1.5" stroke-linecap="round" stroke-linejoin="round"/>
<path d="M14.0781 33.9561L14.0781 37.2894" stroke="#292D32" stroke-width="1.5" stroke-linecap="round" stroke-linejoin="round"/>
<path d="M4.06152 13.9561L7.39486 13.9561" stroke="#292D32" stroke-width="1.5" stroke-linecap="round" stroke-linejoin="round"/>
<path d="M4.06152 20.6226L7.39486 20.6226" stroke="#292D32" stroke-width="1.5" stroke-linecap="round" stroke-linejoin="round"/>
<path d="M4.06152 27.2891L7.39486 27.2891" stroke="#292D32" stroke-width="1.5" stroke-linecap="round" stroke-linejoin="round"/>
</svg>
