<svg xmlns="http://www.w3.org/2000/svg" width="40" height="41" viewBox="0 0 40 41" fill="none">
  <path d="M36.6667 25.79C36.6667 32.24 31.45 37.4566 25 37.4566L26.75 34.54" stroke="#292D32" stroke-width="1.5" stroke-linecap="round" stroke-linejoin="round"/>
  <path d="M3.33325 15.79C3.33325 9.33996 8.54992 4.12329 14.9999 4.12329L13.2499 7.03996" stroke="#292D32" stroke-width="1.5" stroke-linecap="round" stroke-linejoin="round"/>
  <path d="M27.9 4.47329L23.9 6.68988C23 7.18988 22.25 8.45654 22.25 9.48987V13.7233C22.25 14.7566 22.9833 16.0233 23.9 16.5233L27.9 18.74C28.75 19.2233 30.15 19.2233 31.0167 18.74L35.0166 16.5233C35.9166 16.0233 36.6667 14.7566 36.6667 13.7233V9.48987C36.6667 8.45654 35.9333 7.18988 35.0166 6.68988L31.0167 4.47329C30.1667 4.00662 28.7667 4.00662 27.9 4.47329Z" fill="#FFB130" stroke="#292D32" stroke-width="1.5" stroke-linecap="round" stroke-linejoin="round"/>
  <path d="M22.8333 8.20667L29.4666 12.04L36.0332 8.22335" stroke="#292D32" stroke-width="1.5" stroke-linecap="round" stroke-linejoin="round"/>
  <path d="M29.4666 18.8233V12.0233" stroke="#292D32" stroke-width="1.5" stroke-linecap="round" stroke-linejoin="round"/>
  <path d="M17.7499 27.8399C17.7499 26.8065 17.0166 25.5399 16.0999 25.0399L12.0999 22.8232C11.2499 22.3399 9.84992 22.3399 8.98325 22.8232L4.98326 25.0399C4.08326 25.5399 3.33325 26.8065 3.33325 27.8399V32.0733C3.33325 33.1066 4.06659 34.3733 4.98326 34.8733L8.98325 37.09C9.83325 37.5733 11.2332 37.5733 12.0999 37.09L16.0999 34.8733" fill="#FFB130"/>
  <path d="M17.7499 27.8399C17.7499 26.8065 17.0166 25.5399 16.0999 25.0399L12.0999 22.8232C11.2499 22.3399 9.84992 22.3399 8.98325 22.8232L4.98326 25.0399C4.08326 25.5399 3.33325 26.8065 3.33325 27.8399V32.0733C3.33325 33.1066 4.06659 34.3733 4.98326 34.8733L8.98325 37.09C9.83325 37.5733 11.2332 37.5733 12.0999 37.09L16.0999 34.8733" stroke="#292D32" stroke-width="1.5" stroke-linecap="round" stroke-linejoin="round"/>
  <path d="M3.9165 26.54L10.5332 30.3733L17.1165 26.5567" fill="#FFB130"/>
  <path d="M3.9165 26.54L10.5332 30.3733L17.1165 26.5567" stroke="#292D32" stroke-width="1.5" stroke-linecap="round" stroke-linejoin="round"/>
  <path d="M10.5332 37.1567V30.3566" stroke="#292D32" stroke-width="1.5" stroke-linecap="round" stroke-linejoin="round"/>
</svg>