<svg width="73" height="72" viewBox="0 0 73 72" fill="none" xmlns="http://www.w3.org/2000/svg">
<rect x="0.5" width="72" height="72" rx="36" fill="#FAFAFA"/>
<path d="M19.5 22.5C19.5 20.567 21.067 19 23 19H30.0504C31.9636 19 33.5223 20.5363 33.55 22.4493L33.9297 48.648C33.9643 51.0357 31.6438 52.7551 29.2966 52.3163C28.3073 52.1313 27.3171 52 26.5 52C25.6945 52 24.7633 52.0851 23.8483 52.2056C21.6098 52.5005 19.5 50.836 19.5 48.5782V22.5Z" fill="#FFB130"/>
<path d="M38.1936 23.5828C38.1112 20.7794 41.2397 19.0602 43.9532 19.7694C44.5039 19.9133 45.0305 20 45.5 20C46.3853 20 47.5251 19.8458 48.6653 19.6364C51.0462 19.199 53.336 21.0419 53.1802 23.4577L52.7113 30.7253C52.5925 32.567 51.064 34 49.2185 34H41.8986C40.0056 34 38.4557 32.495 38.4001 30.6029L38.1936 23.5828Z" fill="#FFB130"/>
<rect x="39" y="38" width="14" height="15" rx="3.5" fill="#FFB130"/>
<path d="M30.283 52.6667C32.933 52.6667 33.9997 51.6667 33.9997 49.1667V22.8334C33.9997 20.3334 32.933 19.3334 30.283 19.3334H23.5497C20.8997 19.3334 19.833 20.3334 19.833 22.8334V49.1667C19.833 51.6667 20.8997 52.6667 23.5497 52.6667" stroke="#292D32" stroke-width="1.5" stroke-linecap="round" stroke-linejoin="round"/>
<path d="M42.7167 19.3334C40.0667 19.3334 39 20.2834 39 22.6334V30.1834C39 32.55 40.0667 33.4834 42.7167 33.4834H49.45C52.1 33.4834 53.1667 32.5334 53.1667 30.1834V22.6334C53.1667 20.2834 52.1 19.3334 49.45 19.3334" stroke="#292D32" stroke-width="1.5" stroke-linecap="round" stroke-linejoin="round"/>
<path d="M53.1667 48.95V42.2167C53.1667 39.5667 52.1 38.5 49.45 38.5H42.7167C40.0667 38.5 39 39.5667 39 42.2167V48.95C39 51.6 40.0667 52.6667 42.7167 52.6667H49.45C52.1 52.6667 53.1667 51.6 53.1667 48.95Z" stroke="#292D32" stroke-width="1.5" stroke-linecap="round" stroke-linejoin="round"/>
</svg>
