<svg width="16" height="16" viewBox="0 0 16 16" fill="none" xmlns="http://www.w3.org/2000/svg">
<g id="vuesax/linear/empty-wallet-tick">
<g id="Group">
<path id="Vector" d="M12.026 9.03328C11.746 9.30662 11.586 9.69995 11.626 10.12C11.686 10.84 12.346 11.3666 13.066 11.3666H14.3327V12.16C14.3327 13.54 13.206 14.6666 11.826 14.6666H5.08602C5.29269 14.4933 5.47268 14.28 5.61268 14.04C5.85935 13.64 5.99935 13.1666 5.99935 12.6666C5.99935 11.1933 4.80602 9.99996 3.33268 9.99996C2.70602 9.99996 2.12602 10.22 1.66602 10.5866V7.6733C1.66602 6.2933 2.79268 5.16663 4.17268 5.16663H11.826C13.206 5.16663 14.3327 6.2933 14.3327 7.6733V8.6333H12.986C12.6127 8.6333 12.2727 8.77995 12.026 9.03328Z" stroke="#8D8D8D" stroke-linecap="round" stroke-linejoin="round"/>
<path id="Vector_2" d="M1.66602 8.27331V5.22668C1.66602 4.43334 2.15268 3.72665 2.89268 3.44665L8.18602 1.44665C9.01268 1.13331 9.89935 1.74667 9.89935 2.63333V5.16666" stroke="#8D8D8D" stroke-linecap="round" stroke-linejoin="round"/>
</g>
<path id="Vector_3" d="M15.0386 9.31346V10.6868C15.0386 11.0535 14.7452 11.3535 14.3719 11.3668H13.0652C12.3452 11.3668 11.6852 10.8401 11.6252 10.1201C11.5852 9.70014 11.7452 9.3068 12.0252 9.03347C12.2719 8.78013 12.6119 8.63348 12.9852 8.63348H14.3719C14.7452 8.64682 15.0386 8.94679 15.0386 9.31346Z" stroke="#8D8D8D" stroke-linecap="round" stroke-linejoin="round"/>
<path id="Vector_4" d="M4.66602 8H9.33268" stroke="#8D8D8D" stroke-linecap="round" stroke-linejoin="round"/>
<g id="Group_2">
<path id="Vector_5" d="M5.99935 12.6667C5.99935 13.1667 5.85935 13.64 5.61268 14.04C5.47268 14.28 5.29269 14.4933 5.08602 14.6667C4.61935 15.0867 4.00602 15.3333 3.33268 15.3333C2.35935 15.3333 1.51268 14.8133 1.05268 14.04C0.806017 13.64 0.666016 13.1667 0.666016 12.6667C0.666016 11.8267 1.05268 11.0733 1.66602 10.5867C2.12602 10.22 2.70602 10 3.33268 10C4.80602 10 5.99935 11.1933 5.99935 12.6667Z" stroke="#8D8D8D" stroke-miterlimit="10" stroke-linecap="round" stroke-linejoin="round"/>
<path id="Vector_6" d="M2.29297 12.6663L2.95296 13.3263L4.37297 12.013" stroke="#8D8D8D" stroke-linecap="round" stroke-linejoin="round"/>
</g>
</g>
</svg>
