<svg width="48" height="48" viewBox="0 0 48 48" fill="none" xmlns="http://www.w3.org/2000/svg">
<rect width="48" height="48" rx="8" fill="#FEF3C7"/>
<path d="M30.19 29.75H19.54C18.55 29.75 17.6 29.33 16.93 28.6C16.26 27.87 15.92 26.89 16 25.9L16.83 15.94C16.86 15.63 16.75 15.33 16.54 15.1C16.33 14.87 16.04 14.75 15.73 14.75H14C13.59 14.75 13.25 14.41 13.25 14C13.25 13.59 13.59 13.25 14 13.25H15.74C16.47 13.25 17.16 13.56 17.65 14.09C17.92 14.39 18.12 14.74 18.23 15.13H30.72C31.73 15.13 32.66 15.53 33.34 16.25C34.01 16.98 34.35 17.93 34.27 18.94L33.73 26.44C33.62 28.27 32.02 29.75 30.19 29.75ZM18.28 16.62L17.5 26.02C17.45 26.6 17.64 27.15 18.03 27.58C18.42 28.01 18.96 28.24 19.54 28.24H30.19C31.23 28.24 32.17 27.36 32.25 26.32L32.79 18.82C32.83 18.23 32.64 17.67 32.25 17.26C31.86 16.84 31.32 16.61 30.73 16.61H18.28V16.62Z" fill="#D97706"/>
<path d="M28.25 34.75C27.15 34.75 26.25 33.85 26.25 32.75C26.25 31.65 27.15 30.75 28.25 30.75C29.35 30.75 30.25 31.65 30.25 32.75C30.25 33.85 29.35 34.75 28.25 34.75ZM28.25 32.25C27.97 32.25 27.75 32.47 27.75 32.75C27.75 33.03 27.97 33.25 28.25 33.25C28.53 33.25 28.75 33.03 28.75 32.75C28.75 32.47 28.53 32.25 28.25 32.25Z" fill="#D97706"/>
<path d="M20.25 34.75C19.15 34.75 18.25 33.85 18.25 32.75C18.25 31.65 19.15 30.75 20.25 30.75C21.35 30.75 22.25 31.65 22.25 32.75C22.25 33.85 21.35 34.75 20.25 34.75ZM20.25 32.25C19.97 32.25 19.75 32.47 19.75 32.75C19.75 33.03 19.97 33.25 20.25 33.25C20.53 33.25 20.75 33.03 20.75 32.75C20.75 32.47 20.53 32.25 20.25 32.25Z" fill="#D97706"/>
<path d="M33 20.75H21C20.59 20.75 20.25 20.41 20.25 20C20.25 19.59 20.59 19.25 21 19.25H33C33.41 19.25 33.75 19.59 33.75 20C33.75 20.41 33.41 20.75 33 20.75Z" fill="#D97706"/>
</svg>
