<svg width="30" height="35" viewBox="0 0 30 35" fill="none" xmlns="http://www.w3.org/2000/svg">
<path d="M0.728516 5.73877C0.728516 2.97735 2.96709 0.73877 5.72852 0.73877L26.2285 0.73877C28.1615 0.73877 29.7285 2.30577 29.7285 4.23877L29.7285 8.05843C29.7285 8.83465 29.5478 9.60022 29.2007 10.2945L27.9186 12.8587C27.469 13.7578 27.3044 14.7696 27.3937 15.7709C27.5967 18.045 27.795 22.2094 26.7285 23.7388C26.3398 24.2962 25.3896 24.7177 24.3573 25.0266C22.255 25.6555 20.4588 27.2223 20.0662 29.3813C19.8488 30.5774 19.1979 31.6514 18.2383 32.3978L16.8949 33.4427C15.8476 34.2573 14.4744 34.5233 13.1986 34.1588L12.7443 34.029C12.0886 33.8416 11.5208 33.4272 11.1425 32.8598C10.871 32.4525 10.708 31.9827 10.669 31.4948L9.86464 21.4403C9.77639 20.3372 9.32467 19.2945 8.58026 18.4757L4.72852 14.2388L1.82417 10.6083C1.11492 9.72178 0.728516 8.62022 0.728516 7.48486L0.728516 5.73877Z" fill="#FFB130"/>
</svg>
