<svg width="40" height="41" viewBox="0 0 40 41" fill="none" xmlns="http://www.w3.org/2000/svg">
<path d="M6.6167 30.29C6.6167 35.29 8.28337 36.9567 13.2834 36.9567H26.6167C31.6167 36.9567 33.2834 35.29 33.2834 30.29V16.9567H6.6167V23.3567" stroke="#292D32" stroke-width="1.5" stroke-miterlimit="10" stroke-linecap="round" stroke-linejoin="round"/>
<path d="M35.8333 11.9566V13.6233C35.8333 15.4566 34.95 16.9566 32.5 16.9566H7.49996C4.94996 16.9566 4.16663 15.4566 4.16663 13.6233V11.9566C4.16663 10.1233 4.94996 8.62329 7.49996 8.62329H32.5C34.95 8.62329 35.8333 10.1233 35.8333 11.9566Z" stroke="#292D32" stroke-width="1.5" stroke-miterlimit="10" stroke-linecap="round" stroke-linejoin="round"/>
<path d="M19.4 8.62334H10.2C9.6333 8.00667 9.64997 7.05667 10.25 6.45667L12.6166 4.09C13.2333 3.47334 14.25 3.47334 14.8666 4.09L19.4 8.62334Z" stroke="#292D32" stroke-width="1.5" stroke-miterlimit="10" stroke-linecap="round" stroke-linejoin="round"/>
<path d="M29.7834 8.62334H20.5834L25.1167 4.09C25.7334 3.47334 26.75 3.47334 27.3667 4.09L29.7334 6.45667C30.3334 7.05667 30.35 8.00667 29.7834 8.62334Z" stroke="#292D32" stroke-width="1.5" stroke-miterlimit="10" stroke-linecap="round" stroke-linejoin="round"/>
<path d="M14.9 16.9567V25.5233C14.9 26.8567 16.3667 27.64 17.4834 26.9233L19.05 25.89C19.6167 25.5233 20.3334 25.5233 20.8834 25.89L22.3667 26.89C23.4667 27.6233 24.95 26.84 24.95 25.5067V16.9567H14.9Z" stroke="#292D32" stroke-width="1.5" stroke-miterlimit="10" stroke-linecap="round" stroke-linejoin="round"/>
</svg>
