<svg xmlns="http://www.w3.org/2000/svg" width="40" height="41" viewBox="0 0 40 41" fill="none">
  <path d="M4.20859 12.8313C4.38839 11.3929 5.33549 10.1658 6.68137 9.62745L8.0163 9.09348C8.96706 8.71318 9.73007 7.97413 10.1405 7.03598L10.2043 6.89014C11.4126 4.12837 15.2086 3.81285 16.8807 6.32109C18.3687 8.55304 21.6511 8.58689 23.1658 6.37303C24.7243 4.09519 28.1178 4.1964 29.5378 6.56307L30.114 7.52339C30.6813 8.46885 31.6009 9.15023 32.6706 9.41765L32.7817 9.44541C34.1543 9.78858 35.2395 10.8382 35.6282 12.1986C35.8692 13.0422 35.8232 13.942 35.4973 14.7566L33.4649 19.8377C33.1578 20.6055 33 21.4249 33 22.2518V31.5C33 35.0899 30.0899 38 26.5 38H12.5C8.91015 38 6 35.0899 6 31.5V18.4528C6 17.5123 5.67994 16.5999 5.09247 15.8656L5.05056 15.8132C4.3789 14.9736 4.07523 13.8981 4.20859 12.8313Z" fill="#FFB130"/>
  <path d="M6.6167 30.79C6.6167 35.79 8.28337 37.4567 13.2834 37.4567H26.6167C31.6167 37.4567 33.2834 35.79 33.2834 30.79V17.4567H6.6167V23.8567" stroke="#292D32" stroke-width="1.5" stroke-miterlimit="10" stroke-linecap="round" stroke-linejoin="round"/>
  <path d="M35.8334 12.4566V14.1233C35.8334 15.9566 34.9501 17.4566 32.5001 17.4566H7.50008C4.95008 17.4566 4.16675 15.9566 4.16675 14.1233V12.4566C4.16675 10.6233 4.95008 9.12329 7.50008 9.12329H32.5001C34.9501 9.12329 35.8334 10.6233 35.8334 12.4566Z" stroke="#292D32" stroke-width="1.5" stroke-miterlimit="10" stroke-linecap="round" stroke-linejoin="round"/>
  <path d="M19.4 9.12334H10.2C9.6333 8.50667 9.64997 7.55667 10.25 6.95667L12.6166 4.59C13.2333 3.97334 14.25 3.97334 14.8666 4.59L19.4 9.12334Z" stroke="#292D32" stroke-width="1.5" stroke-miterlimit="10" stroke-linecap="round" stroke-linejoin="round"/>
  <path d="M29.7833 9.12334H20.5833L25.1166 4.59C25.7333 3.97334 26.7499 3.97334 27.3666 4.59L29.7333 6.95667C30.3333 7.55667 30.3499 8.50667 29.7833 9.12334Z" stroke="#292D32" stroke-width="1.5" stroke-miterlimit="10" stroke-linecap="round" stroke-linejoin="round"/>
  <path d="M14.8999 17.4567V26.0233C14.8999 27.3567 16.3666 28.14 17.4832 27.4233L19.0499 26.39C19.6166 26.0233 20.3332 26.0233 20.8832 26.39L22.3666 27.39C23.4666 28.1233 24.9499 27.34 24.9499 26.0067V17.4567H14.8999Z" stroke="#292D32" stroke-width="1.5" stroke-miterlimit="10" stroke-linecap="round" stroke-linejoin="round"/>
</svg>