<svg width="41" height="41" viewBox="0 0 41 41" fill="none" xmlns="http://www.w3.org/2000/svg">
<rect x="3.72852" y="3.62256" width="34" height="34" rx="17" fill="#99C9FF"/>
<path d="M20.7287 37.2894C29.9334 37.2894 37.3953 29.8275 37.3953 20.6227C37.3953 11.418 29.9334 3.95605 20.7287 3.95605C11.5239 3.95605 4.06201 11.418 4.06201 20.6227C4.06201 29.8275 11.5239 37.2894 20.7287 37.2894Z" stroke="#292D32" stroke-width="1.5" stroke-linecap="round" stroke-linejoin="round"/>
<path d="M13.2954 20.6226C13.2954 25.6892 14.1121 30.7559 15.7287 35.6226L14.0621 35.6226" stroke="#292D32" stroke-width="1.5" stroke-linecap="round" stroke-linejoin="round"/>
<path d="M14.0617 5.62256L15.7284 5.62256C14.9117 8.05589 14.3117 10.5392 13.895 13.0559" stroke="#292D32" stroke-width="1.5" stroke-linecap="round" stroke-linejoin="round"/>
<path d="M27.6118 27.8892C27.1952 30.4892 26.5785 33.0892 25.7285 35.6225" stroke="#292D32" stroke-width="1.5" stroke-linecap="round" stroke-linejoin="round"/>
<path d="M25.7285 5.62256C27.3452 10.4892 28.1618 15.5559 28.1618 20.6226" stroke="#292D32" stroke-width="1.5" stroke-linecap="round" stroke-linejoin="round"/>
<path d="M5.72852 27.2892L5.72852 25.6226C15.4618 28.8726 25.9952 28.8726 35.7285 25.6226L35.7285 27.2892" stroke="#292D32" stroke-width="1.5" stroke-linecap="round" stroke-linejoin="round"/>
<path d="M5.72852 15.6226C15.4618 12.3726 25.9952 12.3726 35.7285 15.6226" stroke="#292D32" stroke-width="1.5" stroke-linecap="round" stroke-linejoin="round"/>
</svg>
