<svg width="1414" height="508" viewBox="0 0 1414 508" fill="none" xmlns="http://www.w3.org/2000/svg">
<path d="M1274.31 34.3878C1246.29 35.135 1230.7 58.4403 1234.63 67.5096C1235.79 70.1861 1238.65 71.6227 1243.39 70.8733C1298.57 62.1556 1326.16 105.26 1330.24 83.4653C1334.32 61.6714 1310.61 33.4195 1274.31 34.3878Z" fill="#FFB130"/>
<path d="M1280.5 307.716C1260.11 332.956 1226.83 352.079 1237.68 371.262C1285.15 352.678 1377.13 375.106 1374.29 357.93C1366.45 310.508 1398.34 263.336 1397.33 224.676C1396.72 202.149 1385.3 165.21 1361.3 157.086C1264.19 124.219 1242.27 195.068 1242.27 234.394C1242.27 244.18 1258.07 243.281 1280.5 245.503C1302.92 247.726 1305.99 276.165 1280.5 307.716Z" fill="#CCDCF6"/>
<path d="M1210.17 72.3813L1176.04 83.3913C1168.53 86.3678 1175.15 93.9257 1189.35 92.0217C1207.1 89.641 1242.85 67.4514 1269.9 70.2984C1289.7 72.3813 1307.71 80.416 1316.28 92.0217" stroke="#1C4F4A" stroke-width="3" stroke-linecap="round"/>
<path d="M1305.74 124.159C1305.31 116.41 1311.9 104.552 1316.28 92.0215" stroke="#1C4F4A" stroke-width="3" stroke-linecap="round"/>
<path d="M1220.41 68.2158C1229.96 53.1379 1262.39 31.0188 1297.55 45.3021C1324.19 56.128 1322.35 74.7171 1316.28 92.0221" stroke="#1C4F4A" stroke-width="3" stroke-linecap="round"/>
<path d="M1220.3 69.1975C1223.07 72.2518 1226.96 79.9118 1220.3 95.0812C1211.96 114.043 1223.71 115.308 1220.3 135.533C1218.45 146.477 1252.19 134.615 1255.82 146.939C1259.44 159.264 1230.44 194.974 1218.12 184.545C1205.8 174.117 1264.52 115.969 1328.68 152.312C1380 181.386 1376.69 192.108 1368.19 188.97C1368.19 188.97 1315.99 154.226 1328.68 175.399C1341.37 196.573 1360.21 256.473 1334.11 320.435" stroke="#1C4F4A" stroke-width="3" stroke-linecap="round"/>
<path d="M1275.35 124.149C1286.29 123.396 1313.12 125.556 1332.92 140.211" stroke="#1C4F4A" stroke-width="3" stroke-linecap="round"/>
<path d="M1250.31 98.8019C1256.74 94.5362 1267.12 82.942 1257.22 70.6963" stroke="#1C4F4A" stroke-width="3" stroke-linecap="round"/>
<path d="M1270.46 70.6953C1273.72 75.02 1279.64 85.5343 1281.09 97.1959C1281.53 100.716 1284.67 103.685 1288.65 104.395C1295 105.528 1302.52 107.899 1307.01 112.102" stroke="#1C4F4A" stroke-width="3" stroke-linecap="round" stroke-linejoin="round"/>
<path d="M1200.12 89.824C1205.11 91.6648 1217.37 97.5177 1217.37 105.908" stroke="#1C4F4A" stroke-width="3" stroke-linecap="round" stroke-linejoin="round"/>
<path d="M1301.09 79.1077C1301.09 63.453 1310.18 51.8651 1317.64 62.2332" stroke="#1C4F4A" stroke-width="3" stroke-linecap="round" stroke-linejoin="round"/>
<path d="M1212.21 299.66C1220.2 300.158 1229.75 303.762 1235.31 310.847C1240.71 317.727 1242.58 319.424 1250.71 316.813C1258.83 314.203 1286.63 295.186 1286.63 253.424C1286.63 220.015 1294.61 203.46 1298.61 199.359" stroke="#1C4F4A" stroke-width="3" stroke-linecap="round" stroke-linejoin="round"/>
<path d="M1114.9 202.23C1140.49 210.383 1124.75 239.987 1187.25 254.576C1249.75 269.163 1244.34 288.47 1230.56 283.75C1216.78 279.03 1215.79 265.731 1220.71 242.562C1224.65 224.026 1219.07 202.516 1215.79 194.079" stroke="#1C4F4A" stroke-width="3" stroke-linecap="round" stroke-linejoin="round"/>
<path d="M1218.61 255.353C1234.74 253.855 1270.68 253.255 1285.34 262.844" stroke="#1C4F4A" stroke-width="3" stroke-linecap="round" stroke-linejoin="round"/>
<path d="M1066.8 189.29C1066.8 189.29 1066.51 218.126 1081.34 225.086C1096.17 232.046 1132.49 252.006 1159.18 276.168C1192.54 306.37 1212.21 308.608 1219.06 314.574C1225.9 320.54 1223.33 346.64 1214.35 366.03C1207.17 381.541 1209.93 401.328 1212.21 409.283" stroke="#1C4F4A" stroke-width="3" stroke-linecap="round" stroke-linejoin="round"/>
<path d="M1127.74 251.601C1136.07 242.677 1156.88 227.319 1173.44 237.281" stroke="#1C4F4A" stroke-width="3" stroke-linecap="round" stroke-linejoin="round"/>
<path d="M1096.67 211.753L1039.18 162.566L1075.25 172.217L1113.81 203.348L1096.67 211.753Z" stroke="#1C4F4A" stroke-width="3" stroke-linecap="round" stroke-linejoin="round"/>
<path d="M950.141 381.399C1366.32 338.573 838.342 482.696 1017.66 505.29C1150.79 522.062 1347.06 357.189 1395.02 381.399C1424.02 396.037 1413.18 418.122 1385.6 403.491C1358.03 388.859 1369.44 312.987 1380.23 271.181C1388.86 237.736 1383.83 211.609 1380.23 202.725" stroke="#1C4F4A" stroke-width="3" stroke-linecap="round" stroke-linejoin="round"/>
<path d="M646.257 388.01C657.492 377.788 840.421 386.631 855.327 384.965C873.023 382.987 892.305 425.03 838.986 419.779C796.288 415.575 663.793 438.687 650.079 423.998C643.829 417.304 638.471 395.093 646.257 388.01Z" fill="#CCDCF6"/>
<path d="M780.647 305.062H804.274C805.103 305.062 805.774 305.648 805.774 306.371V321.001C805.774 321.724 805.103 322.31 804.274 322.31H780.647C779.818 322.31 779.146 321.724 779.146 321.001V306.371C779.146 305.648 779.818 305.062 780.647 305.062Z" fill="#FFB130"/>
<path d="M780.647 331.46H830.904C831.733 331.46 832.407 332.046 832.407 332.769V344.206C832.407 344.93 831.733 345.515 830.904 345.515H780.647C779.818 345.515 779.144 344.93 779.144 344.206V332.769C779.144 332.046 779.818 331.46 780.647 331.46Z" fill="#86BFBA"/>
<path d="M888.416 305.062H912.043C912.872 305.062 913.544 305.648 913.544 306.371V312.936C913.544 313.66 912.872 314.246 912.043 314.246H888.416C887.587 314.246 886.915 313.66 886.915 312.936V306.371C886.915 305.648 887.587 305.062 888.416 305.062Z" fill="#FC6719"/>
<path d="M723.684 286.846H747.311C748.14 286.846 748.812 287.433 748.812 288.156V294.721C748.812 295.444 748.14 296.03 747.311 296.03H723.684C722.855 296.03 722.183 295.444 722.183 294.721V288.156C722.183 287.433 722.855 286.846 723.684 286.846Z" fill="#FC6719"/>
<path d="M723.684 252.438H747.311C748.14 252.438 748.812 253.024 748.812 253.747V273.403C748.812 274.127 748.14 274.713 747.311 274.713H723.684C722.855 274.713 722.183 274.127 722.183 273.403V253.747C722.183 253.024 722.855 252.438 723.684 252.438Z" fill="#CCDCF6"/>
<path d="M844.006 290.857H867.633C868.462 290.857 869.133 291.444 869.133 292.167V294.722C869.133 295.445 868.462 296.031 867.633 296.031H844.006C843.177 296.031 842.504 295.445 842.504 294.722V292.167C842.504 291.444 843.177 290.857 844.006 290.857Z" fill="#CCDCF6"/>
<path d="M844.006 305.062H867.633C868.462 305.062 869.133 305.648 869.133 306.371V335.325C869.133 336.048 868.462 336.634 867.633 336.634H844.006C843.177 336.634 842.504 336.048 842.504 335.325V306.371C842.504 305.648 843.177 305.062 844.006 305.062Z" fill="#CCDCF6"/>
<path d="M686.793 253.86C685.584 254.859 685.532 256.525 686.679 257.579C687.824 258.634 689.735 258.679 690.945 257.679L686.793 253.86ZM690.945 240.834C689.735 239.834 687.824 239.88 686.679 240.934C685.532 241.99 685.584 243.655 686.793 244.655L690.945 240.834ZM696.754 249.257L698.83 251.166C699.432 250.67 699.772 249.979 699.772 249.257C699.772 248.534 699.432 247.844 698.83 247.347L696.754 249.257ZM690.945 257.679L698.83 251.166L694.679 247.347L686.793 253.86L690.945 257.679ZM698.83 247.347L690.945 240.834L686.793 244.655L694.679 251.166L698.83 247.347Z" fill="#FC6719"/>
<path d="M644.465 244.654C645.675 243.655 645.727 241.989 644.58 240.934C643.434 239.88 641.523 239.834 640.314 240.834L644.465 244.654ZM640.314 257.68C641.523 258.68 643.434 258.635 644.58 257.58C645.727 256.525 645.675 254.86 644.465 253.86L640.314 257.68ZM634.504 249.256L632.428 247.347C631.827 247.844 631.486 248.534 631.486 249.256C631.486 249.979 631.827 250.67 632.428 251.166L634.504 249.256ZM640.314 240.834L632.428 247.347L636.58 251.166L644.465 244.654L640.314 240.834ZM632.428 251.166L640.314 257.68L644.465 253.86L636.58 247.347L632.428 251.166Z" fill="#FC6719"/>
<path d="M647.893 283.066C649.509 283.066 650.819 284.208 650.819 285.617C650.819 287.026 649.509 288.168 647.893 288.168C646.276 288.168 644.966 287.026 644.966 285.617C644.966 284.208 646.276 283.066 647.893 283.066Z" fill="#1C4F4A"/>
<path d="M667.941 283.066C669.557 283.066 670.867 284.208 670.867 285.617C670.867 287.026 669.557 288.168 667.941 288.168C666.324 288.168 665.015 287.026 665.015 285.617C665.015 284.208 666.324 283.066 667.941 283.066Z" fill="#1C4F4A"/>
<path d="M687.994 283.066C689.611 283.066 690.92 284.208 690.92 285.617C690.92 287.026 689.611 288.168 687.994 288.168C686.378 288.168 685.068 287.026 685.068 285.617C685.068 284.208 686.378 283.066 687.994 283.066Z" fill="#1C4F4A"/>
<path d="M641.376 291.484C640.129 291.484 639.118 292.365 639.118 293.452V304.815C639.118 305.902 640.129 306.783 641.376 306.783H654.41C655.656 306.783 656.667 305.902 656.667 304.815V293.452C656.667 292.365 655.656 291.484 654.41 291.484H641.376ZM647.893 301.684C649.508 301.684 650.819 300.542 650.819 299.132C650.819 297.723 649.508 296.582 647.893 296.582C646.276 296.582 644.966 297.723 644.966 299.132C644.966 300.542 646.276 301.684 647.893 301.684Z" fill="#FC6719"/>
<path d="M667.941 296.582C669.557 296.582 670.867 297.724 670.867 299.133C670.867 300.543 669.557 301.684 667.941 301.684C666.324 301.684 665.015 300.543 665.015 299.133C665.015 297.724 666.324 296.582 667.941 296.582Z" fill="#1C4F4A"/>
<path d="M687.994 296.582C689.611 296.582 690.92 297.724 690.92 299.133C690.92 300.543 689.611 301.684 687.994 301.684C686.378 301.684 685.068 300.543 685.068 299.133C685.068 297.724 686.378 296.582 687.994 296.582Z" fill="#1C4F4A"/>
<path d="M647.893 310.1C649.509 310.1 650.819 311.242 650.819 312.651C650.819 314.061 649.509 315.203 647.893 315.203C646.276 315.203 644.966 314.061 644.966 312.651C644.966 311.242 646.276 310.1 647.893 310.1Z" fill="#1C4F4A"/>
<path d="M667.941 310.1C669.557 310.1 670.867 311.242 670.867 312.651C670.867 314.061 669.557 315.203 667.941 315.203C666.324 315.203 665.015 314.061 665.015 312.651C665.015 311.242 666.324 310.1 667.941 310.1Z" fill="#1C4F4A"/>
<path d="M705.45 327.885V275.068C705.45 270.177 700.903 266.212 695.294 266.212H637.648C632.039 266.212 627.491 270.177 627.491 275.068V319.03C627.491 323.921 632.029 327.885 637.638 327.885H682.733C689.761 327.885 692.871 323.057 689.858 312.173C742.644 344.795 784.487 245.856 849.69 245.856C860.911 245.856 834.763 260.602 852.44 260.602C876.007 260.602 1009.77 238.644 1066.28 199.228" stroke="#1C4F4A" stroke-width="3" stroke-linecap="round" stroke-linejoin="round"/>
<path d="M605.799 416.735V225.587C605.799 221.36 609.634 217.934 614.483 217.934H868.008" stroke="#1C4F4A" stroke-width="3" stroke-linecap="round" stroke-linejoin="round"/>
<path d="M-37 373.262C39.4457 365.013 158.948 364.289 305.546 397.612C402.361 419.619 562.219 436.872 606 416.254" stroke="#1C4F4A" stroke-width="3" stroke-linecap="round" stroke-linejoin="round"/>
<path d="M825.276 427.662C825.276 442.757 836.759 452.693 842.502 455.774H773.195" stroke="#1C4F4A" stroke-width="3" stroke-linecap="round" stroke-linejoin="round"/>
<path d="M739.408 427.662C739.408 442.757 727.923 452.693 722.182 455.774H791.488" stroke="#1C4F4A" stroke-width="3" stroke-linecap="round" stroke-linejoin="round"/>
<path d="M690.143 418.421H940.116C944.964 418.421 948.895 414.994 948.895 410.767V321.081" stroke="#1C4F4A" stroke-width="3" stroke-linecap="round" stroke-linejoin="round"/>
<path d="M840.433 376.81H630.463C628.308 376.81 626.561 375.287 626.561 373.408V234.931C626.561 233.052 628.308 231.529 630.463 231.529H869.186" stroke="#1C4F4A" stroke-width="3" stroke-linecap="round" stroke-linejoin="round"/>
<path d="M705.442 345.516V371.96" stroke="#1C4F4A" stroke-width="3" stroke-linecap="round"/>
<path d="M705.442 258.538V232.093" stroke="#1C4F4A" stroke-width="3" stroke-linecap="round"/>
<path d="M969.525 0.5H1073.71C1076.35 0.5 1078.5 2.37343 1078.5 4.68259V23.8916C1078.5 26.2007 1076.35 28.0731 1073.71 28.0731H969.525C966.876 28.0731 964.729 26.2007 964.729 23.8916V4.68259C964.729 2.37343 966.876 0.5 969.525 0.5Z" fill="#FFB130"/>
<path d="M955.338 73.3452C957.325 73.3452 958.935 74.7492 958.935 76.4816C958.935 78.214 957.325 79.618 955.338 79.618C953.351 79.618 951.74 78.214 951.74 76.4816C951.74 74.7492 953.351 73.3452 955.338 73.3452Z" fill="#1C4F4A"/>
<path d="M983.745 73.3452C985.732 73.3452 987.342 74.7492 987.342 76.4816C987.342 78.214 985.732 79.618 983.745 79.618C981.758 79.618 980.147 78.214 980.147 76.4816C980.147 74.7492 981.758 73.3452 983.745 73.3452Z" fill="#1C4F4A"/>
<path d="M1012.15 73.3452C1014.14 73.3452 1015.75 74.7492 1015.75 76.4816C1015.75 78.214 1014.14 79.618 1012.15 79.618C1010.17 79.618 1008.56 78.214 1008.56 76.4816C1008.56 74.7492 1010.17 73.3452 1012.15 73.3452Z" fill="#1C4F4A"/>
<path d="M945.704 84.448C943.938 84.448 942.506 85.6952 942.506 87.235V103.335C942.506 104.875 943.938 106.123 945.704 106.123H964.17C965.936 106.123 967.368 104.875 967.368 103.335V87.235C967.368 85.6952 965.936 84.448 964.17 84.448H945.704ZM955.338 98.7703C957.325 98.7703 958.935 97.3662 958.935 95.6338C958.935 93.9015 957.325 92.4974 955.338 92.4974C953.351 92.4974 951.74 93.9015 951.74 95.6338C951.74 97.3662 953.351 98.7703 955.338 98.7703Z" fill="#FC6719"/>
<path d="M983.745 92.4951C985.732 92.4951 987.342 93.8991 987.342 95.6315C987.342 97.3639 985.732 98.768 983.745 98.768C981.758 98.768 980.147 97.3639 980.147 95.6315C980.147 93.8991 981.758 92.4951 983.745 92.4951Z" fill="#1C4F4A"/>
<path d="M1012.15 92.4951C1014.14 92.4951 1015.75 93.8991 1015.75 95.6315C1015.75 97.3639 1014.14 98.768 1012.15 98.768C1010.17 98.768 1008.56 97.3639 1008.56 95.6315C1008.56 93.8991 1010.17 92.4951 1012.15 92.4951Z" fill="#1C4F4A"/>
<path d="M955.338 111.646C957.325 111.646 958.935 113.05 958.935 114.783C958.935 116.515 957.325 117.919 955.338 117.919C953.351 117.919 951.74 116.515 951.74 114.783C951.74 113.05 953.351 111.646 955.338 111.646Z" fill="#1C4F4A"/>
<path d="M983.745 111.646C985.732 111.646 987.342 113.05 987.342 114.783C987.342 116.515 985.732 117.919 983.745 117.919C981.758 117.919 980.147 116.515 980.147 114.783C980.147 113.05 981.758 111.646 983.745 111.646Z" fill="#1C4F4A"/>
<path d="M913.475 56.8025C914.685 55.8026 914.736 54.1376 913.591 53.083C912.444 52.0284 910.534 51.9831 909.323 52.982L913.475 56.8025ZM909.323 75.2568C910.534 76.2556 912.444 76.2114 913.591 75.1558C914.736 74.1012 914.685 72.4362 913.475 71.4363L909.323 75.2568ZM900.228 64.1194L898.153 62.2091C897.55 62.7059 897.21 63.3974 897.21 64.1194C897.21 64.8425 897.55 65.5329 898.153 66.0297L900.228 64.1194ZM909.323 52.982L898.153 62.2091L902.303 66.0297L913.475 56.8025L909.323 52.982ZM898.153 66.0297L909.323 75.2568L913.475 71.4363L902.303 62.2091L898.153 66.0297Z" fill="#FC6719"/>
<path d="M1037.44 136.019V61.1871C1037.44 54.2586 1030.99 48.6404 1023.05 48.6404H941.374C933.428 48.6404 926.985 54.2586 926.985 61.1871V123.474C926.985 130.403 933.413 136.019 941.36 136.019H1005.25C1015.21 136.019 1019.11 129.751 1015.53 125.241C1011.96 120.728 1001.26 120.894 995.466 126.648C989.674 132.402 992.7 145.371 1012.08 148.382C1036.31 152.143 1076.79 141.227 1092.67 155.264C1102.74 164.166 1094.73 179.444 1090.73 182.3" stroke="#1C4F4A" stroke-width="3" stroke-linecap="round" stroke-linejoin="round"/>
<path d="M1000.23 48.5018V12.4403C1000.23 9.36076 1003.09 6.86426 1006.63 6.86426H1083.85C1087.38 6.86426 1090.24 9.36076 1090.24 12.4403V89.7099C1090.24 92.7894 1087.38 95.2859 1083.85 95.2859H1037.46" stroke="#1C4F4A" stroke-width="3"/>
<path d="M1025.12 20.3857H1065.09" stroke="#1C4F4A" stroke-width="3" stroke-linecap="round"/>
<path d="M1038.17 64.1191H1089.95" stroke="#1C4F4A" stroke-width="3" stroke-linecap="round"/>
<path d="M1000.27 34.1152H1089.95" stroke="#1C4F4A" stroke-width="3" stroke-linecap="round"/>
</svg>
