<svg width="48" height="48" viewBox="0 0 48 48" fill="none" xmlns="http://www.w3.org/2000/svg">
<rect width="48" height="48" rx="8" fill="#F0F9FC"/>
<path d="M28 34.75H20C16.98 34.75 15.25 33.02 15.25 30V20.25C15.25 17.1 16.85 15.5 20 15.5C20.41 15.5 20.75 15.84 20.75 16.25C20.75 16.65 20.91 17.03 21.19 17.31C21.47 17.59 21.85 17.75 22.25 17.75H25.75C26.58 17.75 27.25 17.08 27.25 16.25C27.25 15.84 27.59 15.5 28 15.5C31.15 15.5 32.75 17.1 32.75 20.25V30C32.75 33.02 31.02 34.75 28 34.75ZM19.35 17.02C17.77 17.15 16.75 17.86 16.75 20.25V30C16.75 32.22 17.78 33.25 20 33.25H28C30.22 33.25 31.25 32.22 31.25 30V20.25C31.25 17.86 30.23 17.16 28.65 17.02C28.31 18.3 27.14 19.25 25.75 19.25H22.25C21.45 19.25 20.7 18.94 20.13 18.37C19.75 17.99 19.49 17.53 19.35 17.02Z" fill="#0079FF"/>
<path d="M25.75 19.25H22.25C21.45 19.25 20.7 18.94 20.13 18.37C19.56 17.8 19.25 17.05 19.25 16.25C19.25 14.6 20.6 13.25 22.25 13.25H25.75C26.55 13.25 27.3 13.56 27.87 14.13C28.44 14.7 28.75 15.45 28.75 16.25C28.75 17.9 27.4 19.25 25.75 19.25ZM22.25 14.75C21.42 14.75 20.75 15.42 20.75 16.25C20.75 16.65 20.91 17.03 21.19 17.31C21.47 17.59 21.85 17.75 22.25 17.75H25.75C26.58 17.75 27.25 17.08 27.25 16.25C27.25 15.85 27.09 15.47 26.81 15.19C26.53 14.91 26.15 14.75 25.75 14.75H22.25Z" fill="#0079FF"/>
<path d="M24 25.75H20C19.59 25.75 19.25 25.41 19.25 25C19.25 24.59 19.59 24.25 20 24.25H24C24.41 24.25 24.75 24.59 24.75 25C24.75 25.41 24.41 25.75 24 25.75Z" fill="#0079FF"/>
<path d="M28 29.75H20C19.59 29.75 19.25 29.41 19.25 29C19.25 28.59 19.59 28.25 20 28.25H28C28.41 28.25 28.75 28.59 28.75 29C28.75 29.41 28.41 29.75 28 29.75Z" fill="#0079FF"/>
</svg>
