<svg width="14" height="13" viewBox="0 0 14 13" fill="none" xmlns="http://www.w3.org/2000/svg">
<g id="LinkedIN">
<path id="Shape" fill-rule="evenodd" clip-rule="evenodd" d="M3.65948 1.41135C3.65948 2.1959 3.06892 2.82367 2.12069 2.82367H2.10331C1.19033 2.82367 0.600098 2.1959 0.600098 1.41135C0.600098 0.610202 1.2083 0 2.13861 0C3.06892 0 3.64183 0.610202 3.65948 1.41135ZM3.48037 3.93892V12.1098H0.760906V3.93892H3.48037ZM13.2877 12.1098L13.2878 7.42486C13.2878 4.91513 11.9462 3.74706 10.1567 3.74706C8.71281 3.74706 8.06637 4.54012 7.70544 5.09647V3.93914H4.98565C5.02149 4.70585 4.98565 12.11 4.98565 12.11H7.70544V7.54672C7.70544 7.30252 7.72309 7.05891 7.79499 6.88407C7.99154 6.39622 8.43904 5.89111 9.19035 5.89111C10.1748 5.89111 10.5683 6.64036 10.5683 7.73837V12.1098H13.2877Z" fill="white"/>
</g>
</svg>
