<svg width="468" height="56" viewBox="0 0 468 56" fill="none" xmlns="http://www.w3.org/2000/svg">
<g clip-path="url(#clip0_1270_8156)">
<path d="M45.3333 28C46.5283 28.9958 34.2222 41.1715 34.2222 41.1715C34.2222 41.1715 32.8889 42.4444 32.4445 43.3333C32 44.2221 29.9167 41.1715 29.9167 41.1715C29.9167 41.1715 18.6667 34.6551 18.6667 28C18.6667 20.6362 24.6362 10.6666 32 10.6666C39.3638 10.6666 44 26.8889 45.3333 28Z" fill="white"/>
<path d="M52.8889 47.7777C51.5556 31.3332 67.3333 3.55547 32 10.6666C-5.33334 4.66667 8.8889 41.2578 8.8889 48.6666C8.8889 55.3622 23.5424 45.6603 29.9167 46.6666C29.9167 45.7163 29.9123 44.0556 29.9123 44.0556L29.9126 44.1735L29.8965 42.6215L29.9167 41.1715C29.9167 41.1715 29.9167 35.6194 29.9167 31.9592H26.5312V28.0815H29.9167V25.126C29.9167 21.7639 31.9073 19.9068 34.9529 19.9068C36.4112 19.9068 37.9375 20.1688 37.9375 20.1688V23.4701H36.2562C34.6 23.4701 34.0833 24.5043 34.0833 25.5662V28.0815H37.7812L37.1901 31.9592H34.0833C34.161 35.5037 34.2222 41.1715 34.2222 41.1715H29.9167C29.9167 41.1715 29.3333 58.4444 34.4445 48.4444C39.5556 38.4444 54.2222 64.2222 52.8889 47.7777Z" fill="url(#paint0_linear_1270_8156)"/>
</g>
<path d="M178.265 33.5V21.728H180.353V31.736H185.249V33.5H178.265ZM190.51 33.716C189.778 33.716 189.094 33.536 188.458 33.176C187.822 32.804 187.306 32.276 186.91 31.592C186.514 30.896 186.316 30.062 186.316 29.09C186.316 28.106 186.514 27.272 186.91 26.588C187.306 25.892 187.822 25.364 188.458 25.004C189.094 24.632 189.778 24.446 190.51 24.446C191.254 24.446 191.944 24.632 192.58 25.004C193.216 25.364 193.732 25.892 194.128 26.588C194.524 27.272 194.722 28.106 194.722 29.09C194.722 30.062 194.524 30.896 194.128 31.592C193.732 32.276 193.216 32.804 192.58 33.176C191.944 33.536 191.254 33.716 190.51 33.716ZM190.51 32.024C190.942 32.024 191.314 31.904 191.626 31.664C191.938 31.424 192.178 31.082 192.346 30.638C192.514 30.194 192.598 29.678 192.598 29.09C192.598 28.502 192.514 27.986 192.346 27.542C192.178 27.098 191.938 26.756 191.626 26.516C191.314 26.264 190.942 26.138 190.51 26.138C190.078 26.138 189.706 26.264 189.394 26.516C189.094 26.756 188.86 27.098 188.692 27.542C188.524 27.986 188.44 28.502 188.44 29.09C188.44 29.678 188.524 30.194 188.692 30.638C188.86 31.082 189.094 31.424 189.394 31.664C189.706 31.904 190.078 32.024 190.51 32.024ZM199.849 37.406C199.141 37.406 198.511 37.322 197.959 37.154C197.407 36.986 196.969 36.728 196.645 36.38C196.333 36.044 196.177 35.618 196.177 35.102C196.177 34.73 196.285 34.382 196.501 34.058C196.729 33.746 197.041 33.464 197.437 33.212V33.14C197.221 32.996 197.035 32.804 196.879 32.564C196.723 32.324 196.645 32.024 196.645 31.664C196.645 31.328 196.741 31.016 196.933 30.728C197.137 30.44 197.365 30.206 197.617 30.026V29.954C197.317 29.726 197.047 29.408 196.807 29C196.579 28.592 196.465 28.13 196.465 27.614C196.465 26.942 196.627 26.372 196.951 25.904C197.275 25.424 197.701 25.064 198.229 24.824C198.757 24.572 199.333 24.446 199.957 24.446C200.197 24.446 200.431 24.464 200.659 24.5C200.887 24.536 201.085 24.59 201.253 24.662H204.421V26.192H202.765V26.264C202.933 26.444 203.065 26.654 203.161 26.894C203.257 27.122 203.305 27.392 203.305 27.704C203.305 28.352 203.155 28.898 202.855 29.342C202.555 29.786 202.153 30.122 201.649 30.35C201.145 30.578 200.581 30.692 199.957 30.692C199.765 30.692 199.567 30.674 199.363 30.638C199.159 30.602 198.955 30.542 198.751 30.458C198.631 30.578 198.529 30.698 198.445 30.818C198.361 30.938 198.319 31.1 198.319 31.304C198.319 31.556 198.427 31.754 198.643 31.898C198.859 32.042 199.231 32.114 199.759 32.114H201.325C202.393 32.114 203.197 32.288 203.737 32.636C204.289 32.972 204.565 33.524 204.565 34.292C204.565 34.868 204.373 35.39 203.989 35.858C203.605 36.338 203.059 36.716 202.351 36.992C201.643 37.268 200.809 37.406 199.849 37.406ZM199.957 29.396C200.233 29.396 200.485 29.33 200.713 29.198C200.953 29.054 201.139 28.85 201.271 28.586C201.415 28.31 201.487 27.986 201.487 27.614C201.487 27.05 201.337 26.618 201.037 26.318C200.749 26.018 200.389 25.868 199.957 25.868C199.525 25.868 199.159 26.018 198.859 26.318C198.559 26.618 198.409 27.05 198.409 27.614C198.409 27.986 198.481 28.31 198.625 28.586C198.769 28.85 198.955 29.054 199.183 29.198C199.411 29.33 199.669 29.396 199.957 29.396ZM200.173 36.056C200.641 36.056 201.055 35.99 201.415 35.858C201.775 35.738 202.057 35.564 202.261 35.336C202.465 35.12 202.567 34.886 202.567 34.634C202.567 34.286 202.429 34.052 202.153 33.932C201.889 33.812 201.505 33.752 201.001 33.752H199.795C199.555 33.752 199.339 33.74 199.147 33.716C198.955 33.692 198.769 33.662 198.589 33.626C198.361 33.806 198.187 33.992 198.067 34.184C197.959 34.376 197.905 34.58 197.905 34.796C197.905 35.192 198.109 35.498 198.517 35.714C198.925 35.942 199.477 36.056 200.173 36.056ZM209.726 33.5V24.662H211.796V33.5H209.726ZM210.752 23.114C210.392 23.114 210.092 23.006 209.852 22.79C209.624 22.574 209.51 22.286 209.51 21.926C209.51 21.566 209.624 21.284 209.852 21.08C210.092 20.864 210.392 20.756 210.752 20.756C211.124 20.756 211.424 20.864 211.652 21.08C211.88 21.284 211.994 21.566 211.994 21.926C211.994 22.286 211.88 22.574 211.652 22.79C211.424 23.006 211.124 23.114 210.752 23.114ZM214.437 33.5V24.662H216.147L216.291 25.85H216.363C216.759 25.466 217.191 25.136 217.659 24.86C218.127 24.584 218.661 24.446 219.261 24.446C220.209 24.446 220.899 24.752 221.331 25.364C221.763 25.976 221.979 26.84 221.979 27.956V33.5H219.909V28.226C219.909 27.494 219.801 26.978 219.585 26.678C219.369 26.378 219.015 26.228 218.523 26.228C218.139 26.228 217.797 26.324 217.497 26.516C217.209 26.696 216.879 26.966 216.507 27.326V33.5H214.437ZM229.571 33.5L227.231 24.662H229.355L230.399 29.252C230.495 29.648 230.579 30.056 230.651 30.476C230.723 30.884 230.789 31.352 230.849 31.88H230.921C231.005 31.352 231.083 30.884 231.155 30.476C231.239 30.056 231.323 29.648 231.407 29.252L232.487 24.662H234.647L235.763 29.252C235.859 29.648 235.949 30.056 236.033 30.476C236.117 30.884 236.201 31.352 236.285 31.88H236.357C236.441 31.352 236.513 30.884 236.573 30.476C236.645 30.056 236.723 29.648 236.807 29.252L237.851 24.662H239.831L237.581 33.5H234.935L234.035 29.396C233.951 29 233.867 28.604 233.783 28.208C233.711 27.8 233.639 27.308 233.567 26.732H233.495C233.423 27.308 233.351 27.8 233.279 28.208C233.207 28.604 233.123 29 233.027 29.396L232.127 33.5H229.571ZM241.578 33.5V24.662H243.648V33.5H241.578ZM242.604 23.114C242.244 23.114 241.944 23.006 241.704 22.79C241.476 22.574 241.362 22.286 241.362 21.926C241.362 21.566 241.476 21.284 241.704 21.08C241.944 20.864 242.244 20.756 242.604 20.756C242.976 20.756 243.276 20.864 243.504 21.08C243.732 21.284 243.846 21.566 243.846 21.926C243.846 22.286 243.732 22.574 243.504 22.79C243.276 23.006 242.976 23.114 242.604 23.114ZM249.403 33.68C248.383 33.68 247.657 33.386 247.225 32.798C246.805 32.198 246.595 31.424 246.595 30.476V26.3H245.335V24.752L246.703 24.662L246.955 21.89H248.683V24.662H250.933V26.3H248.683V30.476C248.683 30.992 248.785 31.382 248.989 31.646C249.193 31.898 249.505 32.024 249.925 32.024C250.081 32.024 250.237 32.012 250.393 31.988C250.549 31.964 250.699 31.916 250.843 31.844L251.221 33.302C250.993 33.41 250.723 33.5 250.411 33.572C250.099 33.644 249.763 33.68 249.403 33.68ZM252.793 33.5V20.792H254.863V24.068L254.791 25.778C255.163 25.43 255.577 25.124 256.033 24.86C256.489 24.584 257.017 24.446 257.617 24.446C258.565 24.446 259.255 24.752 259.687 25.364C260.119 25.976 260.335 26.84 260.335 27.956V33.5H258.265V28.226C258.265 27.494 258.157 26.978 257.941 26.678C257.725 26.378 257.371 26.228 256.879 26.228C256.495 26.228 256.153 26.324 255.853 26.516C255.565 26.696 255.235 26.966 254.863 27.326V33.5H252.793ZM266.613 33.5V21.728H273.723V23.492H268.701V26.822H272.985V28.586H268.701V33.5H266.613ZM277.101 33.716C276.585 33.716 276.129 33.608 275.733 33.392C275.337 33.176 275.025 32.876 274.797 32.492C274.581 32.096 274.473 31.64 274.473 31.124C274.473 30.128 274.887 29.378 275.715 28.874C276.555 28.358 277.881 28.004 279.693 27.812C279.681 27.512 279.621 27.236 279.513 26.984C279.417 26.732 279.249 26.534 279.009 26.39C278.781 26.234 278.469 26.156 278.073 26.156C277.641 26.156 277.215 26.234 276.795 26.39C276.387 26.546 275.985 26.744 275.589 26.984L274.833 25.58C275.157 25.376 275.511 25.19 275.895 25.022C276.279 24.842 276.687 24.704 277.119 24.608C277.551 24.5 278.001 24.446 278.469 24.446C279.201 24.446 279.807 24.596 280.287 24.896C280.779 25.184 281.145 25.616 281.385 26.192C281.637 26.756 281.763 27.452 281.763 28.28V33.5H280.053L279.909 32.528H279.837C279.429 32.864 279.003 33.146 278.559 33.374C278.115 33.602 277.629 33.716 277.101 33.716ZM277.749 32.024C278.109 32.024 278.439 31.952 278.739 31.808C279.051 31.652 279.369 31.424 279.693 31.124V29.252C278.889 29.348 278.253 29.474 277.785 29.63C277.317 29.786 276.981 29.978 276.777 30.206C276.585 30.422 276.489 30.68 276.489 30.98C276.489 31.352 276.609 31.622 276.849 31.79C277.089 31.946 277.389 32.024 277.749 32.024ZM287.966 33.716C287.15 33.716 286.418 33.536 285.77 33.176C285.122 32.804 284.606 32.276 284.222 31.592C283.85 30.896 283.664 30.062 283.664 29.09C283.664 28.106 283.868 27.272 284.276 26.588C284.684 25.892 285.224 25.364 285.896 25.004C286.58 24.632 287.312 24.446 288.092 24.446C288.656 24.446 289.148 24.542 289.568 24.734C290 24.914 290.372 25.148 290.684 25.436L289.694 26.732C289.502 26.552 289.28 26.408 289.028 26.3C288.788 26.192 288.512 26.138 288.2 26.138C287.732 26.138 287.318 26.264 286.958 26.516C286.598 26.756 286.31 27.098 286.094 27.542C285.89 27.974 285.788 28.49 285.788 29.09C285.788 29.678 285.89 30.194 286.094 30.638C286.298 31.07 286.574 31.412 286.922 31.664C287.282 31.904 287.696 32.024 288.164 32.024C288.512 32.024 288.836 31.958 289.136 31.826C289.448 31.694 289.724 31.526 289.964 31.322L290.81 32.6C290.438 32.936 290.006 33.206 289.514 33.41C289.034 33.614 288.518 33.716 287.966 33.716ZM295.913 33.716C295.085 33.716 294.335 33.536 293.663 33.176C293.003 32.804 292.481 32.276 292.097 31.592C291.713 30.896 291.521 30.056 291.521 29.072C291.521 28.112 291.719 27.29 292.115 26.606C292.511 25.91 293.021 25.376 293.645 25.004C294.269 24.632 294.929 24.446 295.625 24.446C296.429 24.446 297.101 24.626 297.641 24.986C298.181 25.346 298.583 25.844 298.847 26.48C299.123 27.104 299.261 27.824 299.261 28.64C299.261 28.832 299.249 29.018 299.225 29.198C299.213 29.378 299.189 29.552 299.153 29.72H293.069V28.136H297.425C297.425 27.5 297.281 27.002 296.993 26.642C296.705 26.27 296.261 26.084 295.661 26.084C295.325 26.084 294.995 26.174 294.671 26.354C294.359 26.534 294.095 26.84 293.879 27.272C293.675 27.704 293.573 28.304 293.573 29.072C293.573 29.768 293.693 30.338 293.933 30.782C294.173 31.214 294.491 31.538 294.887 31.754C295.283 31.958 295.709 32.06 296.165 32.06C296.549 32.06 296.909 32.006 297.245 31.898C297.593 31.79 297.917 31.64 298.217 31.448L298.937 32.78C298.529 33.068 298.061 33.296 297.533 33.464C297.017 33.632 296.477 33.716 295.913 33.716ZM305.522 33.716C305.126 33.716 304.718 33.62 304.298 33.428C303.89 33.224 303.494 32.936 303.11 32.564H303.056L302.876 33.5H301.238V20.792H303.308V24.068L303.254 25.544C303.626 25.22 304.028 24.956 304.46 24.752C304.904 24.548 305.354 24.446 305.81 24.446C306.542 24.446 307.166 24.632 307.682 25.004C308.21 25.376 308.612 25.898 308.888 26.57C309.164 27.23 309.302 28.016 309.302 28.928C309.302 29.936 309.122 30.8 308.762 31.52C308.402 32.228 307.934 32.774 307.358 33.158C306.794 33.53 306.182 33.716 305.522 33.716ZM305.09 32.006C305.486 32.006 305.84 31.892 306.152 31.664C306.464 31.436 306.71 31.1 306.89 30.656C307.07 30.2 307.16 29.636 307.16 28.964C307.16 28.376 307.094 27.872 306.962 27.452C306.83 27.032 306.62 26.714 306.332 26.498C306.056 26.27 305.696 26.156 305.252 26.156C304.928 26.156 304.61 26.24 304.298 26.408C303.986 26.564 303.656 26.81 303.308 27.146V31.268C303.62 31.532 303.932 31.724 304.244 31.844C304.556 31.952 304.838 32.006 305.09 32.006ZM314.998 33.716C314.266 33.716 313.582 33.536 312.946 33.176C312.31 32.804 311.794 32.276 311.398 31.592C311.002 30.896 310.804 30.062 310.804 29.09C310.804 28.106 311.002 27.272 311.398 26.588C311.794 25.892 312.31 25.364 312.946 25.004C313.582 24.632 314.266 24.446 314.998 24.446C315.742 24.446 316.432 24.632 317.068 25.004C317.704 25.364 318.22 25.892 318.616 26.588C319.012 27.272 319.21 28.106 319.21 29.09C319.21 30.062 319.012 30.896 318.616 31.592C318.22 32.276 317.704 32.804 317.068 33.176C316.432 33.536 315.742 33.716 314.998 33.716ZM314.998 32.024C315.43 32.024 315.802 31.904 316.114 31.664C316.426 31.424 316.666 31.082 316.834 30.638C317.002 30.194 317.086 29.678 317.086 29.09C317.086 28.502 317.002 27.986 316.834 27.542C316.666 27.098 316.426 26.756 316.114 26.516C315.802 26.264 315.43 26.138 314.998 26.138C314.566 26.138 314.194 26.264 313.882 26.516C313.582 26.756 313.348 27.098 313.18 27.542C313.012 27.986 312.928 28.502 312.928 29.09C312.928 29.678 313.012 30.194 313.18 30.638C313.348 31.082 313.582 31.424 313.882 31.664C314.194 31.904 314.566 32.024 314.998 32.024ZM324.877 33.716C324.145 33.716 323.461 33.536 322.825 33.176C322.189 32.804 321.673 32.276 321.277 31.592C320.881 30.896 320.683 30.062 320.683 29.09C320.683 28.106 320.881 27.272 321.277 26.588C321.673 25.892 322.189 25.364 322.825 25.004C323.461 24.632 324.145 24.446 324.877 24.446C325.621 24.446 326.311 24.632 326.947 25.004C327.583 25.364 328.099 25.892 328.495 26.588C328.891 27.272 329.089 28.106 329.089 29.09C329.089 30.062 328.891 30.896 328.495 31.592C328.099 32.276 327.583 32.804 326.947 33.176C326.311 33.536 325.621 33.716 324.877 33.716ZM324.877 32.024C325.309 32.024 325.681 31.904 325.993 31.664C326.305 31.424 326.545 31.082 326.713 30.638C326.881 30.194 326.965 29.678 326.965 29.09C326.965 28.502 326.881 27.986 326.713 27.542C326.545 27.098 326.305 26.756 325.993 26.516C325.681 26.264 325.309 26.138 324.877 26.138C324.445 26.138 324.073 26.264 323.761 26.516C323.461 26.756 323.227 27.098 323.059 27.542C322.891 27.986 322.807 28.502 322.807 29.09C322.807 29.678 322.891 30.194 323.059 30.638C323.227 31.082 323.461 31.424 323.761 31.664C324.073 31.904 324.445 32.024 324.877 32.024ZM331.138 33.5V20.792H333.19V28.712H333.244L336.484 24.662H338.77L335.764 28.28L339.076 33.5H336.826L334.558 29.666L333.19 31.232V33.5H331.138Z" fill="#2C2C2C"/>
<rect x="0.5" y="0.5" width="467" height="55" rx="3.5" stroke="#E0E0E0"/>
<defs>
<linearGradient id="paint0_linear_1270_8156" x1="32" y1="14.6666" x2="32" y2="41.3333" gradientUnits="userSpaceOnUse">
<stop stop-color="#50AAF7"/>
<stop offset="1" stop-color="#2961D8"/>
</linearGradient>
<clipPath id="clip0_1270_8156">
<rect x="16" y="12" width="32" height="32" rx="4" fill="white"/>
</clipPath>
</defs>
</svg>
