<svg width="969" height="940" viewBox="0 0 969 940" fill="none" xmlns="http://www.w3.org/2000/svg">
<rect width="969" height="940" fill="#0079FF"/>
<circle cx="485" cy="465" r="303" fill="url(#paint0_radial_0_4)" fill-opacity="0.2"/>
<circle cx="485" cy="465" r="303" fill="url(#paint1_linear_0_4)" fill-opacity="0.2"/>
<circle cx="485" cy="464" r="264" fill="url(#paint2_radial_0_4)" fill-opacity="0.2"/>
<circle cx="485" cy="464" r="264" fill="url(#paint3_linear_0_4)" fill-opacity="0.2"/>
<g clip-path="url(#clip0_0_4)">
<path d="M778 431.552H777.01V404.39C777.01 402.326 776.604 400.282 775.816 398.374C775.027 396.467 773.871 394.734 772.414 393.274C770.957 391.815 769.227 390.657 767.324 389.867C765.42 389.077 763.379 388.67 761.319 388.67H703.879C701.818 388.67 699.778 389.077 697.874 389.867C695.97 390.657 694.24 391.815 692.783 393.274C691.326 394.734 690.17 396.467 689.382 398.374C688.593 400.282 688.187 402.326 688.187 404.39V553.401C688.187 555.465 688.593 557.509 689.382 559.417C690.17 561.324 691.326 563.057 692.783 564.517C694.24 565.976 695.97 567.134 697.874 567.924C699.778 568.714 701.818 569.121 703.879 569.121H761.319C763.379 569.121 765.42 568.714 767.324 567.924C769.227 567.134 770.957 565.976 772.414 564.517C773.871 563.057 775.027 561.324 775.816 559.417C776.604 557.509 777.01 555.465 777.01 553.401V450.886H778V431.552Z" fill="#3F3D56"/>
<path d="M773.671 405.314V554.108C773.671 557.222 772.436 560.208 770.238 562.41C768.041 564.612 765.06 565.849 761.951 565.849H704.235C702.696 565.849 701.173 565.545 699.751 564.955C698.33 564.365 697.038 563.5 695.95 562.409C694.862 561.319 694 560.025 693.411 558.6C692.823 557.176 692.52 555.649 692.521 554.108V405.314C692.521 402.201 693.755 399.216 695.952 397.015C698.149 394.814 701.128 393.578 704.235 393.578H711.237C710.894 394.425 710.763 395.343 710.857 396.252C710.951 397.162 711.266 398.034 711.775 398.793C712.284 399.551 712.971 400.173 713.776 400.603C714.581 401.033 715.479 401.259 716.392 401.26H749.299C750.213 401.262 751.113 401.038 751.919 400.608C752.726 400.179 753.414 399.557 753.924 398.797C754.433 398.038 754.748 397.164 754.841 396.254C754.933 395.344 754.8 394.425 754.454 393.578H761.951C765.059 393.578 768.039 394.814 770.237 397.015C772.435 399.216 773.67 402.201 773.671 405.314Z" fill="white"/>
<path d="M762.745 469.756H695.652V487.894H762.745V469.756Z" fill="#A4BCFD"/>
<path d="M765.407 484.693H700.444C700.02 484.693 699.614 484.524 699.315 484.224C699.015 483.924 698.847 483.517 698.846 483.093V467.089C698.847 466.665 699.015 466.258 699.315 465.958C699.614 465.658 700.02 465.489 700.444 465.489H765.407C765.831 465.489 766.237 465.658 766.536 465.958C766.836 466.258 767.004 466.665 767.005 467.089V483.093C767.004 483.517 766.836 483.924 766.536 484.224C766.237 484.524 765.831 484.693 765.407 484.693ZM700.444 466.556C700.303 466.556 700.167 466.612 700.068 466.712C699.968 466.812 699.912 466.948 699.911 467.089V483.093C699.912 483.234 699.968 483.37 700.068 483.47C700.167 483.57 700.303 483.626 700.444 483.626H765.407C765.548 483.626 765.684 483.57 765.784 483.47C765.883 483.37 765.939 483.234 765.94 483.093V467.089C765.939 466.948 765.883 466.812 765.784 466.712C765.684 466.612 765.548 466.556 765.407 466.556H700.444Z" fill="#3F3D56"/>
<path d="M711.626 479.892H703.106V480.959H711.626V479.892Z" fill="#3F3D56"/>
<path d="M723.341 479.892H714.821V480.959H723.341V479.892Z" fill="#3F3D56"/>
<path d="M735.056 479.892H726.536V480.959H735.056V479.892Z" fill="#3F3D56"/>
<path d="M746.77 479.892H738.25V480.959H746.77V479.892Z" fill="#3F3D56"/>
<path d="M758.485 479.892H749.965V480.959H758.485V479.892Z" fill="#3F3D56"/>
<path opacity="0.1" d="M773.671 538.979V554.108C773.671 557.222 772.436 560.208 770.238 562.41C768.041 564.612 765.06 565.849 761.951 565.849H704.235C702.696 565.849 701.173 565.545 699.751 564.955C698.33 564.365 697.038 563.5 695.95 562.409C694.862 561.319 694 560.025 693.411 558.6C692.823 557.176 692.52 555.649 692.521 554.108V484.512L773.671 538.979Z" fill="black"/>
<path d="M497.035 525.237H245.169V649H497.035V525.237Z" fill="white"/>
<path opacity="0.1" d="M433.003 649H246.234C245.952 648.999 245.682 648.886 245.482 648.687C245.283 648.487 245.17 648.216 245.169 647.933V526.303C245.17 526.021 245.283 525.75 245.482 525.55C245.682 525.35 245.952 525.237 246.234 525.237H248.599L433.003 649Z" fill="black"/>
<path d="M752.095 541.774H361.784V542.841H752.095V541.774Z" fill="#3F3D56"/>
<path d="M485.182 282.303H373.632V280H323.051V282.303H211.041C210.05 282.303 209.069 282.499 208.154 282.879C207.238 283.259 206.406 283.816 205.706 284.517C205.005 285.219 204.449 286.053 204.07 286.97C203.691 287.887 203.496 288.87 203.496 289.863V442.89C203.496 444.895 204.291 446.817 205.706 448.235C207.121 449.653 209.04 450.449 211.041 450.449H485.182C487.184 450.449 489.103 449.653 490.518 448.235C491.933 446.817 492.728 444.895 492.728 442.89V289.863C492.728 288.87 492.533 287.887 492.154 286.97C491.774 286.053 491.219 285.219 490.518 284.517C489.817 283.816 488.986 283.259 488.07 282.879C487.155 282.499 486.173 282.303 485.182 282.303Z" fill="#3F3D56"/>
<path d="M482.61 295.661H213.614V447.687H482.61V295.661Z" fill="white"/>
<path d="M347.882 291.517C349.406 291.517 350.641 290.279 350.641 288.753C350.641 287.226 349.406 285.989 347.882 285.989C346.358 285.989 345.123 287.226 345.123 288.753C345.123 290.279 346.358 291.517 347.882 291.517Z" fill="#A4BCFD"/>
<path d="M293.625 352.395H287.236C286.812 352.394 286.406 352.225 286.107 351.925C285.807 351.625 285.639 351.218 285.638 350.794V344.393C285.639 343.968 285.807 343.562 286.107 343.261C286.406 342.961 286.812 342.793 287.236 342.792H293.625C294.049 342.793 294.455 342.961 294.755 343.261C295.054 343.562 295.222 343.968 295.223 344.393V350.794C295.222 351.218 295.054 351.625 294.755 351.925C294.455 352.225 294.049 352.394 293.625 352.395ZM287.236 343.859C287.094 343.859 286.959 343.916 286.859 344.016C286.759 344.116 286.703 344.251 286.703 344.393V350.794C286.703 350.936 286.759 351.071 286.859 351.171C286.959 351.271 287.094 351.327 287.236 351.328H293.625C293.767 351.327 293.902 351.271 294.002 351.171C294.102 351.071 294.158 350.936 294.158 350.794V344.393C294.158 344.251 294.102 344.116 294.002 344.016C293.902 343.916 293.767 343.859 293.625 343.859H287.236Z" fill="#3F3D56"/>
<path d="M407.577 351.328H286.171V352.395H407.577V351.328Z" fill="#3F3D56"/>
<path d="M404.382 380.668H376.161V389.204H404.382V380.668Z" fill="#A4BCFD"/>
<path d="M406.512 387.07H380.42C379.997 387.069 379.591 386.9 379.291 386.6C378.992 386.3 378.824 385.894 378.823 385.469V379.068C378.824 378.643 378.992 378.237 379.291 377.937C379.591 377.637 379.997 377.468 380.42 377.467H406.512C406.936 377.468 407.342 377.637 407.641 377.937C407.941 378.237 408.109 378.643 408.11 379.068V385.469C408.109 385.894 407.941 386.3 407.641 386.6C407.342 386.9 406.936 387.069 406.512 387.07ZM380.42 378.534C380.279 378.534 380.144 378.591 380.044 378.691C379.944 378.791 379.888 378.926 379.888 379.068V385.469C379.888 385.611 379.944 385.746 380.044 385.846C380.144 385.946 380.279 386.003 380.42 386.003H406.512C406.653 386.003 406.789 385.946 406.889 385.846C406.988 385.746 407.045 385.611 407.045 385.469V379.068C407.045 378.926 406.988 378.791 406.889 378.691C406.789 378.591 406.653 378.534 406.512 378.534H380.42Z" fill="#3F3D56"/>
<path d="M620.039 390.27H566.79V427.613H620.039V390.27Z" fill="#EDF2FF"/>
<path d="M625.364 424.679H574.245C573.68 424.678 573.139 424.453 572.74 424.053C572.34 423.653 572.116 423.111 572.115 422.545V387.336C572.116 386.771 572.34 386.228 572.74 385.828C573.139 385.428 573.68 385.203 574.245 385.203H625.364C625.928 385.203 626.47 385.428 626.869 385.828C627.268 386.228 627.493 386.771 627.494 387.336V422.545C627.493 423.111 627.268 423.653 626.869 424.053C626.47 424.453 625.928 424.678 625.364 424.679ZM574.245 387.336V422.545H625.365L625.364 387.336H574.245Z" fill="#3F3D56"/>
<path d="M619.506 386.003H617.376C617.376 381.334 615.525 376.856 612.23 373.555C608.934 370.253 604.465 368.398 599.804 368.398C595.144 368.398 590.674 370.253 587.379 373.555C584.084 376.856 582.232 381.334 582.232 386.003H580.102C580.102 380.768 582.178 375.747 585.873 372.046C589.568 368.344 594.579 366.265 599.804 366.265C605.03 366.265 610.041 368.344 613.736 372.046C617.431 375.747 619.506 380.768 619.506 386.003Z" fill="#3F3D56"/>
<path d="M605.129 400.673C605.13 399.744 604.889 398.831 604.43 398.024C603.971 397.217 603.309 396.544 602.51 396.072C601.712 395.6 600.804 395.345 599.877 395.333C598.95 395.32 598.035 395.55 597.224 396C596.413 396.45 595.733 397.105 595.252 397.899C594.771 398.693 594.505 399.6 594.481 400.528C594.457 401.457 594.676 402.376 595.115 403.194C595.554 404.012 596.199 404.701 596.986 405.193V410.919C596.986 411.289 597.058 411.657 597.2 411.999C597.342 412.342 597.549 412.653 597.811 412.916C598.073 413.178 598.384 413.386 598.726 413.528C599.068 413.67 599.434 413.743 599.805 413.743C600.552 413.743 601.269 413.445 601.798 412.916C602.327 412.386 602.624 411.668 602.624 410.919V405.193C603.39 404.715 604.022 404.049 604.461 403.258C604.899 402.467 605.129 401.578 605.129 400.673Z" fill="#3F3D56"/>
<path d="M351.933 580.183H343.413V581.25H351.933V580.183Z" fill="#3F3D56"/>
<path d="M363.647 580.183H355.127V581.25H363.647V580.183Z" fill="#3F3D56"/>
<path d="M375.362 580.183H366.842V581.25H375.362V580.183Z" fill="#3F3D56"/>
<path d="M387.077 580.183H378.557V581.25H387.077V580.183Z" fill="#3F3D56"/>
<path d="M398.791 580.183H390.271V581.25H398.791V580.183Z" fill="#3F3D56"/>
<path d="M508.217 639.931H258.481C257.917 639.931 257.375 639.706 256.976 639.306C256.577 638.905 256.352 638.363 256.352 637.797V516.168C256.352 515.602 256.577 515.06 256.976 514.66C257.375 514.26 257.917 514.035 258.481 514.034H508.217C508.781 514.034 509.323 514.259 509.722 514.66C510.121 515.06 510.346 515.602 510.347 516.168V637.797C510.346 638.363 510.121 638.906 509.722 639.306C509.323 639.706 508.781 639.931 508.217 639.931ZM258.481 516.168V637.797H508.218L508.217 516.168H258.481Z" fill="#3F3D56"/>
<path d="M269.664 534.305C271.428 534.305 272.859 532.872 272.859 531.105C272.859 529.337 271.428 527.904 269.664 527.904C267.899 527.904 266.469 529.337 266.469 531.105C266.469 532.872 267.899 534.305 269.664 534.305Z" fill="#3F3D56"/>
<path d="M280.846 534.305C282.61 534.305 284.041 532.872 284.041 531.105C284.041 529.337 282.61 527.904 280.846 527.904C279.081 527.904 277.651 529.337 277.651 531.105C277.651 532.872 279.081 534.305 280.846 534.305Z" fill="#3F3D56"/>
<path d="M292.028 534.305C293.792 534.305 295.223 532.872 295.223 531.105C295.223 529.337 293.792 527.904 292.028 527.904C290.263 527.904 288.833 529.337 288.833 531.105C288.833 532.872 290.263 534.305 292.028 534.305Z" fill="#3F3D56"/>
<path d="M407.045 587.652H335.159C334.736 587.651 334.33 587.482 334.03 587.182C333.731 586.882 333.562 586.476 333.562 586.051V567.914C333.562 567.489 333.731 567.082 334.03 566.782C334.33 566.482 334.736 566.314 335.159 566.313H407.045C407.468 566.314 407.874 566.482 408.174 566.782C408.473 567.082 408.642 567.489 408.642 567.914V586.051C408.642 586.476 408.473 586.882 408.174 587.182C407.874 587.482 407.468 587.651 407.045 587.652ZM335.159 567.38C335.018 567.38 334.883 567.437 334.783 567.537C334.683 567.637 334.627 567.772 334.627 567.914V586.051C334.627 586.193 334.683 586.328 334.783 586.428C334.883 586.528 335.018 586.585 335.159 586.585H407.045C407.186 586.585 407.321 586.528 407.421 586.428C407.521 586.328 407.577 586.193 407.577 586.051V567.914C407.577 567.772 407.521 567.637 407.421 567.537C407.321 567.437 407.186 567.38 407.045 567.38H335.159Z" fill="#3F3D56"/>
<path d="M425.149 588.185C430.443 588.185 434.734 583.886 434.734 578.583C434.734 573.28 430.443 568.981 425.149 568.981C419.856 568.981 415.564 573.28 415.564 578.583C415.564 583.886 419.856 588.185 425.149 588.185Z" fill="#A4BCFD"/>
<path d="M428.344 587.118C426.343 587.118 424.387 586.524 422.723 585.41C421.06 584.296 419.763 582.713 418.997 580.861C418.231 579.009 418.031 576.971 418.421 575.005C418.812 573.039 419.775 571.233 421.19 569.815C422.605 568.398 424.408 567.433 426.37 567.041C428.333 566.65 430.367 566.851 432.216 567.618C434.064 568.385 435.645 569.684 436.756 571.351C437.868 573.018 438.461 574.978 438.461 576.982C438.458 579.67 437.391 582.246 435.495 584.146C433.598 586.046 431.026 587.115 428.344 587.118ZM428.344 567.914C426.554 567.914 424.804 568.445 423.315 569.442C421.826 570.438 420.666 571.855 419.981 573.512C419.296 575.169 419.117 576.992 419.466 578.752C419.815 580.511 420.677 582.127 421.943 583.395C423.209 584.663 424.822 585.527 426.578 585.877C428.334 586.227 430.154 586.047 431.808 585.361C433.462 584.675 434.876 583.512 435.871 582.021C436.865 580.529 437.396 578.776 437.396 576.982C437.394 574.578 436.439 572.273 434.742 570.573C433.045 568.873 430.744 567.916 428.344 567.914Z" fill="#3F3D56"/>
<path d="M428.486 580.768L423.331 575.603L424.837 574.094L428.202 577.465L437.591 564.098L439.332 565.327L428.486 580.768Z" fill="#3F3D56"/>
<path opacity="0.1" d="M422.971 447.687H213.614V307.178L422.971 447.687Z" fill="black"/>
<path d="M500.281 444.921H474.028V443.026C474.028 442.977 474.019 442.928 474 442.882C473.981 442.837 473.953 442.795 473.918 442.76C473.884 442.726 473.842 442.698 473.797 442.679C473.751 442.66 473.703 442.65 473.653 442.65H464.652C464.603 442.65 464.554 442.66 464.509 442.679C464.463 442.698 464.422 442.726 464.387 442.76C464.352 442.795 464.325 442.837 464.306 442.882C464.287 442.928 464.277 442.977 464.277 443.026V444.921H458.652V443.026C458.652 442.977 458.642 442.928 458.623 442.882C458.604 442.837 458.577 442.795 458.542 442.76C458.507 442.726 458.466 442.698 458.42 442.679C458.375 442.66 458.326 442.65 458.277 442.65H449.276C449.227 442.65 449.178 442.66 449.132 442.679C449.087 442.698 449.045 442.726 449.011 442.76C448.976 442.795 448.948 442.837 448.929 442.882C448.91 442.928 448.901 442.977 448.901 443.026V444.921H443.275V443.026C443.275 442.977 443.266 442.928 443.247 442.882C443.228 442.837 443.2 442.795 443.165 442.76C443.131 442.726 443.089 442.698 443.044 442.679C442.998 442.66 442.949 442.65 442.9 442.65H433.899C433.85 442.65 433.801 442.66 433.756 442.679C433.71 442.698 433.669 442.726 433.634 442.76C433.599 442.795 433.572 442.837 433.553 442.882C433.534 442.928 433.524 442.977 433.524 443.026V444.921H427.899V443.026C427.899 442.977 427.889 442.928 427.87 442.882C427.851 442.837 427.824 442.795 427.789 442.76C427.754 442.726 427.713 442.698 427.667 442.679C427.622 442.66 427.573 442.65 427.524 442.65H418.523C418.473 442.65 418.425 442.66 418.379 442.679C418.334 442.698 418.292 442.726 418.258 442.76C418.223 442.795 418.195 442.837 418.176 442.882C418.157 442.928 418.148 442.977 418.148 443.026V444.921H412.522V443.026C412.522 442.977 412.512 442.928 412.494 442.882C412.475 442.837 412.447 442.795 412.412 442.76C412.377 442.726 412.336 442.698 412.291 442.679C412.245 442.66 412.196 442.65 412.147 442.65H403.146C403.097 442.65 403.048 442.66 403.003 442.679C402.957 442.698 402.916 442.726 402.881 442.76C402.846 442.795 402.819 442.837 402.8 442.882C402.781 442.928 402.771 442.977 402.771 443.026V444.921H397.146V443.026C397.146 442.977 397.136 442.928 397.117 442.882C397.098 442.837 397.071 442.795 397.036 442.76C397.001 442.726 396.96 442.698 396.914 442.679C396.869 442.66 396.82 442.65 396.771 442.65H387.77C387.72 442.65 387.672 442.66 387.626 442.679C387.581 442.698 387.539 442.726 387.504 442.76C387.47 442.795 387.442 442.837 387.423 442.882C387.404 442.928 387.395 442.977 387.395 443.026V444.921H381.769V443.026C381.769 442.977 381.759 442.928 381.741 442.882C381.722 442.837 381.694 442.795 381.659 442.76C381.624 442.726 381.583 442.698 381.538 442.679C381.492 442.66 381.443 442.65 381.394 442.65H310.887C310.838 442.65 310.789 442.66 310.743 442.679C310.698 442.698 310.657 442.726 310.622 442.76C310.587 442.795 310.559 442.837 310.54 442.882C310.522 442.928 310.512 442.977 310.512 443.026V444.921H304.886V443.026C304.886 442.977 304.877 442.928 304.858 442.882C304.839 442.837 304.811 442.795 304.776 442.76C304.742 442.726 304.7 442.698 304.655 442.679C304.609 442.66 304.561 442.65 304.511 442.65H295.51C295.461 442.65 295.412 442.66 295.367 442.679C295.321 442.698 295.28 442.726 295.245 442.76C295.21 442.795 295.183 442.837 295.164 442.882C295.145 442.928 295.135 442.977 295.135 443.026V444.921H289.51V443.026C289.51 442.977 289.5 442.928 289.481 442.882C289.462 442.837 289.435 442.795 289.4 442.76C289.365 442.726 289.324 442.698 289.278 442.679C289.233 442.66 289.184 442.65 289.135 442.65H280.134C280.085 442.65 280.036 442.66 279.99 442.679C279.945 442.698 279.903 442.726 279.869 442.76C279.834 442.795 279.806 442.837 279.787 442.882C279.769 442.928 279.759 442.977 279.759 443.026V444.921H274.133V443.026C274.133 442.977 274.124 442.928 274.105 442.882C274.086 442.837 274.058 442.795 274.023 442.76C273.989 442.726 273.947 442.698 273.902 442.679C273.856 442.66 273.807 442.65 273.758 442.65H264.757C264.708 442.65 264.659 442.66 264.614 442.679C264.568 442.698 264.527 442.726 264.492 442.76C264.457 442.795 264.43 442.837 264.411 442.882C264.392 442.928 264.382 442.977 264.382 443.026V444.921H258.757V443.026C258.757 442.977 258.747 442.928 258.728 442.882C258.709 442.837 258.682 442.795 258.647 442.76C258.612 442.726 258.571 442.698 258.525 442.679C258.48 442.66 258.431 442.65 258.382 442.65H249.381C249.331 442.65 249.283 442.66 249.237 442.679C249.192 442.698 249.15 442.726 249.116 442.76C249.081 442.795 249.053 442.837 249.034 442.882C249.015 442.928 249.006 442.977 249.006 443.026V444.921H243.38V443.026C243.38 442.977 243.37 442.928 243.352 442.882C243.333 442.837 243.305 442.795 243.27 442.76C243.236 442.726 243.194 442.698 243.149 442.679C243.103 442.66 243.054 442.65 243.005 442.65H234.004C233.955 442.65 233.906 442.66 233.861 442.679C233.815 442.698 233.774 442.726 233.739 442.76C233.704 442.795 233.677 442.837 233.658 442.882C233.639 442.928 233.629 442.977 233.629 443.026V444.921H228.004V443.026C228.004 442.977 227.994 442.928 227.975 442.882C227.956 442.837 227.929 442.795 227.894 442.76C227.859 442.726 227.818 442.698 227.772 442.679C227.727 442.66 227.678 442.65 227.629 442.65H218.628C218.578 442.65 218.53 442.66 218.484 442.679C218.439 442.698 218.397 442.726 218.362 442.76C218.328 442.795 218.3 442.837 218.281 442.882C218.262 442.928 218.253 442.977 218.253 443.026V444.921H201.001C199.819 444.921 198.648 445.154 197.556 445.607C196.464 446.061 195.472 446.725 194.636 447.562C193.8 448.4 193.137 449.394 192.685 450.488C192.233 451.582 192 452.754 192 453.938V458.016C192 460.408 192.948 462.701 194.636 464.392C196.324 466.083 198.614 467.033 201.001 467.033H500.281C501.463 467.033 502.633 466.8 503.725 466.347C504.817 465.894 505.81 465.23 506.646 464.392C507.481 463.555 508.144 462.561 508.597 461.467C509.049 460.373 509.282 459.2 509.282 458.016V453.938C509.282 452.754 509.049 451.582 508.597 450.488C508.144 449.394 507.481 448.4 506.646 447.562C505.81 446.725 504.817 446.061 503.725 445.607C502.633 445.154 501.463 444.921 500.281 444.921Z" fill="#3F3D56"/>
<path d="M418.227 396.139H277.651C277.227 396.138 276.821 395.969 276.522 395.669C276.222 395.369 276.054 394.962 276.053 394.538V335.857C276.054 335.433 276.222 335.026 276.522 334.726C276.821 334.426 277.227 334.257 277.651 334.257H418.227C418.65 334.257 419.057 334.426 419.356 334.726C419.655 335.026 419.824 335.433 419.824 335.857V394.538C419.824 394.962 419.655 395.369 419.356 395.669C419.057 395.969 418.65 396.138 418.227 396.139ZM277.651 335.324C277.51 335.324 277.374 335.38 277.275 335.48C277.175 335.58 277.119 335.716 277.118 335.857V394.538C277.119 394.68 277.175 394.815 277.275 394.915C277.374 395.015 277.51 395.071 277.651 395.072H418.227C418.368 395.071 418.503 395.015 418.603 394.915C418.703 394.815 418.759 394.68 418.759 394.538V335.857C418.759 335.716 418.703 335.58 418.603 335.48C418.503 335.38 418.368 335.324 418.227 335.324H277.651Z" fill="#3F3D56"/>
<path d="M293.625 368.398H287.236C286.812 368.398 286.406 368.229 286.107 367.929C285.807 367.629 285.639 367.222 285.638 366.798V360.397C285.639 359.972 285.807 359.565 286.107 359.265C286.406 358.965 286.812 358.797 287.236 358.796H293.625C294.049 358.797 294.455 358.965 294.755 359.265C295.054 359.565 295.222 359.972 295.223 360.397V366.798C295.222 367.222 295.054 367.629 294.755 367.929C294.455 368.229 294.049 368.398 293.625 368.398ZM287.236 359.863C287.094 359.863 286.959 359.92 286.859 360.02C286.759 360.12 286.703 360.255 286.703 360.397V366.798C286.703 366.94 286.759 367.075 286.859 367.175C286.959 367.275 287.094 367.331 287.236 367.332H293.625C293.767 367.331 293.902 367.275 294.002 367.175C294.102 367.075 294.158 366.94 294.158 366.798V360.397C294.158 360.255 294.102 360.12 294.002 360.02C293.902 359.92 293.767 359.863 293.625 359.863H287.236Z" fill="#3F3D56"/>
<path d="M407.577 367.332H286.171V368.398H407.577V367.332Z" fill="#3F3D56"/>
<path d="M723.341 423.879H333.029V424.946H723.341V423.879Z" fill="#3F3D56"/>
<path d="M333.029 431.347C337.146 431.347 340.484 428.003 340.484 423.879C340.484 419.754 337.146 416.41 333.029 416.41C328.912 416.41 325.575 419.754 325.575 423.879C325.575 428.003 328.912 431.347 333.029 431.347Z" fill="#3F3D56"/>
<path d="M723.341 430.814C726.576 430.814 729.198 428.186 729.198 424.946C729.198 421.705 726.576 419.077 723.341 419.077C720.106 419.077 717.483 421.705 717.483 424.946C717.483 428.186 720.106 430.814 723.341 430.814Z" fill="#3F3D56"/>
<path d="M752.095 548.709C755.33 548.709 757.952 546.082 757.952 542.841C757.952 539.6 755.33 536.973 752.095 536.973C748.86 536.973 746.237 539.6 746.237 542.841C746.237 546.082 748.86 548.709 752.095 548.709Z" fill="#3F3D56"/>
<path d="M363.381 548.709C366.616 548.709 369.238 546.082 369.238 542.841C369.238 539.6 366.616 536.973 363.381 536.973C360.146 536.973 357.524 539.6 357.524 542.841C357.524 546.082 360.146 548.709 363.381 548.709Z" fill="#3F3D56"/>
</g>
<path d="M360.673 837.24C359.593 837.24 358.586 837.067 357.653 836.72C356.733 836.36 355.933 835.853 355.252 835.2C354.573 834.547 354.039 833.78 353.653 832.9C353.279 832.02 353.093 831.053 353.093 830C353.093 828.947 353.279 827.98 353.653 827.1C354.039 826.22 354.573 825.453 355.252 824.8C355.946 824.147 356.753 823.647 357.673 823.3C358.593 822.94 359.599 822.76 360.693 822.76C361.906 822.76 362.999 822.973 363.973 823.4C364.959 823.813 365.786 824.427 366.453 825.24L364.373 827.16C363.893 826.613 363.359 826.207 362.773 825.94C362.186 825.66 361.546 825.52 360.853 825.52C360.199 825.52 359.599 825.627 359.053 825.84C358.506 826.053 358.033 826.36 357.633 826.76C357.233 827.16 356.919 827.633 356.693 828.18C356.479 828.727 356.373 829.333 356.373 830C356.373 830.667 356.479 831.273 356.693 831.82C356.919 832.367 357.233 832.84 357.633 833.24C358.033 833.64 358.506 833.947 359.053 834.16C359.599 834.373 360.199 834.48 360.853 834.48C361.546 834.48 362.186 834.347 362.773 834.08C363.359 833.8 363.893 833.38 364.373 832.82L366.453 834.74C365.786 835.553 364.959 836.173 363.973 836.6C362.999 837.027 361.899 837.24 360.673 837.24ZM373.169 837.16C372.023 837.16 371.003 836.92 370.109 836.44C369.229 835.96 368.529 835.307 368.009 834.48C367.503 833.64 367.249 832.687 367.249 831.62C367.249 830.54 367.503 829.587 368.009 828.76C368.529 827.92 369.229 827.267 370.109 826.8C371.003 826.32 372.023 826.08 373.169 826.08C374.303 826.08 375.316 826.32 376.209 826.8C377.103 827.267 377.803 827.913 378.309 828.74C378.816 829.567 379.069 830.527 379.069 831.62C379.069 832.687 378.816 833.64 378.309 834.48C377.803 835.307 377.103 835.96 376.209 836.44C375.316 836.92 374.303 837.16 373.169 837.16ZM373.169 834.6C373.689 834.6 374.156 834.48 374.569 834.24C374.983 834 375.309 833.66 375.549 833.22C375.789 832.767 375.909 832.233 375.909 831.62C375.909 830.993 375.789 830.46 375.549 830.02C375.309 829.58 374.983 829.24 374.569 829C374.156 828.76 373.689 828.64 373.169 828.64C372.649 828.64 372.183 828.76 371.769 829C371.356 829.24 371.023 829.58 370.769 830.02C370.529 830.46 370.409 830.993 370.409 831.62C370.409 832.233 370.529 832.767 370.769 833.22C371.023 833.66 371.356 834 371.769 834.24C372.183 834.48 372.649 834.6 373.169 834.6ZM387.695 826.08C388.548 826.08 389.308 826.253 389.975 826.6C390.655 826.933 391.188 827.453 391.575 828.16C391.962 828.853 392.155 829.747 392.155 830.84V837H389.035V831.32C389.035 830.453 388.842 829.813 388.455 829.4C388.082 828.987 387.548 828.78 386.855 828.78C386.362 828.78 385.915 828.887 385.515 829.1C385.128 829.3 384.822 829.613 384.595 830.04C384.382 830.467 384.275 831.013 384.275 831.68V837H381.155V826.24H384.135V829.22L383.575 828.32C383.962 827.6 384.515 827.047 385.235 826.66C385.955 826.273 386.775 826.08 387.695 826.08ZM401.523 826.08C402.376 826.08 403.136 826.253 403.803 826.6C404.483 826.933 405.016 827.453 405.403 828.16C405.79 828.853 405.983 829.747 405.983 830.84V837H402.863V831.32C402.863 830.453 402.67 829.813 402.283 829.4C401.91 828.987 401.376 828.78 400.683 828.78C400.19 828.78 399.743 828.887 399.343 829.1C398.956 829.3 398.65 829.613 398.423 830.04C398.21 830.467 398.103 831.013 398.103 831.68V837H394.983V826.24H397.963V829.22L397.403 828.32C397.79 827.6 398.343 827.047 399.063 826.66C399.783 826.273 400.603 826.08 401.523 826.08ZM414.229 837.16C413.003 837.16 411.923 836.92 410.989 836.44C410.069 835.96 409.356 835.307 408.849 834.48C408.343 833.64 408.089 832.687 408.089 831.62C408.089 830.54 408.336 829.587 408.829 828.76C409.336 827.92 410.023 827.267 410.889 826.8C411.756 826.32 412.736 826.08 413.829 826.08C414.883 826.08 415.829 826.307 416.669 826.76C417.523 827.2 418.196 827.84 418.689 828.68C419.183 829.507 419.429 830.5 419.429 831.66C419.429 831.78 419.423 831.92 419.409 832.08C419.396 832.227 419.383 832.367 419.369 832.5H410.629V830.68H417.729L416.529 831.22C416.529 830.66 416.416 830.173 416.189 829.76C415.963 829.347 415.649 829.027 415.249 828.8C414.849 828.56 414.383 828.44 413.849 828.44C413.316 828.44 412.843 828.56 412.429 828.8C412.029 829.027 411.716 829.353 411.489 829.78C411.263 830.193 411.149 830.687 411.149 831.26V831.74C411.149 832.327 411.276 832.847 411.529 833.3C411.796 833.74 412.163 834.08 412.629 834.32C413.109 834.547 413.669 834.66 414.309 834.66C414.883 834.66 415.383 834.573 415.809 834.4C416.249 834.227 416.649 833.967 417.009 833.62L418.669 835.42C418.176 835.98 417.556 836.413 416.809 836.72C416.063 837.013 415.203 837.16 414.229 837.16ZM426.706 837.16C425.546 837.16 424.513 836.927 423.606 836.46C422.7 835.98 421.986 835.32 421.466 834.48C420.96 833.64 420.706 832.687 420.706 831.62C420.706 830.54 420.96 829.587 421.466 828.76C421.986 827.92 422.7 827.267 423.606 826.8C424.513 826.32 425.546 826.08 426.706 826.08C427.84 826.08 428.826 826.32 429.666 826.8C430.506 827.267 431.126 827.94 431.526 828.82L429.106 830.12C428.826 829.613 428.473 829.24 428.046 829C427.633 828.76 427.18 828.64 426.686 828.64C426.153 828.64 425.673 828.76 425.246 829C424.82 829.24 424.48 829.58 424.226 830.02C423.986 830.46 423.866 830.993 423.866 831.62C423.866 832.247 423.986 832.78 424.226 833.22C424.48 833.66 424.82 834 425.246 834.24C425.673 834.48 426.153 834.6 426.686 834.6C427.18 834.6 427.633 834.487 428.046 834.26C428.473 834.02 428.826 833.64 429.106 833.12L431.526 834.44C431.126 835.307 430.506 835.98 429.666 836.46C428.826 836.927 427.84 837.16 426.706 837.16ZM437.879 837.16C436.612 837.16 435.626 836.84 434.919 836.2C434.212 835.547 433.859 834.58 433.859 833.3V823.86H436.979V833.26C436.979 833.713 437.099 834.067 437.339 834.32C437.579 834.56 437.906 834.68 438.319 834.68C438.812 834.68 439.232 834.547 439.579 834.28L440.419 836.48C440.099 836.707 439.712 836.88 439.259 837C438.819 837.107 438.359 837.16 437.879 837.16ZM432.199 828.88V826.48H439.659V828.88H432.199ZM450.295 837L446.415 826.24H449.355L452.575 835.5H451.175L454.535 826.24H457.175L460.435 835.5H459.035L462.355 826.24H465.115L461.215 837H458.195L455.335 829.06H456.255L453.295 837H450.295ZM466.565 837V826.24H469.685V837H466.565ZM468.125 824.74C467.552 824.74 467.085 824.573 466.725 824.24C466.365 823.907 466.185 823.493 466.185 823C466.185 822.507 466.365 822.093 466.725 821.76C467.085 821.427 467.552 821.26 468.125 821.26C468.698 821.26 469.165 821.42 469.525 821.74C469.885 822.047 470.065 822.447 470.065 822.94C470.065 823.46 469.885 823.893 469.525 824.24C469.178 824.573 468.712 824.74 468.125 824.74ZM476.981 837.16C475.714 837.16 474.727 836.84 474.021 836.2C473.314 835.547 472.961 834.58 472.961 833.3V823.86H476.081V833.26C476.081 833.713 476.201 834.067 476.441 834.32C476.681 834.56 477.007 834.68 477.421 834.68C477.914 834.68 478.334 834.547 478.681 834.28L479.521 836.48C479.201 836.707 478.814 836.88 478.361 837C477.921 837.107 477.461 837.16 476.981 837.16ZM471.301 828.88V826.48H478.761V828.88H471.301ZM487.812 826.08C488.665 826.08 489.425 826.253 490.092 826.6C490.772 826.933 491.305 827.453 491.692 828.16C492.079 828.853 492.272 829.747 492.272 830.84V837H489.152V831.32C489.152 830.453 488.959 829.813 488.572 829.4C488.199 828.987 487.665 828.78 486.972 828.78C486.479 828.78 486.032 828.887 485.632 829.1C485.245 829.3 484.939 829.613 484.712 830.04C484.499 830.467 484.392 831.013 484.392 831.68V837H481.272V822.16H484.392V829.22L483.692 828.32C484.079 827.6 484.632 827.047 485.352 826.66C486.072 826.273 486.892 826.08 487.812 826.08ZM507.364 837V834.9L507.164 834.44V830.68C507.164 830.013 506.958 829.493 506.544 829.12C506.144 828.747 505.524 828.56 504.684 828.56C504.111 828.56 503.544 828.653 502.984 828.84C502.438 829.013 501.971 829.253 501.584 829.56L500.464 827.38C501.051 826.967 501.758 826.647 502.584 826.42C503.411 826.193 504.251 826.08 505.104 826.08C506.744 826.08 508.018 826.467 508.924 827.24C509.831 828.013 510.284 829.22 510.284 830.86V837H507.364ZM504.084 837.16C503.244 837.16 502.524 837.02 501.924 836.74C501.324 836.447 500.864 836.053 500.544 835.56C500.224 835.067 500.064 834.513 500.064 833.9C500.064 833.26 500.218 832.7 500.524 832.22C500.844 831.74 501.344 831.367 502.024 831.1C502.704 830.82 503.591 830.68 504.684 830.68H507.544V832.5H505.024C504.291 832.5 503.784 832.62 503.504 832.86C503.238 833.1 503.104 833.4 503.104 833.76C503.104 834.16 503.258 834.48 503.564 834.72C503.884 834.947 504.318 835.06 504.864 835.06C505.384 835.06 505.851 834.94 506.264 834.7C506.678 834.447 506.978 834.08 507.164 833.6L507.644 835.04C507.418 835.733 507.004 836.26 506.404 836.62C505.804 836.98 505.031 837.16 504.084 837.16ZM519.648 826.08C520.501 826.08 521.261 826.253 521.928 826.6C522.608 826.933 523.141 827.453 523.528 828.16C523.915 828.853 524.108 829.747 524.108 830.84V837H520.988V831.32C520.988 830.453 520.795 829.813 520.408 829.4C520.035 828.987 519.501 828.78 518.808 828.78C518.315 828.78 517.868 828.887 517.468 829.1C517.081 829.3 516.775 829.613 516.548 830.04C516.335 830.467 516.228 831.013 516.228 831.68V837H513.108V826.24H516.088V829.22L515.528 828.32C515.915 827.6 516.468 827.047 517.188 826.66C517.908 826.273 518.728 826.08 519.648 826.08ZM528.101 841.04C527.541 841.04 526.987 840.953 526.441 840.78C525.894 840.607 525.447 840.367 525.101 840.06L526.241 837.84C526.481 838.053 526.754 838.22 527.061 838.34C527.381 838.46 527.694 838.52 528.001 838.52C528.441 838.52 528.787 838.413 529.041 838.2C529.307 838 529.547 837.66 529.761 837.18L530.321 835.86L530.561 835.52L534.421 826.24H537.421L532.561 837.66C532.214 838.527 531.814 839.207 531.361 839.7C530.921 840.193 530.427 840.54 529.881 840.74C529.347 840.94 528.754 841.04 528.101 841.04ZM529.941 837.42L525.141 826.24H528.361L532.081 835.24L529.941 837.42ZM548.978 837.16C547.965 837.16 547.051 836.933 546.238 836.48C545.425 836.013 544.778 835.367 544.298 834.54C543.831 833.713 543.598 832.74 543.598 831.62C543.598 830.487 543.831 829.507 544.298 828.68C544.778 827.853 545.425 827.213 546.238 826.76C547.051 826.307 547.965 826.08 548.978 826.08C549.885 826.08 550.678 826.28 551.358 826.68C552.038 827.08 552.565 827.687 552.938 828.5C553.311 829.313 553.498 830.353 553.498 831.62C553.498 832.873 553.318 833.913 552.958 834.74C552.598 835.553 552.078 836.16 551.398 836.56C550.731 836.96 549.925 837.16 548.978 837.16ZM549.518 834.6C550.025 834.6 550.485 834.48 550.898 834.24C551.311 834 551.638 833.66 551.878 833.22C552.131 832.767 552.258 832.233 552.258 831.62C552.258 830.993 552.131 830.46 551.878 830.02C551.638 829.58 551.311 829.24 550.898 829C550.485 828.76 550.025 828.64 549.518 828.64C548.998 828.64 548.531 828.76 548.118 829C547.705 829.24 547.371 829.58 547.118 830.02C546.878 830.46 546.758 830.993 546.758 831.62C546.758 832.233 546.878 832.767 547.118 833.22C547.371 833.66 547.705 834 548.118 834.24C548.531 834.48 548.998 834.6 549.518 834.6ZM552.338 837V834.8L552.398 831.6L552.198 828.42V822.16H555.318V837H552.338ZM563.546 837.16C562.319 837.16 561.239 836.92 560.306 836.44C559.386 835.96 558.672 835.307 558.166 834.48C557.659 833.64 557.406 832.687 557.406 831.62C557.406 830.54 557.652 829.587 558.146 828.76C558.652 827.92 559.339 827.267 560.206 826.8C561.072 826.32 562.052 826.08 563.146 826.08C564.199 826.08 565.146 826.307 565.986 826.76C566.839 827.2 567.512 827.84 568.006 828.68C568.499 829.507 568.746 830.5 568.746 831.66C568.746 831.78 568.739 831.92 568.726 832.08C568.712 832.227 568.699 832.367 568.686 832.5H559.946V830.68H567.046L565.846 831.22C565.846 830.66 565.732 830.173 565.506 829.76C565.279 829.347 564.966 829.027 564.566 828.8C564.166 828.56 563.699 828.44 563.166 828.44C562.632 828.44 562.159 828.56 561.746 828.8C561.346 829.027 561.032 829.353 560.806 829.78C560.579 830.193 560.466 830.687 560.466 831.26V831.74C560.466 832.327 560.592 832.847 560.846 833.3C561.112 833.74 561.479 834.08 561.946 834.32C562.426 834.547 562.986 834.66 563.626 834.66C564.199 834.66 564.699 834.573 565.126 834.4C565.566 834.227 565.966 833.967 566.326 833.62L567.986 835.42C567.492 835.98 566.872 836.413 566.126 836.72C565.379 837.013 564.519 837.16 563.546 837.16ZM573.548 837L569.027 826.24H572.248L576.008 835.5H574.408L578.308 826.24H581.308L576.768 837H573.548ZM582.581 837V826.24H585.701V837H582.581ZM584.141 824.74C583.567 824.74 583.101 824.573 582.741 824.24C582.381 823.907 582.201 823.493 582.201 823C582.201 822.507 582.381 822.093 582.741 821.76C583.101 821.427 583.567 821.26 584.141 821.26C584.714 821.26 585.181 821.42 585.541 821.74C585.901 822.047 586.081 822.447 586.081 822.94C586.081 823.46 585.901 823.893 585.541 824.24C585.194 824.573 584.727 824.74 584.141 824.74ZM593.796 837.16C592.636 837.16 591.603 836.927 590.696 836.46C589.79 835.98 589.076 835.32 588.556 834.48C588.05 833.64 587.796 832.687 587.796 831.62C587.796 830.54 588.05 829.587 588.556 828.76C589.076 827.92 589.79 827.267 590.696 826.8C591.603 826.32 592.636 826.08 593.796 826.08C594.93 826.08 595.916 826.32 596.756 826.8C597.596 827.267 598.216 827.94 598.616 828.82L596.196 830.12C595.916 829.613 595.563 829.24 595.136 829C594.723 828.76 594.27 828.64 593.776 828.64C593.243 828.64 592.763 828.76 592.336 829C591.91 829.24 591.57 829.58 591.316 830.02C591.076 830.46 590.956 830.993 590.956 831.62C590.956 832.247 591.076 832.78 591.316 833.22C591.57 833.66 591.91 834 592.336 834.24C592.763 834.48 593.243 834.6 593.776 834.6C594.27 834.6 594.723 834.487 595.136 834.26C595.563 834.02 595.916 833.64 596.196 833.12L598.616 834.44C598.216 835.307 597.596 835.98 596.756 836.46C595.916 836.927 594.93 837.16 593.796 837.16ZM605.616 837.16C604.389 837.16 603.309 836.92 602.376 836.44C601.456 835.96 600.743 835.307 600.236 834.48C599.729 833.64 599.476 832.687 599.476 831.62C599.476 830.54 599.723 829.587 600.216 828.76C600.723 827.92 601.409 827.267 602.276 826.8C603.143 826.32 604.123 826.08 605.216 826.08C606.269 826.08 607.216 826.307 608.056 826.76C608.909 827.2 609.583 827.84 610.076 828.68C610.569 829.507 610.816 830.5 610.816 831.66C610.816 831.78 610.809 831.92 610.796 832.08C610.783 832.227 610.769 832.367 610.756 832.5H602.016V830.68H609.116L607.916 831.22C607.916 830.66 607.803 830.173 607.576 829.76C607.349 829.347 607.036 829.027 606.636 828.8C606.236 828.56 605.769 828.44 605.236 828.44C604.703 828.44 604.229 828.56 603.816 828.8C603.416 829.027 603.103 829.353 602.876 829.78C602.649 830.193 602.536 830.687 602.536 831.26V831.74C602.536 832.327 602.663 832.847 602.916 833.3C603.183 833.74 603.549 834.08 604.016 834.32C604.496 834.547 605.056 834.66 605.696 834.66C606.269 834.66 606.769 834.573 607.196 834.4C607.636 834.227 608.036 833.967 608.396 833.62L610.056 835.42C609.563 835.98 608.943 836.413 608.196 836.72C607.449 837.013 606.589 837.16 605.616 837.16ZM614.073 837.16C613.54 837.16 613.08 836.98 612.693 836.62C612.32 836.247 612.133 835.773 612.133 835.2C612.133 834.627 612.32 834.167 612.693 833.82C613.08 833.46 613.54 833.28 614.073 833.28C614.62 833.28 615.08 833.46 615.453 833.82C615.826 834.167 616.013 834.627 616.013 835.2C616.013 835.773 615.826 836.247 615.453 836.62C615.08 836.98 614.62 837.16 614.073 837.16Z" fill="#E0EAFF"/>
<path d="M297.738 854.632H303.498V855.992H297.738V854.632ZM297.882 859.608H304.41V861H296.282V849.8H304.186V851.192H297.882V859.608ZM308.86 861L305.148 852.52H306.748L310.044 860.2H309.276L312.636 852.52H314.14L310.428 861H308.86ZM319.115 861.096C318.208 861.096 317.408 860.909 316.715 860.536C316.032 860.163 315.499 859.651 315.115 859C314.741 858.349 314.555 857.603 314.555 856.76C314.555 855.917 314.736 855.171 315.099 854.52C315.472 853.869 315.979 853.363 316.619 853C317.269 852.627 318 852.44 318.811 852.44C319.632 852.44 320.357 852.621 320.987 852.984C321.616 853.347 322.107 853.859 322.459 854.52C322.821 855.171 323.003 855.933 323.003 856.808C323.003 856.872 322.997 856.947 322.987 857.032C322.987 857.117 322.981 857.197 322.971 857.272H315.755V856.168H322.171L321.547 856.552C321.557 856.008 321.445 855.523 321.211 855.096C320.976 854.669 320.651 854.339 320.235 854.104C319.829 853.859 319.355 853.736 318.811 853.736C318.277 853.736 317.803 853.859 317.387 854.104C316.971 854.339 316.645 854.675 316.411 855.112C316.176 855.539 316.059 856.029 316.059 856.584V856.84C316.059 857.405 316.187 857.912 316.443 858.36C316.709 858.797 317.077 859.139 317.547 859.384C318.016 859.629 318.555 859.752 319.163 859.752C319.664 859.752 320.117 859.667 320.523 859.496C320.939 859.325 321.301 859.069 321.611 858.728L322.459 859.72C322.075 860.168 321.595 860.509 321.019 860.744C320.453 860.979 319.819 861.096 319.115 861.096ZM325.136 861V852.52H326.608V854.824L326.464 854.248C326.698 853.661 327.093 853.213 327.648 852.904C328.202 852.595 328.885 852.44 329.696 852.44V853.928C329.632 853.917 329.568 853.912 329.504 853.912C329.45 853.912 329.397 853.912 329.344 853.912C328.522 853.912 327.872 854.157 327.392 854.648C326.912 855.139 326.672 855.848 326.672 856.776V861H325.136ZM332.301 864.2C331.895 864.2 331.501 864.131 331.117 863.992C330.733 863.864 330.402 863.672 330.125 863.416L330.781 862.264C330.994 862.467 331.229 862.621 331.485 862.728C331.741 862.835 332.013 862.888 332.301 862.888C332.674 862.888 332.983 862.792 333.229 862.6C333.474 862.408 333.703 862.067 333.917 861.576L334.445 860.408L334.605 860.216L337.933 852.52H339.437L335.325 861.848C335.079 862.445 334.802 862.915 334.493 863.256C334.194 863.597 333.863 863.837 333.501 863.976C333.138 864.125 332.738 864.2 332.301 864.2ZM334.317 861.272L330.445 852.52H332.045L335.341 860.072L334.317 861.272ZM344.016 861.096C343.163 861.096 342.502 860.867 342.032 860.408C341.563 859.949 341.328 859.293 341.328 858.44V850.664H342.864V858.376C342.864 858.835 342.976 859.187 343.2 859.432C343.435 859.677 343.766 859.8 344.192 859.8C344.672 859.8 345.072 859.667 345.392 859.4L345.872 860.504C345.638 860.707 345.355 860.856 345.024 860.952C344.704 861.048 344.368 861.096 344.016 861.096ZM339.888 853.784V852.52H345.296V853.784H339.888ZM352.257 852.44C352.951 852.44 353.559 852.573 354.081 852.84C354.615 853.107 355.031 853.512 355.329 854.056C355.628 854.6 355.777 855.288 355.777 856.12V861H354.241V856.296C354.241 855.475 354.039 854.856 353.633 854.44C353.239 854.024 352.679 853.816 351.953 853.816C351.409 853.816 350.935 853.923 350.529 854.136C350.124 854.349 349.809 854.664 349.585 855.08C349.372 855.496 349.265 856.013 349.265 856.632V861H347.729V849.128H349.265V854.808L348.961 854.2C349.239 853.645 349.665 853.213 350.241 852.904C350.817 852.595 351.489 852.44 352.257 852.44ZM358.62 861V852.52H360.156V861H358.62ZM359.388 850.888C359.089 850.888 358.839 850.792 358.636 850.6C358.444 850.408 358.348 850.173 358.348 849.896C358.348 849.608 358.444 849.368 358.636 849.176C358.839 848.984 359.089 848.888 359.388 848.888C359.687 848.888 359.932 848.984 360.124 849.176C360.327 849.357 360.428 849.587 360.428 849.864C360.428 850.152 360.332 850.397 360.14 850.6C359.948 850.792 359.697 850.888 359.388 850.888ZM367.617 852.44C368.31 852.44 368.918 852.573 369.441 852.84C369.974 853.107 370.39 853.512 370.689 854.056C370.987 854.6 371.137 855.288 371.137 856.12V861H369.601V856.296C369.601 855.475 369.398 854.856 368.993 854.44C368.598 854.024 368.038 853.816 367.313 853.816C366.769 853.816 366.294 853.923 365.889 854.136C365.483 854.349 365.169 854.664 364.945 855.08C364.731 855.496 364.625 856.013 364.625 856.632V861H363.089V852.52H364.561V854.808L364.321 854.2C364.598 853.645 365.025 853.213 365.601 852.904C366.177 852.595 366.849 852.44 367.617 852.44ZM377.691 864.2C376.913 864.2 376.155 864.088 375.419 863.864C374.694 863.651 374.102 863.341 373.643 862.936L374.379 861.752C374.774 862.093 375.259 862.36 375.835 862.552C376.411 862.755 377.014 862.856 377.643 862.856C378.646 862.856 379.382 862.621 379.851 862.152C380.321 861.683 380.555 860.968 380.555 860.008V858.216L380.715 856.536L380.635 854.84V852.52H382.091V859.848C382.091 861.341 381.718 862.44 380.971 863.144C380.225 863.848 379.131 864.2 377.691 864.2ZM377.499 860.648C376.678 860.648 375.942 860.477 375.291 860.136C374.651 859.784 374.139 859.299 373.755 858.68C373.382 858.061 373.195 857.347 373.195 856.536C373.195 855.715 373.382 855 373.755 854.392C374.139 853.773 374.651 853.293 375.291 852.952C375.942 852.611 376.678 852.44 377.499 852.44C378.225 852.44 378.886 852.589 379.483 852.888C380.081 853.176 380.555 853.624 380.907 854.232C381.27 854.84 381.451 855.608 381.451 856.536C381.451 857.453 381.27 858.216 380.907 858.824C380.555 859.432 380.081 859.891 379.483 860.2C378.886 860.499 378.225 860.648 377.499 860.648ZM377.675 859.304C378.241 859.304 378.742 859.187 379.179 858.952C379.617 858.717 379.958 858.392 380.203 857.976C380.459 857.56 380.587 857.08 380.587 856.536C380.587 855.992 380.459 855.512 380.203 855.096C379.958 854.68 379.617 854.36 379.179 854.136C378.742 853.901 378.241 853.784 377.675 853.784C377.11 853.784 376.603 853.901 376.155 854.136C375.718 854.36 375.371 854.68 375.115 855.096C374.87 855.512 374.747 855.992 374.747 856.536C374.747 857.08 374.87 857.56 375.115 857.976C375.371 858.392 375.718 858.717 376.155 858.952C376.603 859.187 377.11 859.304 377.675 859.304ZM389.691 864.2C389.286 864.2 388.891 864.131 388.507 863.992C388.123 863.864 387.793 863.672 387.515 863.416L388.171 862.264C388.385 862.467 388.619 862.621 388.875 862.728C389.131 862.835 389.403 862.888 389.691 862.888C390.065 862.888 390.374 862.792 390.619 862.6C390.865 862.408 391.094 862.067 391.307 861.576L391.835 860.408L391.995 860.216L395.323 852.52H396.827L392.715 861.848C392.47 862.445 392.193 862.915 391.883 863.256C391.585 863.597 391.254 863.837 390.891 863.976C390.529 864.125 390.129 864.2 389.691 864.2ZM391.707 861.272L387.835 852.52H389.435L392.731 860.072L391.707 861.272ZM401.658 861.096C400.805 861.096 400.048 860.909 399.386 860.536C398.725 860.163 398.202 859.651 397.818 859C397.434 858.339 397.242 857.592 397.242 856.76C397.242 855.917 397.434 855.171 397.818 854.52C398.202 853.869 398.725 853.363 399.386 853C400.048 852.627 400.805 852.44 401.658 852.44C402.501 852.44 403.253 852.627 403.914 853C404.586 853.363 405.109 853.869 405.482 854.52C405.866 855.16 406.058 855.907 406.058 856.76C406.058 857.603 405.866 858.349 405.482 859C405.109 859.651 404.586 860.163 403.914 860.536C403.253 860.909 402.501 861.096 401.658 861.096ZM401.658 859.752C402.202 859.752 402.688 859.629 403.114 859.384C403.552 859.139 403.893 858.792 404.138 858.344C404.384 857.885 404.506 857.357 404.506 856.76C404.506 856.152 404.384 855.629 404.138 855.192C403.893 854.744 403.552 854.397 403.114 854.152C402.688 853.907 402.202 853.784 401.658 853.784C401.114 853.784 400.629 853.907 400.202 854.152C399.776 854.397 399.434 854.744 399.178 855.192C398.922 855.629 398.794 856.152 398.794 856.76C398.794 857.357 398.922 857.885 399.178 858.344C399.434 858.792 399.776 859.139 400.202 859.384C400.629 859.629 401.114 859.752 401.658 859.752ZM411.751 861.096C411.025 861.096 410.385 860.963 409.831 860.696C409.287 860.429 408.86 860.024 408.551 859.48C408.252 858.925 408.103 858.232 408.103 857.4V852.52H409.639V857.224C409.639 858.056 409.836 858.68 410.231 859.096C410.636 859.512 411.201 859.72 411.927 859.72C412.46 859.72 412.924 859.613 413.319 859.4C413.713 859.176 414.017 858.856 414.231 858.44C414.444 858.013 414.551 857.501 414.551 856.904V852.52H416.087V861H414.631V858.712L414.871 859.32C414.593 859.885 414.177 860.323 413.623 860.632C413.068 860.941 412.444 861.096 411.751 861.096ZM427.836 852.44C428.529 852.44 429.137 852.573 429.66 852.84C430.193 853.107 430.609 853.512 430.908 854.056C431.206 854.6 431.356 855.288 431.356 856.12V861H429.82V856.296C429.82 855.475 429.617 854.856 429.212 854.44C428.817 854.024 428.257 853.816 427.532 853.816C426.988 853.816 426.513 853.923 426.108 854.136C425.702 854.349 425.388 854.664 425.164 855.08C424.95 855.496 424.844 856.013 424.844 856.632V861H423.308V852.52H424.78V854.808L424.54 854.2C424.817 853.645 425.244 853.213 425.82 852.904C426.396 852.595 427.068 852.44 427.836 852.44ZM437.974 861.096C437.068 861.096 436.268 860.909 435.574 860.536C434.892 860.163 434.358 859.651 433.974 859C433.601 858.349 433.414 857.603 433.414 856.76C433.414 855.917 433.596 855.171 433.958 854.52C434.332 853.869 434.838 853.363 435.478 853C436.129 852.627 436.86 852.44 437.67 852.44C438.492 852.44 439.217 852.621 439.846 852.984C440.476 853.347 440.966 853.859 441.318 854.52C441.681 855.171 441.862 855.933 441.862 856.808C441.862 856.872 441.857 856.947 441.846 857.032C441.846 857.117 441.841 857.197 441.83 857.272H434.614V856.168H441.03L440.406 856.552C440.417 856.008 440.305 855.523 440.07 855.096C439.836 854.669 439.51 854.339 439.094 854.104C438.689 853.859 438.214 853.736 437.67 853.736C437.137 853.736 436.662 853.859 436.246 854.104C435.83 854.339 435.505 854.675 435.27 855.112C435.036 855.539 434.918 856.029 434.918 856.584V856.84C434.918 857.405 435.046 857.912 435.302 858.36C435.569 858.797 435.937 859.139 436.406 859.384C436.876 859.629 437.414 859.752 438.022 859.752C438.524 859.752 438.977 859.667 439.382 859.496C439.798 859.325 440.161 859.069 440.47 858.728L441.318 859.72C440.934 860.168 440.454 860.509 439.878 860.744C439.313 860.979 438.678 861.096 437.974 861.096ZM447.771 861.096C446.864 861.096 446.064 860.909 445.371 860.536C444.688 860.163 444.155 859.651 443.771 859C443.398 858.349 443.211 857.603 443.211 856.76C443.211 855.917 443.392 855.171 443.755 854.52C444.128 853.869 444.635 853.363 445.275 853C445.926 852.627 446.656 852.44 447.467 852.44C448.288 852.44 449.014 852.621 449.643 852.984C450.272 853.347 450.763 853.859 451.115 854.52C451.478 855.171 451.659 855.933 451.659 856.808C451.659 856.872 451.654 856.947 451.643 857.032C451.643 857.117 451.638 857.197 451.627 857.272H444.411V856.168H450.827L450.203 856.552C450.214 856.008 450.102 855.523 449.867 855.096C449.632 854.669 449.307 854.339 448.891 854.104C448.486 853.859 448.011 853.736 447.467 853.736C446.934 853.736 446.459 853.859 446.043 854.104C445.627 854.339 445.302 854.675 445.067 855.112C444.832 855.539 444.715 856.029 444.715 856.584V856.84C444.715 857.405 444.843 857.912 445.099 858.36C445.366 858.797 445.734 859.139 446.203 859.384C446.672 859.629 447.211 859.752 447.819 859.752C448.32 859.752 448.774 859.667 449.179 859.496C449.595 859.325 449.958 859.069 450.267 858.728L451.115 859.72C450.731 860.168 450.251 860.509 449.675 860.744C449.11 860.979 448.475 861.096 447.771 861.096ZM457.296 861.096C456.475 861.096 455.739 860.915 455.088 860.552C454.448 860.189 453.941 859.683 453.568 859.032C453.195 858.381 453.008 857.624 453.008 856.76C453.008 855.896 453.195 855.144 453.568 854.504C453.941 853.853 454.448 853.347 455.088 852.984C455.739 852.621 456.475 852.44 457.296 852.44C458.011 852.44 458.656 852.6 459.232 852.92C459.808 853.24 460.267 853.72 460.608 854.36C460.96 855 461.136 855.8 461.136 856.76C461.136 857.72 460.965 858.52 460.624 859.16C460.293 859.8 459.84 860.285 459.264 860.616C458.688 860.936 458.032 861.096 457.296 861.096ZM457.424 859.752C457.957 859.752 458.437 859.629 458.864 859.384C459.301 859.139 459.643 858.792 459.888 858.344C460.144 857.885 460.272 857.357 460.272 856.76C460.272 856.152 460.144 855.629 459.888 855.192C459.643 854.744 459.301 854.397 458.864 854.152C458.437 853.907 457.957 853.784 457.424 853.784C456.88 853.784 456.395 853.907 455.968 854.152C455.541 854.397 455.2 854.744 454.944 855.192C454.688 855.629 454.56 856.152 454.56 856.76C454.56 857.357 454.688 857.885 454.944 858.344C455.2 858.792 455.541 859.139 455.968 859.384C456.395 859.629 456.88 859.752 457.424 859.752ZM460.32 861V858.712L460.416 856.744L460.256 854.776V849.128H461.792V861H460.32ZM468.995 861V852.52H470.531V861H468.995ZM469.763 850.888C469.464 850.888 469.214 850.792 469.011 850.6C468.819 850.408 468.723 850.173 468.723 849.896C468.723 849.608 468.819 849.368 469.011 849.176C469.214 848.984 469.464 848.888 469.763 848.888C470.062 848.888 470.307 848.984 470.499 849.176C470.702 849.357 470.803 849.587 470.803 849.864C470.803 850.152 470.707 850.397 470.515 850.6C470.323 850.792 470.072 850.888 469.763 850.888ZM475.896 861.096C475.192 861.096 474.52 861 473.88 860.808C473.25 860.616 472.754 860.381 472.392 860.104L473.032 858.888C473.394 859.133 473.842 859.341 474.376 859.512C474.909 859.683 475.453 859.768 476.008 859.768C476.722 859.768 477.234 859.667 477.544 859.464C477.864 859.261 478.024 858.979 478.024 858.616C478.024 858.349 477.928 858.141 477.736 857.992C477.544 857.843 477.288 857.731 476.968 857.656C476.658 857.581 476.312 857.517 475.928 857.464C475.544 857.4 475.16 857.325 474.776 857.24C474.392 857.144 474.04 857.016 473.72 856.856C473.4 856.685 473.144 856.456 472.952 856.168C472.76 855.869 472.664 855.475 472.664 854.984C472.664 854.472 472.808 854.024 473.096 853.64C473.384 853.256 473.789 852.963 474.312 852.76C474.845 852.547 475.474 852.44 476.2 852.44C476.754 852.44 477.314 852.509 477.88 852.648C478.456 852.776 478.925 852.963 479.288 853.208L478.632 854.424C478.248 854.168 477.848 853.992 477.432 853.896C477.016 853.8 476.6 853.752 476.184 853.752C475.512 853.752 475.01 853.864 474.68 854.088C474.349 854.301 474.184 854.579 474.184 854.92C474.184 855.208 474.28 855.432 474.472 855.592C474.674 855.741 474.93 855.859 475.24 855.944C475.56 856.029 475.912 856.104 476.296 856.168C476.68 856.221 477.064 856.296 477.448 856.392C477.832 856.477 478.178 856.6 478.488 856.76C478.808 856.92 479.064 857.144 479.256 857.432C479.458 857.72 479.56 858.104 479.56 858.584C479.56 859.096 479.41 859.539 479.112 859.912C478.813 860.285 478.392 860.579 477.848 860.792C477.304 860.995 476.653 861.096 475.896 861.096ZM491.04 861V859.208L490.96 858.872V855.816C490.96 855.165 490.768 854.664 490.384 854.312C490.011 853.949 489.446 853.768 488.688 853.768C488.187 853.768 487.696 853.853 487.216 854.024C486.736 854.184 486.331 854.403 486 854.68L485.36 853.528C485.798 853.176 486.32 852.909 486.928 852.728C487.547 852.536 488.192 852.44 488.864 852.44C490.027 852.44 490.923 852.723 491.552 853.288C492.182 853.853 492.496 854.717 492.496 855.88V861H491.04ZM488.256 861.096C487.627 861.096 487.072 860.989 486.592 860.776C486.123 860.563 485.76 860.269 485.504 859.896C485.248 859.512 485.12 859.08 485.12 858.6C485.12 858.141 485.227 857.725 485.44 857.352C485.664 856.979 486.022 856.68 486.512 856.456C487.014 856.232 487.686 856.12 488.528 856.12H491.216V857.224H488.592C487.824 857.224 487.307 857.352 487.04 857.608C486.774 857.864 486.64 858.173 486.64 858.536C486.64 858.952 486.806 859.288 487.136 859.544C487.467 859.789 487.926 859.912 488.512 859.912C489.088 859.912 489.59 859.784 490.016 859.528C490.454 859.272 490.768 858.899 490.96 858.408L491.264 859.464C491.062 859.965 490.704 860.365 490.192 860.664C489.68 860.952 489.035 861.096 488.256 861.096ZM499.867 852.44C500.56 852.44 501.168 852.573 501.691 852.84C502.224 853.107 502.64 853.512 502.939 854.056C503.237 854.6 503.387 855.288 503.387 856.12V861H501.851V856.296C501.851 855.475 501.648 854.856 501.243 854.44C500.848 854.024 500.288 853.816 499.563 853.816C499.019 853.816 498.544 853.923 498.139 854.136C497.733 854.349 497.419 854.664 497.195 855.08C496.981 855.496 496.875 856.013 496.875 856.632V861H495.339V852.52H496.811V854.808L496.571 854.2C496.848 853.645 497.275 853.213 497.851 852.904C498.427 852.595 499.099 852.44 499.867 852.44ZM510.526 861V852.52H512.062V861H510.526ZM511.294 850.888C510.996 850.888 510.745 850.792 510.542 850.6C510.35 850.408 510.254 850.173 510.254 849.896C510.254 849.608 510.35 849.368 510.542 849.176C510.745 848.984 510.996 848.888 511.294 848.888C511.593 848.888 511.838 848.984 512.03 849.176C512.233 849.357 512.334 849.587 512.334 849.864C512.334 850.152 512.238 850.397 512.046 850.6C511.854 850.792 511.604 850.888 511.294 850.888ZM519.523 852.44C520.216 852.44 520.824 852.573 521.347 852.84C521.88 853.107 522.296 853.512 522.595 854.056C522.894 854.6 523.043 855.288 523.043 856.12V861H521.507V856.296C521.507 855.475 521.304 854.856 520.899 854.44C520.504 854.024 519.944 853.816 519.219 853.816C518.675 853.816 518.2 853.923 517.795 854.136C517.39 854.349 517.075 854.664 516.851 855.08C516.638 855.496 516.531 856.013 516.531 856.632V861H514.995V852.52H516.467V854.808L516.227 854.2C516.504 853.645 516.931 853.213 517.507 852.904C518.083 852.595 518.755 852.44 519.523 852.44ZM528.798 861.096C527.944 861.096 527.283 860.867 526.814 860.408C526.344 859.949 526.11 859.293 526.11 858.44V850.664H527.646V858.376C527.646 858.835 527.758 859.187 527.982 859.432C528.216 859.677 528.547 859.8 528.974 859.8C529.454 859.8 529.854 859.667 530.174 859.4L530.654 860.504C530.419 860.707 530.136 860.856 529.806 860.952C529.486 861.048 529.15 861.096 528.798 861.096ZM524.67 853.784V852.52H530.078V853.784H524.67ZM536.005 861.096C535.099 861.096 534.299 860.909 533.605 860.536C532.923 860.163 532.389 859.651 532.005 859C531.632 858.349 531.445 857.603 531.445 856.76C531.445 855.917 531.627 855.171 531.989 854.52C532.363 853.869 532.869 853.363 533.509 853C534.16 852.627 534.891 852.44 535.701 852.44C536.523 852.44 537.248 852.621 537.877 852.984C538.507 853.347 538.997 853.859 539.349 854.52C539.712 855.171 539.893 855.933 539.893 856.808C539.893 856.872 539.888 856.947 539.877 857.032C539.877 857.117 539.872 857.197 539.861 857.272H532.645V856.168H539.061L538.437 856.552C538.448 856.008 538.336 855.523 538.101 855.096C537.867 854.669 537.541 854.339 537.125 854.104C536.72 853.859 536.245 853.736 535.701 853.736C535.168 853.736 534.693 853.859 534.277 854.104C533.861 854.339 533.536 854.675 533.301 855.112C533.067 855.539 532.949 856.029 532.949 856.584V856.84C532.949 857.405 533.077 857.912 533.333 858.36C533.6 858.797 533.968 859.139 534.437 859.384C534.907 859.629 535.445 859.752 536.053 859.752C536.555 859.752 537.008 859.667 537.413 859.496C537.829 859.325 538.192 859.069 538.501 858.728L539.349 859.72C538.965 860.168 538.485 860.509 537.909 860.744C537.344 860.979 536.709 861.096 536.005 861.096ZM542.026 861V852.52H543.498V854.824L543.354 854.248C543.589 853.661 543.984 853.213 544.538 852.904C545.093 852.595 545.776 852.44 546.586 852.44V853.928C546.522 853.917 546.458 853.912 546.394 853.912C546.341 853.912 546.288 853.912 546.234 853.912C545.413 853.912 544.762 854.157 544.282 854.648C543.802 855.139 543.562 855.848 543.562 856.776V861H542.026ZM553.007 852.44C553.701 852.44 554.309 852.573 554.831 852.84C555.365 853.107 555.781 853.512 556.079 854.056C556.378 854.6 556.527 855.288 556.527 856.12V861H554.991V856.296C554.991 855.475 554.789 854.856 554.383 854.44C553.989 854.024 553.429 853.816 552.703 853.816C552.159 853.816 551.685 853.923 551.279 854.136C550.874 854.349 550.559 854.664 550.335 855.08C550.122 855.496 550.015 856.013 550.015 856.632V861H548.479V852.52H549.951V854.808L549.711 854.2C549.989 853.645 550.415 853.213 550.991 852.904C551.567 852.595 552.239 852.44 553.007 852.44ZM563.146 861.096C562.239 861.096 561.439 860.909 560.746 860.536C560.063 860.163 559.53 859.651 559.146 859C558.773 858.349 558.586 857.603 558.586 856.76C558.586 855.917 558.767 855.171 559.13 854.52C559.503 853.869 560.01 853.363 560.65 853C561.301 852.627 562.031 852.44 562.842 852.44C563.663 852.44 564.389 852.621 565.018 852.984C565.647 853.347 566.138 853.859 566.49 854.52C566.853 855.171 567.034 855.933 567.034 856.808C567.034 856.872 567.029 856.947 567.018 857.032C567.018 857.117 567.013 857.197 567.002 857.272H559.786V856.168H566.202L565.578 856.552C565.589 856.008 565.477 855.523 565.242 855.096C565.007 854.669 564.682 854.339 564.266 854.104C563.861 853.859 563.386 853.736 562.842 853.736C562.309 853.736 561.834 853.859 561.418 854.104C561.002 854.339 560.677 854.675 560.442 855.112C560.207 855.539 560.09 856.029 560.09 856.584V856.84C560.09 857.405 560.218 857.912 560.474 858.36C560.741 858.797 561.109 859.139 561.578 859.384C562.047 859.629 562.586 859.752 563.194 859.752C563.695 859.752 564.149 859.667 564.554 859.496C564.97 859.325 565.333 859.069 565.642 858.728L566.49 859.72C566.106 860.168 565.626 860.509 565.05 860.744C564.485 860.979 563.85 861.096 563.146 861.096ZM572.079 861.096C571.226 861.096 570.564 860.867 570.095 860.408C569.626 859.949 569.391 859.293 569.391 858.44V850.664H570.927V858.376C570.927 858.835 571.039 859.187 571.263 859.432C571.498 859.677 571.828 859.8 572.255 859.8C572.735 859.8 573.135 859.667 573.455 859.4L573.935 860.504C573.7 860.707 573.418 860.856 573.087 860.952C572.767 861.048 572.431 861.096 572.079 861.096ZM567.951 853.784V852.52H573.359V853.784H567.951ZM583.785 861.096C582.921 861.096 582.147 860.909 581.465 860.536C580.793 860.163 580.265 859.651 579.881 859C579.497 858.349 579.305 857.603 579.305 856.76C579.305 855.917 579.497 855.171 579.881 854.52C580.265 853.869 580.793 853.363 581.465 853C582.147 852.627 582.921 852.44 583.785 852.44C584.553 852.44 585.235 852.595 585.833 852.904C586.441 853.203 586.91 853.651 587.241 854.248L586.073 855C585.795 854.584 585.454 854.28 585.049 854.088C584.654 853.885 584.227 853.784 583.769 853.784C583.214 853.784 582.718 853.907 582.281 854.152C581.843 854.397 581.497 854.744 581.241 855.192C580.985 855.629 580.857 856.152 580.857 856.76C580.857 857.368 580.985 857.896 581.241 858.344C581.497 858.792 581.843 859.139 582.281 859.384C582.718 859.629 583.214 859.752 583.769 859.752C584.227 859.752 584.654 859.656 585.049 859.464C585.454 859.261 585.795 858.952 586.073 858.536L587.241 859.272C586.91 859.859 586.441 860.312 585.833 860.632C585.235 860.941 584.553 861.096 583.785 861.096ZM592.736 861.096C591.883 861.096 591.126 860.909 590.464 860.536C589.803 860.163 589.28 859.651 588.896 859C588.512 858.339 588.32 857.592 588.32 856.76C588.32 855.917 588.512 855.171 588.896 854.52C589.28 853.869 589.803 853.363 590.464 853C591.126 852.627 591.883 852.44 592.736 852.44C593.579 852.44 594.331 852.627 594.992 853C595.664 853.363 596.187 853.869 596.56 854.52C596.944 855.16 597.136 855.907 597.136 856.76C597.136 857.603 596.944 858.349 596.56 859C596.187 859.651 595.664 860.163 594.992 860.536C594.331 860.909 593.579 861.096 592.736 861.096ZM592.736 859.752C593.28 859.752 593.766 859.629 594.192 859.384C594.63 859.139 594.971 858.792 595.216 858.344C595.462 857.885 595.584 857.357 595.584 856.76C595.584 856.152 595.462 855.629 595.216 855.192C594.971 854.744 594.63 854.397 594.192 854.152C593.766 853.907 593.28 853.784 592.736 853.784C592.192 853.784 591.707 853.907 591.28 854.152C590.854 854.397 590.512 854.744 590.256 855.192C590 855.629 589.872 856.152 589.872 856.76C589.872 857.357 590 857.885 590.256 858.344C590.512 858.792 590.854 859.139 591.28 859.384C591.707 859.629 592.192 859.752 592.736 859.752ZM603.789 852.44C604.482 852.44 605.09 852.573 605.613 852.84C606.146 853.107 606.562 853.512 606.861 854.056C607.159 854.6 607.309 855.288 607.309 856.12V861H605.773V856.296C605.773 855.475 605.57 854.856 605.165 854.44C604.77 854.024 604.21 853.816 603.485 853.816C602.941 853.816 602.466 853.923 602.061 854.136C601.655 854.349 601.341 854.664 601.117 855.08C600.903 855.496 600.797 856.013 600.797 856.632V861H599.261V852.52H600.733V854.808L600.493 854.2C600.77 853.645 601.197 853.213 601.773 852.904C602.349 852.595 603.021 852.44 603.789 852.44ZM614.679 852.44C615.373 852.44 615.981 852.573 616.503 852.84C617.037 853.107 617.453 853.512 617.751 854.056C618.05 854.6 618.199 855.288 618.199 856.12V861H616.663V856.296C616.663 855.475 616.461 854.856 616.055 854.44C615.661 854.024 615.101 853.816 614.375 853.816C613.831 853.816 613.357 853.923 612.951 854.136C612.546 854.349 612.231 854.664 612.007 855.08C611.794 855.496 611.687 856.013 611.687 856.632V861H610.151V852.52H611.623V854.808L611.383 854.2C611.661 853.645 612.087 853.213 612.663 852.904C613.239 852.595 613.911 852.44 614.679 852.44ZM624.818 861.096C623.911 861.096 623.111 860.909 622.418 860.536C621.735 860.163 621.202 859.651 620.818 859C620.445 858.349 620.258 857.603 620.258 856.76C620.258 855.917 620.439 855.171 620.802 854.52C621.175 853.869 621.682 853.363 622.322 853C622.973 852.627 623.703 852.44 624.514 852.44C625.335 852.44 626.061 852.621 626.69 852.984C627.319 853.347 627.81 853.859 628.162 854.52C628.525 855.171 628.706 855.933 628.706 856.808C628.706 856.872 628.701 856.947 628.69 857.032C628.69 857.117 628.685 857.197 628.674 857.272H621.458V856.168H627.874L627.25 856.552C627.261 856.008 627.149 855.523 626.914 855.096C626.679 854.669 626.354 854.339 625.938 854.104C625.533 853.859 625.058 853.736 624.514 853.736C623.981 853.736 623.506 853.859 623.09 854.104C622.674 854.339 622.349 854.675 622.114 855.112C621.879 855.539 621.762 856.029 621.762 856.584V856.84C621.762 857.405 621.89 857.912 622.146 858.36C622.413 858.797 622.781 859.139 623.25 859.384C623.719 859.629 624.258 859.752 624.866 859.752C625.367 859.752 625.821 859.667 626.226 859.496C626.642 859.325 627.005 859.069 627.314 858.728L628.162 859.72C627.778 860.168 627.298 860.509 626.722 860.744C626.157 860.979 625.522 861.096 624.818 861.096ZM634.535 861.096C633.671 861.096 632.897 860.909 632.215 860.536C631.543 860.163 631.015 859.651 630.631 859C630.247 858.349 630.055 857.603 630.055 856.76C630.055 855.917 630.247 855.171 630.631 854.52C631.015 853.869 631.543 853.363 632.215 853C632.897 852.627 633.671 852.44 634.535 852.44C635.303 852.44 635.985 852.595 636.583 852.904C637.191 853.203 637.66 853.651 637.991 854.248L636.823 855C636.545 854.584 636.204 854.28 635.799 854.088C635.404 853.885 634.977 853.784 634.519 853.784C633.964 853.784 633.468 853.907 633.031 854.152C632.593 854.397 632.247 854.744 631.991 855.192C631.735 855.629 631.607 856.152 631.607 856.76C631.607 857.368 631.735 857.896 631.991 858.344C632.247 858.792 632.593 859.139 633.031 859.384C633.468 859.629 633.964 859.752 634.519 859.752C634.977 859.752 635.404 859.656 635.799 859.464C636.204 859.261 636.545 858.952 636.823 858.536L637.991 859.272C637.66 859.859 637.191 860.312 636.583 860.632C635.985 860.941 635.303 861.096 634.535 861.096ZM643.001 861.096C642.147 861.096 641.486 860.867 641.017 860.408C640.547 859.949 640.313 859.293 640.313 858.44V850.664H641.849V858.376C641.849 858.835 641.961 859.187 642.185 859.432C642.419 859.677 642.75 859.8 643.177 859.8C643.657 859.8 644.057 859.667 644.377 859.4L644.857 860.504C644.622 860.707 644.339 860.856 644.009 860.952C643.689 861.048 643.353 861.096 643.001 861.096ZM638.873 853.784V852.52H644.281V853.784H638.873ZM646.714 861V852.52H648.25V861H646.714ZM647.482 850.888C647.183 850.888 646.932 850.792 646.73 850.6C646.538 850.408 646.442 850.173 646.442 849.896C646.442 849.608 646.538 849.368 646.73 849.176C646.932 848.984 647.183 848.888 647.482 848.888C647.78 848.888 648.026 848.984 648.218 849.176C648.42 849.357 648.522 849.587 648.522 849.864C648.522 850.152 648.426 850.397 648.234 850.6C648.042 850.792 647.791 850.888 647.482 850.888ZM654.815 861.096C653.961 861.096 653.204 860.909 652.543 860.536C651.881 860.163 651.359 859.651 650.975 859C650.591 858.339 650.399 857.592 650.399 856.76C650.399 855.917 650.591 855.171 650.975 854.52C651.359 853.869 651.881 853.363 652.543 853C653.204 852.627 653.961 852.44 654.815 852.44C655.657 852.44 656.409 852.627 657.071 853C657.743 853.363 658.265 853.869 658.639 854.52C659.023 855.16 659.215 855.907 659.215 856.76C659.215 857.603 659.023 858.349 658.639 859C658.265 859.651 657.743 860.163 657.071 860.536C656.409 860.909 655.657 861.096 654.815 861.096ZM654.815 859.752C655.359 859.752 655.844 859.629 656.271 859.384C656.708 859.139 657.049 858.792 657.295 858.344C657.54 857.885 657.663 857.357 657.663 856.76C657.663 856.152 657.54 855.629 657.295 855.192C657.049 854.744 656.708 854.397 656.271 854.152C655.844 853.907 655.359 853.784 654.815 853.784C654.271 853.784 653.785 853.907 653.359 854.152C652.932 854.397 652.591 854.744 652.335 855.192C652.079 855.629 651.951 856.152 651.951 856.76C651.951 857.357 652.079 857.885 652.335 858.344C652.591 858.792 652.932 859.139 653.359 859.384C653.785 859.629 654.271 859.752 654.815 859.752ZM665.867 852.44C666.56 852.44 667.168 852.573 667.691 852.84C668.224 853.107 668.64 853.512 668.939 854.056C669.237 854.6 669.387 855.288 669.387 856.12V861H667.851V856.296C667.851 855.475 667.648 854.856 667.243 854.44C666.848 854.024 666.288 853.816 665.563 853.816C665.019 853.816 664.544 853.923 664.139 854.136C663.733 854.349 663.419 854.664 663.195 855.08C662.981 855.496 662.875 856.013 662.875 856.632V861H661.339V852.52H662.811V854.808L662.571 854.2C662.848 853.645 663.275 853.213 663.851 852.904C664.427 852.595 665.099 852.44 665.867 852.44ZM672.597 861.096C672.299 861.096 672.043 860.995 671.829 860.792C671.616 860.579 671.509 860.312 671.509 859.992C671.509 859.672 671.616 859.411 671.829 859.208C672.043 859.005 672.299 858.904 672.597 858.904C672.885 858.904 673.131 859.005 673.333 859.208C673.547 859.411 673.653 859.672 673.653 859.992C673.653 860.312 673.547 860.579 673.333 860.792C673.131 860.995 672.885 861.096 672.597 861.096Z" fill="#E0EAFF" fill-opacity="0.75"/>
<defs>
<radialGradient id="paint0_radial_0_4" cx="0" cy="0" r="1" gradientUnits="userSpaceOnUse" gradientTransform="translate(485 465) rotate(90) scale(303)">
<stop stop-color="#444CE7" stop-opacity="0.81"/>
<stop offset="1" stop-color="#444CE7" stop-opacity="0.29"/>
</radialGradient>
<linearGradient id="paint1_linear_0_4" x1="357.047" y1="162" x2="542.757" y2="759.559" gradientUnits="userSpaceOnUse">
<stop stop-color="#444CE7" stop-opacity="0.81"/>
<stop offset="1" stop-opacity="0"/>
</linearGradient>
<radialGradient id="paint2_radial_0_4" cx="0" cy="0" r="1" gradientUnits="userSpaceOnUse" gradientTransform="translate(485 464) rotate(90) scale(264)">
<stop stop-color="#444CE7" stop-opacity="0.81"/>
<stop offset="1" stop-color="#444CE7" stop-opacity="0.29"/>
</radialGradient>
<linearGradient id="paint3_linear_0_4" x1="485" y1="200" x2="538.333" y2="698.667" gradientUnits="userSpaceOnUse">
<stop stop-color="#A4BCFD"/>
<stop offset="1" stop-color="#444CE7" stop-opacity="0.81"/>
</linearGradient>
<clipPath id="clip0_0_4">
<rect width="586" height="369" fill="white" transform="translate(192 280)"/>
</clipPath>
</defs>
</svg>
