<svg version="1.2" xmlns="http://www.w3.org/2000/svg" viewBox="0 0 207 54" width="207" height="54">
	<title>Logo-02-ai</title>
	<defs>
		<linearGradient id="g1" x2="1" gradientUnits="userSpaceOnUse" gradientTransform="matrix(12.736,0,0,16.2,142.47,1.209)">
			<stop offset="0" stop-color="#0079ff"/>
			<stop offset="1" stop-color="#00d4ff"/>
		</linearGradient>
		<linearGradient id="g2" x2="1" gradientUnits="userSpaceOnUse" gradientTransform="matrix(6.729,0,0,11.039,145.313,4.915)">
			<stop offset="0" stop-color="#0079ff"/>
			<stop offset="1" stop-color="#00d4ff"/>
		</linearGradient>
		<linearGradient id="g3" x2="1" gradientUnits="userSpaceOnUse" gradientTransform="matrix(5.167,0,0,7.353,142.47,10.056)">
			<stop offset="0" stop-color="#0079ff"/>
			<stop offset="1" stop-color="#00d4ff"/>
		</linearGradient>
		<linearGradient id="g4" x2="1" gradientUnits="userSpaceOnUse" gradientTransform="matrix(5.827,0,0,1.455,146.315,15.954)">
			<stop offset="0" stop-color="#0079ff"/>
			<stop offset="1" stop-color="#00d4ff"/>
		</linearGradient>
		<linearGradient id="g5" x2="1" gradientUnits="userSpaceOnUse" gradientTransform="matrix(3.164,0,0,9.305,152.042,8.103)">
			<stop offset="0" stop-color="#0079ff"/>
			<stop offset="1" stop-color="#00d4ff"/>
		</linearGradient>
		<linearGradient id="g6" x2="1" gradientUnits="userSpaceOnUse" gradientTransform="matrix(3.164,0,0,4.902,152.042,5.453)">
			<stop offset="0" stop-color="#0079ff"/>
			<stop offset="1" stop-color="#00d4ff"/>
		</linearGradient>
		<linearGradient id="g7" x2="1" gradientUnits="userSpaceOnUse" gradientTransform="matrix(5.167,0,0,4.902,142.47,1.209)">
			<stop offset="0" stop-color="#0079ff"/>
			<stop offset="1" stop-color="#00d4ff"/>
		</linearGradient>
		<linearGradient id="g8" x2="1" gradientUnits="userSpaceOnUse" gradientTransform="matrix(2.844,0,0,7.114,142.47,6.111)">
			<stop offset="0" stop-color="#0079ff"/>
			<stop offset="1" stop-color="#00d4ff"/>
		</linearGradient>
		<linearGradient id="g9" x2="1" gradientUnits="userSpaceOnUse" gradientTransform="matrix(17.764,0,0,23.764,18.075,25.511)">
			<stop offset="0" stop-color="#0079ff"/>
			<stop offset="1" stop-color="#00d4ff"/>
		</linearGradient>
		<linearGradient id="g10" x2="1" gradientUnits="userSpaceOnUse" gradientTransform="matrix(13.77,0,0,11.882,1.692,37.393)">
			<stop offset="0" stop-color="#0079ff"/>
			<stop offset="1" stop-color="#00d4ff"/>
		</linearGradient>
		<linearGradient id="g11" x2="1" gradientUnits="userSpaceOnUse" gradientTransform="matrix(31.926,0,0,40.343,75.747,9.363)">
			<stop offset="0" stop-color="#0079ff"/>
			<stop offset="1" stop-color="#00d4ff"/>
		</linearGradient>
		<linearGradient id="g12" x2="1" gradientUnits="userSpaceOnUse" gradientTransform="matrix(28.565,0,0,37.862,44.854,11.412)">
			<stop offset="0" stop-color="#0079ff"/>
			<stop offset="1" stop-color="#00d4ff"/>
		</linearGradient>
		<linearGradient id="g13" x2="1" gradientUnits="userSpaceOnUse" gradientTransform="matrix(22.531,0,0,37.862,35.151,11.412)">
			<stop offset="0" stop-color="#0079ff"/>
			<stop offset="1" stop-color="#00d4ff"/>
		</linearGradient>
	</defs>
	<style>
		.s0 { fill: #ffffff } 
		.s1 { fill: url(#g1) } 
		.s2 { fill: url(#g2) } 
		.s3 { fill: url(#g3) } 
		.s4 { fill: url(#g4) } 
		.s5 { fill: url(#g5) } 
		.s6 { fill: url(#g6) } 
		.s7 { fill: url(#g7) } 
		.s8 { fill: url(#g8) } 
		.s9 { fill: url(#g9) } 
		.s10 { fill: url(#g10) } 
		.s11 { fill: url(#g11) } 
		.s12 { fill: url(#g12) } 
		.s13 { fill: url(#g13) } 
	</style>
	<g id="Layer 1">
		<g id="&lt;Group&gt;">
		</g>
		<g id="&lt;Group&gt;">
			<g id="&lt;Group&gt;">
				<path id="&lt;Compound Path&gt;" class="s0" d="m138.6 15.5l-18.3 29.5h18.4v4.2h-24.3v-3.9l18.3-29.4h-18.1v-4.3h24z"/>
				<g id="&lt;Group&gt;">
					<path id="&lt;Path&gt;" class="s0" d="m142 49.2l6.8-3.9 6.8 3.9-6.8-30z"/>
				</g>
				<path id="&lt;Compound Path&gt;" class="s0" d="m163.7 49.2h-5v-29.5h5v4.8c1.7-3.3 4.9-5.4 9.6-5.4v5.1h-1.3c-4.7 0-8.3 2.1-8.3 8.9z"/>
				<path id="&lt;Compound Path&gt;" class="s0" d="m191.6 19.2c7.4 0 12.2 3.8 13.7 10h-5.3c-1-3.6-4-5.9-8.4-5.9-5.4 0-9.4 3.9-9.4 11.1 0 7.3 4 11.2 9.4 11.2 4.4 0 7.3-2.2 8.4-5.9h5.3c-1.5 5.9-6.3 10-13.7 10-8.5 0-14.5-5.9-14.5-15.3 0-9.3 6-15.2 14.5-15.2z"/>
				<g id="&lt;Group&gt;">
					<path id="&lt;Path&gt;" class="s1" d="m147.2 1.2l-4.7 4.9v7.1l3.8 4.2h5.8l3.1-7-1.1-4.9z"/>
					<path id="&lt;Path&gt;" class="s2" d="m147.6 4.9l4.4 3.2-4.4 7.9-2.3-5.9z"/>
					<path id="&lt;Path&gt;" class="s3" d="m145.3 10.1l-2.8 3.1 3.8 4.2 1.3-1.4z"/>
					<path id="&lt;Path&gt;" class="s4" d="m147.6 16l4.5 1.4h-5.8z"/>
					<path id="&lt;Path&gt;" class="s5" d="m152 8.1l0.1 9.3 3.1-7z"/>
					<path id="&lt;Path&gt;" class="s6" d="m152 8.1l2.1-2.6 1.1 4.9z"/>
					<path id="&lt;Path&gt;" class="s7" d="m147.6 4.9l-0.4-3.7-4.7 4.9z"/>
					<path id="&lt;Path&gt;" class="s8" d="m142.5 6.1l2.8 4-2.8 3.1z"/>
				</g>
			</g>
			<g id="&lt;Group&gt;">
				<path id="&lt;Path&gt;" class="s9" d="m35.8 25.5l-5.7 17.1-2.3 6.7h-9.7l8.6-23.8z"/>
				<path id="&lt;Path&gt;" class="s10" d="m6 37.4h9.5l-1.8 5.2-2.3 6.7h-9.7z"/>
				<path id="&lt;Compound Path&gt;" fill-rule="evenodd" class="s11" d="m89.1 18.7c4 0 7.5 1.9 9.3 4.6v-13.9h9.3v39.9h-9.3v-4.3c-1.7 2.7-4.9 4.7-9.3 4.7-7.4 0-13.4-6-13.4-15.5 0-9.5 6-15.5 13.4-15.5zm2.7 8.1c-3.5 0-6.6 2.6-6.6 7.4 0 4.8 3.1 7.5 6.6 7.5 3.5 0 6.6-2.7 6.6-7.5 0-4.8-3.1-7.4-6.6-7.4z"/>
				<path id="&lt;Compound Path&gt;" fill-rule="evenodd" class="s12" d="m73.4 49.3h-9.8l-2.3-6.7h-14.2l-2.2 6.7 10.7-31.8 2.1-6.1h2zm-14.5-13.8l-4.7-13.9-4.7 13.9z"/>
				<path id="&lt;Path&gt;" class="s13" d="m57.7 11.4h-8.8l-13.7 37.9h9.7l10.7-31.8z"/>
			</g>
		</g>
	</g>
</svg>