<svg version="1.2" xmlns="http://www.w3.org/2000/svg" viewBox="0 0 207 55" width="207" height="55">
	<title>Logo-01-ai</title>
	<defs>
		<linearGradient id="g1" x2="1" gradientUnits="userSpaceOnUse" gradientTransform="matrix(12.595,0,0,16.042,141.845,1.77)">
			<stop offset="0" stop-color="#0079ff"/>
			<stop offset="1" stop-color="#00d4ff"/>
		</linearGradient>
		<linearGradient id="g2" x2="1" gradientUnits="userSpaceOnUse" gradientTransform="matrix(6.654,0,0,10.931,144.657,5.44)">
			<stop offset="0" stop-color="#0079ff"/>
			<stop offset="1" stop-color="#00d4ff"/>
		</linearGradient>
		<linearGradient id="g3" x2="1" gradientUnits="userSpaceOnUse" gradientTransform="matrix(5.109,0,0,7.281,141.845,10.531)">
			<stop offset="0" stop-color="#0079ff"/>
			<stop offset="1" stop-color="#00d4ff"/>
		</linearGradient>
		<linearGradient id="g4" x2="1" gradientUnits="userSpaceOnUse" gradientTransform="matrix(5.763,0,0,1.44,145.647,16.371)">
			<stop offset="0" stop-color="#0079ff"/>
			<stop offset="1" stop-color="#00d4ff"/>
		</linearGradient>
		<linearGradient id="g5" x2="1" gradientUnits="userSpaceOnUse" gradientTransform="matrix(3.129,0,0,9.214,151.311,8.597)">
			<stop offset="0" stop-color="#0079ff"/>
			<stop offset="1" stop-color="#00d4ff"/>
		</linearGradient>
		<linearGradient id="g6" x2="1" gradientUnits="userSpaceOnUse" gradientTransform="matrix(3.129,0,0,4.854,151.311,5.973)">
			<stop offset="0" stop-color="#0079ff"/>
			<stop offset="1" stop-color="#00d4ff"/>
		</linearGradient>
		<linearGradient id="g7" x2="1" gradientUnits="userSpaceOnUse" gradientTransform="matrix(5.109,0,0,4.854,141.845,1.77)">
			<stop offset="0" stop-color="#0079ff"/>
			<stop offset="1" stop-color="#00d4ff"/>
		</linearGradient>
		<linearGradient id="g8" x2="1" gradientUnits="userSpaceOnUse" gradientTransform="matrix(2.812,0,0,7.044,141.845,6.624)">
			<stop offset="0" stop-color="#0079ff"/>
			<stop offset="1" stop-color="#00d4ff"/>
		</linearGradient>
		<linearGradient id="g9" x2="1" gradientUnits="userSpaceOnUse" gradientTransform="matrix(17.567,0,0,23.532,18.832,25.835)">
			<stop offset="0" stop-color="#0079ff"/>
			<stop offset="1" stop-color="#00d4ff"/>
		</linearGradient>
		<linearGradient id="g10" x2="1" gradientUnits="userSpaceOnUse" gradientTransform="matrix(13.617,0,0,11.766,2.631,37.6)">
			<stop offset="0" stop-color="#0079ff"/>
			<stop offset="1" stop-color="#00d4ff"/>
		</linearGradient>
		<linearGradient id="g11" x2="1" gradientUnits="userSpaceOnUse" gradientTransform="matrix(31.571,0,0,39.948,75.864,9.844)">
			<stop offset="0" stop-color="#0079ff"/>
			<stop offset="1" stop-color="#00d4ff"/>
		</linearGradient>
		<linearGradient id="g12" x2="1" gradientUnits="userSpaceOnUse" gradientTransform="matrix(28.247,0,0,37.492,45.313,11.874)">
			<stop offset="0" stop-color="#0079ff"/>
			<stop offset="1" stop-color="#00d4ff"/>
		</linearGradient>
		<linearGradient id="g13" x2="1" gradientUnits="userSpaceOnUse" gradientTransform="matrix(22.281,0,0,37.492,35.719,11.874)">
			<stop offset="0" stop-color="#0079ff"/>
			<stop offset="1" stop-color="#00d4ff"/>
		</linearGradient>
	</defs>
	<style>
		.s0 { fill: #414141 } 
		.s1 { fill: url(#g1) } 
		.s2 { fill: url(#g2) } 
		.s3 { fill: url(#g3) } 
		.s4 { fill: url(#g4) } 
		.s5 { fill: url(#g5) } 
		.s6 { fill: url(#g6) } 
		.s7 { fill: url(#g7) } 
		.s8 { fill: url(#g8) } 
		.s9 { fill: url(#g9) } 
		.s10 { fill: url(#g10) } 
		.s11 { fill: url(#g11) } 
		.s12 { fill: url(#g12) } 
		.s13 { fill: url(#g13) } 
	</style>
	<g id="Layer 1">
		<g id="&lt;Group&gt;">
			<g id="&lt;Group&gt;">
				<path id="&lt;Compound Path&gt;" class="s0" d="m138 15.9l-18.1 29.2h18.2v4.2h-24v-3.8l18.1-29.2h-17.9v-4.2h23.7z"/>
				<g id="&lt;Group&gt;">
					<path id="&lt;Path&gt;" class="s0" d="m141.4 49.3l6.7-3.9 6.8 3.9-6.8-29.7z"/>
				</g>
				<path id="&lt;Compound Path&gt;" class="s0" d="m162.8 49.3h-4.9v-29.3h4.9v4.8c1.7-3.3 4.8-5.3 9.5-5.3v5h-1.3c-4.6 0-8.2 2.1-8.2 8.9z"/>
				<path id="&lt;Compound Path&gt;" class="s0" d="m190.4 19.6c7.3 0 12.1 3.7 13.6 9.8h-5.3c-1-3.5-3.9-5.7-8.3-5.7-5.3 0-9.3 3.8-9.3 10.9 0 7.3 4 11.1 9.3 11.1 4.4 0 7.3-2.1 8.3-5.8h5.3c-1.5 5.8-6.3 9.9-13.6 9.9-8.3 0-14.3-5.9-14.3-15.2 0-9.2 6-15 14.3-15z"/>
				<g id="&lt;Group&gt;">
					<path id="&lt;Path&gt;" class="s1" d="m146.5 1.8l-4.7 4.8v7.1l3.8 4.1h5.8l3-7-1-4.8z"/>
					<path id="&lt;Path&gt;" class="s2" d="m147 5.4l4.3 3.2-4.3 7.8-2.3-5.9z"/>
					<path id="&lt;Path&gt;" class="s3" d="m144.7 10.5l-2.9 3.2 3.8 4.1 1.4-1.4z"/>
					<path id="&lt;Path&gt;" class="s4" d="m147 16.4l4.4 1.4h-5.8z"/>
					<path id="&lt;Path&gt;" class="s5" d="m151.3 8.6l0.1 9.2 3-7z"/>
					<path id="&lt;Path&gt;" class="s6" d="m151.3 8.6l2.1-2.6 1 4.8z"/>
					<path id="&lt;Path&gt;" class="s7" d="m147 5.4l-0.5-3.6-4.7 4.8z"/>
					<path id="&lt;Path&gt;" class="s8" d="m141.8 6.6l2.9 3.9-2.9 3.2z"/>
				</g>
			</g>
			<g id="&lt;Group&gt;">
				<path id="&lt;Path&gt;" class="s9" d="m36.4 25.8l-5.7 16.9-2.3 6.7h-9.6l8.6-23.6z"/>
				<path id="&lt;Path&gt;" class="s10" d="m6.9 37.6h9.3l-1.7 5.1-2.3 6.7h-9.6z"/>
				<path id="&lt;Compound Path&gt;" fill-rule="evenodd" class="s11" d="m89 19.1c4 0 7.4 1.9 9.3 4.6v-13.9h9.1v39.6h-9.1v-4.3c-1.7 2.7-4.9 4.7-9.3 4.7-7.3 0-13.1-6-13.1-15.4 0-9.4 5.8-15.3 13.1-15.3zm2.7 8c-3.4 0-6.5 2.6-6.5 7.3 0 4.8 3.1 7.4 6.5 7.4 3.5 0 6.6-2.6 6.6-7.3 0-4.8-3.1-7.4-6.6-7.4z"/>
				<path id="&lt;Compound Path&gt;" fill-rule="evenodd" class="s12" d="m73.6 49.4h-9.7l-2.3-6.7h-14l-2.3 6.7 10.7-31.5 2-6h1.9zm-14.3-13.7l-4.6-13.7-4.6 13.7z"/>
				<path id="&lt;Path&gt;" class="s13" d="m58 11.9h-8.7l-13.6 37.5h9.6l10.7-31.5z"/>
			</g>
		</g>
	</g>
</svg>