<svg width="41" height="41" viewBox="0 0 41 41" fill="none" xmlns="http://www.w3.org/2000/svg">
<path d="M34.0617 19.0061L34.0617 28.9561C34.0617 35.6227 32.395 37.2894 25.7284 37.2894L15.7284 37.2894C9.06169 37.2894 7.39502 35.6227 7.39502 28.9561L7.39502 12.2894C7.39502 5.62272 9.06169 3.95605 15.7284 3.95605L25.7284 3.95605C32.395 3.95605 34.0617 5.62272 34.0617 12.2894" stroke="#292D32" stroke-width="1.5" stroke-linecap="round" stroke-linejoin="round"/>
<path d="M24.0617 9.78906L17.395 9.78906" stroke="#292D32" stroke-width="1.5" stroke-linecap="round" stroke-linejoin="round"/>
<path d="M20.7284 32.4557C22.1551 32.4557 23.3117 31.2991 23.3117 29.8724C23.3117 28.4457 22.1551 27.2891 20.7284 27.2891C19.3016 27.2891 18.145 28.4457 18.145 29.8724C18.145 31.2991 19.3016 32.4557 20.7284 32.4557Z" stroke="#292D32" stroke-width="1.5" stroke-linecap="round" stroke-linejoin="round"/>
</svg>
