<svg width="73" height="73" viewBox="0 0 73 73" fill="none" xmlns="http://www.w3.org/2000/svg">
<rect x="0.5" y="0.5" width="72" height="72" rx="36" fill="#FAFAFA"/>
<path d="M20.1679 29.7264C19.8774 26.4194 22.4434 23.5 25.7631 23.5H47.2369C50.5566 23.5 53.1226 26.4194 52.8321 29.7264C52.6344 31.9773 52.4697 34.4636 52.4697 36.5C52.4697 38.5364 52.6344 41.0227 52.8321 43.2736C53.1226 46.5806 50.5566 49.5 47.2369 49.5H25.7631C22.4434 49.5 19.8774 46.5806 20.1679 43.2736C20.3656 41.0227 20.5303 38.5364 20.5303 36.5C20.5303 34.4636 20.3656 31.9773 20.1679 29.7264Z" fill="#FFB130"/>
<path d="M53.1663 33.1666V31.5C53.1663 24.8333 51.4997 23.1666 44.833 23.1666H28.1663C21.4997 23.1666 19.833 24.8333 19.833 31.5V32.3333C22.133 32.3333 23.9997 34.2 23.9997 36.5C23.9997 38.8 22.133 40.6666 19.833 40.6666V41.5C19.833 48.1666 21.4997 49.8333 28.1663 49.8333H44.833C51.4997 49.8333 53.1663 48.1666 53.1663 41.5C50.8663 41.5 48.9997 39.6333 48.9997 37.3333" stroke="#292D32" stroke-width="1.5" stroke-linecap="round" stroke-linejoin="round"/>
<path d="M30.8838 42.6333L42.1005 31.4166" stroke="#292D32" stroke-width="1.5" stroke-linecap="round" stroke-linejoin="round"/>
<path d="M41.4912 41.0833H41.5061" stroke="#292D32" stroke-width="2" stroke-linecap="round" stroke-linejoin="round"/>
<path d="M31.4912 31.9167H31.5061" stroke="#292D32" stroke-width="2" stroke-linecap="round" stroke-linejoin="round"/>
</svg>
