<svg width="73" height="73" viewBox="0 0 73 73" fill="none" xmlns="http://www.w3.org/2000/svg">
<rect x="0.5" y="0.5" width="72" height="72" rx="36" fill="#FAFAFA"/>
<path d="M19.8952 36.4954C19.6785 27.1737 27.1758 19.5 36.5 19.5C36.5 19.5 39.3185 20.5847 41.5 20.5C43.2989 20.4301 46.5 19.5 46.5 19.5H53.5V26.2029C53.5 26.2029 52.4667 29.3503 52.5 31.5C52.5316 33.5384 53.5 36.5 53.5 36.5L51.759 42.0712C51.2558 43.6814 50.5304 45.2174 49.4226 46.4897C47.0225 49.246 42.1331 53.8521 36.5 53.5C35.0638 52.8554 34.5219 52.4025 33 52C31.4898 51.6006 30.6803 52.0505 29 51.5C26.4761 50.6731 23 47 23 47L21.7017 44.4034C20.5811 42.1622 19.9698 39.701 19.9115 37.196L19.8952 36.4954Z" fill="#FFB130"/>
<path d="M32.333 39.4167C32.333 41.0333 33.583 42.3333 35.1164 42.3333H38.2497C39.583 42.3333 40.6663 41.2 40.6663 39.7834C40.6663 38.2667 39.9997 37.7167 39.0164 37.3667L33.9997 35.6167C33.0163 35.2667 32.3497 34.7334 32.3497 33.2C32.3497 31.8 33.433 30.65 34.7663 30.65H37.8997C39.433 30.65 40.683 31.95 40.683 33.5667" stroke="#292D32" stroke-width="1.5" stroke-linecap="round" stroke-linejoin="round"/>
<path d="M36.5 29V44" stroke="#292D32" stroke-width="1.5" stroke-linecap="round" stroke-linejoin="round"/>
<path d="M36.4997 19.8334C27.2997 19.8334 19.833 27.3 19.833 36.5C19.833 43.0667 23.633 48.75 29.1664 51.4667" stroke="#292D32" stroke-width="1.5" stroke-linecap="round" stroke-linejoin="round"/>
<path d="M53.1667 36.5C53.1667 45.7 45.7 53.1667 36.5 53.1667" stroke="#292D32" stroke-width="1.5" stroke-linecap="round" stroke-linejoin="round"/>
<path d="M53.1667 26.5V19.8334H46.5" stroke="#292D32" stroke-width="1.5" stroke-linecap="round" stroke-linejoin="round"/>
<path d="M44.833 28.1667L53.1663 19.8334" stroke="#292D32" stroke-width="1.5" stroke-linecap="round" stroke-linejoin="round"/>
</svg>
