<svg width="569" height="593" viewBox="0 0 569 593" fill="none" xmlns="http://www.w3.org/2000/svg">
<path d="M46.2184 382.57C69.4841 397.84 99.1506 394.576 126.296 390.749C155.34 386.654 184.784 382.512 213.817 386.654C242.85 390.785 271.918 404.277 289.218 429.249C297.927 441.839 303.259 456.642 310.914 469.959C334.461 510.94 381.521 535.372 426.622 530.06C474.503 524.419 516.136 487.173 535.78 440.705C555.424 394.248 554.873 340.15 541.265 291.341C531.701 256.996 511.705 221.036 478.57 213.558C456.594 208.597 429.33 215.817 414.62 197.877C400.848 181.049 338.903 155.504 339.149 133.283C339.43 107.305 326.408 81.5835 305.779 67.4133C293.555 59.0228 261.217 45.987 248.628 59.8774C243.646 65.3898 244.537 74.8912 244.045 81.8881C243.249 93.2863 241.372 104.099 233.907 112.886C224.928 123.477 211.801 128.942 199.577 134.067C158.236 151.386 187.211 168.704 145.86 186.035C118.597 197.457 91.0295 209.053 67.2239 227.109C43.4073 245.189 23.3531 270.687 17.176 300.972C11.0112 331.233 21.3138 366.222 46.2212 382.57H46.2184Z" fill="#EEF4FF"/>
<path d="M119.409 277.164C214.883 239.457 208.001 135.338 204.743 109.652C204.352 106.577 201.407 104.523 198.375 105.185C153.976 114.863 129.774 96.9626 121.154 88.4494C119.111 86.4314 115.836 86.4314 113.792 88.4494C105.173 96.9626 80.9711 114.863 36.5715 105.185C33.5382 104.523 30.5932 106.578 30.2039 109.652C26.9455 135.337 20.0642 239.456 115.538 277.164C116.775 277.652 118.175 277.652 119.412 277.164H119.409Z" fill="white"/>
<path d="M115.529 277.167C116.78 277.652 118.172 277.652 119.406 277.167C153.408 263.734 174.423 241.885 187.271 218.161C174.18 237.616 154.711 254.988 125.96 266.355C124.709 266.84 123.318 266.84 122.083 266.355C33.0826 231.194 33.0122 138.346 36.0552 105.11C33.2041 104.763 30.5795 106.741 30.197 109.658C26.9469 135.342 20.0629 239.455 115.531 277.167H115.529Z" fill="#E1E5FF"/>
<path d="M99.4859 205.789C98.9101 207.922 100.526 210.025 102.746 210.025H132.198C134.417 210.025 136.032 207.92 135.457 205.789L135.28 205.13L126.895 174.076C134.973 170.191 140.285 161.469 139.059 151.689C137.833 141.834 129.811 133.965 119.923 132.88C116.097 132.464 112.43 133.039 109.18 134.391C101.278 137.644 95.707 145.422 95.707 154.479C95.707 163.535 100.749 170.562 108.047 174.076L99.4859 205.789Z" fill="#0079FF"/>
<path d="M106.729 200.894C106.153 203.037 107.76 205.13 109.979 205.13H135.281L126.896 174.076C134.975 170.191 140.286 161.469 139.06 151.689C137.834 141.834 129.812 133.965 119.924 132.88C116.098 132.464 112.431 133.039 109.181 134.391C105.318 138.313 102.95 143.671 102.95 149.584C102.95 158.206 107.992 165.667 115.291 169.181L106.729 200.893V200.894Z" fill="#E5F2FF"/>
<path d="M319.531 459.119C319.531 470.155 324.017 480.161 331.271 487.392C338.514 494.634 348.526 499.102 359.59 499.102H523.58C545.697 499.102 563.639 481.2 563.639 459.119C563.639 448.074 559.153 438.077 551.899 430.846C544.656 423.615 534.644 419.137 523.58 419.137H359.59C337.473 419.137 319.531 437.038 319.531 459.119Z" fill="white"/>
<path d="M489.657 499.103L537.027 564.558H551.371L516.771 499.103H489.657Z" fill="white"/>
<path d="M393.377 499.103L346.008 564.558H331.664L366.264 499.103H393.377Z" fill="white"/>
<path d="M394.805 370.424C392.19 387.274 535.745 399.447 535.16 379.689L524.548 302.358L567.666 282.125L567.691 282.113C566.694 273.782 564.578 261.981 560.143 251.561C551.562 231.231 536.279 218.472 520.511 210.49C512.079 206.188 503.497 203.29 495.75 201.314C494.953 201.078 494.167 200.903 493.383 200.729C489.459 199.796 485.475 199.063 481.489 198.515C468.885 196.787 456.068 197.036 443.513 199.348C443.364 199.373 443.228 199.398 443.04 199.435C421.468 203.563 406.671 212.789 395.836 223.408C394.279 224.926 392.822 226.467 391.427 228.034C388.289 231.566 384.752 235.097 382.435 238.691L417.695 256.46L417.67 256.572L409.139 299.049L394.803 370.424H394.805Z" fill="#E5F2FF"/>
<path d="M395.837 223.408V223.446C395.837 223.446 517.922 161.806 567.666 282.113V282.125L567.691 282.113C566.694 273.781 564.578 261.981 560.143 251.561C551.562 231.231 536.279 218.472 520.511 210.49C512.079 206.188 503.497 203.29 495.75 201.314C494.953 201.078 494.167 200.903 493.383 200.729C489.459 199.796 485.475 199.063 481.489 198.515C468.885 196.787 456.068 197.036 443.513 199.348C443.364 199.373 443.228 199.398 443.04 199.435C421.468 203.563 406.671 212.789 395.836 223.408H395.837Z" fill="#0079FF"/>
<path d="M409.14 299.049C415.991 298.851 421.719 296.538 419.839 288.777C415.691 271.642 418.36 264.265 423.999 259.457C436.364 248.911 446.031 232.249 446.306 231.467C439.07 241.315 429.691 249.746 417.71 256.473L417.672 256.572L409.141 299.049H409.14Z" fill="#0079FF"/>
<path d="M428.37 329.588C414.968 332.088 441.386 349.496 441.386 349.496L448.86 355.129C451.811 357.343 454.888 359.382 458.065 361.222C471.018 368.758 485.677 373.097 500.748 373.184C552.399 373.52 569.724 328.021 568.005 287.409C567.93 285.63 567.818 283.865 567.668 282.111C552.422 271.89 538.273 274.191 524.761 282.111C524.91 284.375 525.009 286.7 524.997 289.05C524.997 290.008 524.984 290.965 524.947 291.923C524.573 304.445 521.571 317.178 512.953 325.211C490.945 345.69 458.338 324.887 458.338 324.887C458.338 324.887 442.172 305.961 434.886 306.11C428.845 306.248 435.434 313.931 437.987 316.493C435.583 314.566 428.945 310.151 425.033 312.315C420.824 314.641 428.794 320.895 431.248 322.699C429.779 321.691 426.103 319.727 422.603 321.629C418.082 324.091 428.37 329.587 428.37 329.587V329.588Z" fill="#FCBBA4"/>
<path d="M458.063 361.223C471.016 368.759 485.675 373.098 500.746 373.185C552.397 373.522 569.722 328.023 568.003 287.41C567.929 285.632 567.817 283.866 567.666 282.113C552.421 271.892 538.272 274.192 524.759 282.113C524.908 284.376 525.008 286.701 524.995 289.052C531.073 290.568 539.045 284.401 545.098 286.726C548.797 288.156 551.064 292.061 551.662 295.978C552.247 299.896 551.463 303.874 550.665 307.754C547.75 322.091 544.387 337.287 534.099 347.706C524.87 357.07 511.357 361.037 498.242 362.006C485.115 362.977 471.95 361.323 458.798 361.223H458.063Z" fill="#F2A07C"/>
<path d="M524.759 282.113C524.759 282.113 524.828 256.043 503.904 243.492C503.904 243.492 541.648 324.462 483.456 322.276L485.534 334.067C513.022 332.92 527.844 317.562 524.759 282.111V282.113Z" fill="#0079FF"/>
<path d="M349.193 285.421L364.078 369.031C364.371 370.658 365.789 371.839 367.441 371.839H486.069C488.191 371.839 489.797 369.931 489.432 367.848L486.279 349.945L474.699 284.24C474.406 282.601 472.988 281.42 471.336 281.42H352.555C350.422 281.42 348.816 283.327 349.192 285.421H349.193Z" fill="#E1E5FF"/>
<path d="M349.193 285.421L364.078 369.031C364.371 370.657 365.789 371.839 367.441 371.839H486.069C488.191 371.839 489.797 369.931 489.432 367.848L486.279 349.945C465.005 346.283 443.672 342.889 422.153 341.063C409.729 339.998 397.035 339.425 385.35 335.059C380.661 333.305 376.009 330.8 373.137 326.705C369.046 320.853 369.374 313.06 370.57 306.027C371.777 299.005 373.7 291.844 372.257 284.859C372.023 283.723 371.636 282.565 371.109 281.418H352.554C350.421 281.418 348.815 283.326 349.19 285.42L349.193 285.421Z" fill="#CCD2FF"/>
<path d="M411.014 329.474C411.726 334.034 416.019 337.758 420.604 337.758C425.189 337.758 428.319 334.034 427.608 329.474C426.893 324.896 422.601 321.172 418.015 321.172C413.43 321.172 410.3 324.896 411.014 329.474Z" fill="white"/>
<path d="M289.336 177.886C289.522 178.458 290.145 180.261 290.992 182.599C292.786 187.623 295.576 195.058 297.045 197.832C318.256 258.537 371.575 275.487 402.763 265.216C406.824 263.884 410.523 262.083 413.686 259.832C414.296 259.396 414.919 258.923 415.492 258.427C416.276 257.83 417.012 257.159 417.709 256.474C418.481 239.388 411.507 228.135 395.838 223.448C395.054 223.684 394.268 223.896 393.459 224.07C392.127 224.355 390.794 224.592 389.411 224.729C389.137 224.754 388.875 224.778 388.602 224.803C363.729 226.941 331.258 206.437 322.067 181.642C322.067 181.642 318.679 160.926 314.606 160.988C310.421 161.05 311.368 167.976 311.53 169.009C311.143 167.466 307.084 151.464 302.238 151.96C297.168 152.47 301.191 166.994 301.191 166.994C301.191 166.994 296.982 165.228 296.77 170.426C296.77 170.426 294.541 169.133 293.283 170.176C292.1 171.159 292.673 173.894 292.673 173.894C292.673 173.894 290.517 173.322 289.547 174.329C288.388 175.536 289.336 177.886 289.336 177.886Z" fill="#FCBBA4"/>
<path d="M290.992 182.599C292.786 187.623 295.576 195.058 297.045 197.832C318.256 258.538 371.575 275.487 402.763 265.216C406.824 263.884 410.523 262.083 413.686 259.832C414.296 259.396 414.919 258.923 415.492 258.427C416.276 257.83 417.012 257.159 417.709 256.474C418.481 239.388 411.507 228.135 395.838 223.448C395.054 223.684 394.268 223.896 393.459 224.07C392.127 224.355 390.794 224.592 389.411 224.729C389.137 224.754 388.875 224.778 388.602 224.803C388.988 225.549 389.498 226.233 390.071 226.83C391.889 228.707 394.318 229.851 396.622 231.094C398.926 232.325 401.243 233.78 402.613 236.006C405.041 239.948 403.61 245.469 400.159 248.552C396.709 251.648 391.74 252.581 387.131 252.109C382.523 251.623 378.151 249.87 373.855 248.141C370.554 246.824 367.266 245.505 363.977 244.187C352.668 239.635 341.26 235.048 331.196 228.171C321.132 221.294 312.389 211.87 308.566 200.317C306.611 194.41 301.665 188.603 296.621 184.96C294.977 183.766 293.022 182.958 290.992 182.597V182.599Z" fill="#F2A07C"/>
<path d="M360.011 544.666L359.582 552.491L358.796 561.106C358.796 561.106 368.069 575.25 390.882 563.146L391.006 561.335L391.93 544.666H360.011Z" fill="#FCBBA4"/>
<path d="M360.011 544.666L359.582 552.491C360.01 552.412 360.439 552.323 360.866 552.222C363.688 551.573 366.43 550.518 369.32 550.385C372.199 550.251 375.389 551.279 376.796 553.796C377.705 555.405 377.757 557.401 378.677 558.999C380.017 561.318 382.911 562.315 385.592 562.358C387.449 562.383 389.283 562.012 391.006 561.335L391.93 544.666H360.011Z" fill="#F2A07C"/>
<path d="M339.067 537.164C339.455 542.907 344.219 547.366 349.982 547.366H398.987C405.27 547.366 410.268 542.088 409.902 535.815L409.448 530.36L402.699 422.234C402.699 422.234 436.687 420.773 445.343 413.736C456.192 404.929 455.859 391.276 453.809 381.661C452.413 375.111 450.218 370.431 450.218 370.431C450.218 370.431 446.25 368.362 440.001 365.64C422.769 358.127 387.45 351.091 370.295 363.991C337.67 388.542 336.195 494.445 339.065 537.163L339.067 537.164Z" fill="#FC6054"/>
<path d="M339.067 537.164C339.455 542.907 344.22 547.366 349.983 547.366H398.987C405.27 547.366 410.268 542.088 409.902 535.815L409.448 530.36C404.128 528.402 398.156 527.495 392.536 527.008C381.01 526 368.256 525.271 360.066 517.116C352.23 509.328 351.112 470.174 351.189 459.143C351.311 440.743 353.749 421.514 364.166 406.334C374.583 391.153 393.634 387.448 412.052 388.256C434.87 389.262 447.193 385.91 453.809 381.661C452.413 375.111 450.218 370.431 450.218 370.431C450.218 370.431 446.25 368.362 440.001 365.64C422.769 358.127 387.45 351.091 370.295 363.991C337.67 388.542 336.195 494.445 339.066 537.163L339.067 537.164Z" fill="#E64B38"/>
<path d="M443.206 544.666L442.776 552.491L441.991 561.106C441.991 561.106 451.263 575.25 474.076 563.146L474.2 561.335L475.124 544.666H443.206Z" fill="#FCBBA4"/>
<path d="M443.206 544.666L442.776 552.491C443.204 552.412 443.634 552.323 444.06 552.222C446.882 551.573 449.624 550.518 452.514 550.385C455.393 550.251 458.584 551.279 459.99 553.796C460.899 555.405 460.951 557.401 461.871 558.999C463.212 561.318 466.105 562.315 468.787 562.358C470.644 562.383 472.477 562.012 474.2 561.335L475.124 544.666H443.206Z" fill="#F2A07C"/>
<path d="M422.261 537.164C422.649 542.907 427.413 547.366 433.176 547.366H482.18C488.464 547.366 493.462 542.088 493.096 535.815L492.642 530.36L485.893 422.234C485.893 422.234 519.881 420.773 528.536 413.736C539.386 404.929 539.053 391.276 537.003 381.661C535.607 375.111 533.412 370.431 533.412 370.431C533.412 370.431 529.444 368.362 523.195 365.64C505.962 358.127 470.644 351.091 453.489 363.991C420.863 388.542 419.389 494.445 422.259 537.163L422.261 537.164Z" fill="#FC6054"/>
<path d="M422.261 537.164C422.649 542.907 427.413 547.366 433.176 547.366H482.181C488.464 547.366 493.462 542.088 493.096 535.815L492.642 530.36C487.322 528.402 481.349 527.495 475.73 527.008C464.204 526 451.45 525.271 443.259 517.116C435.424 509.328 434.306 470.174 434.383 459.143C434.505 440.743 436.943 421.514 447.36 406.334C457.777 391.153 476.828 387.448 495.246 388.256C518.064 389.262 530.387 385.91 537.003 381.661C535.607 375.111 533.412 370.431 533.412 370.431C533.412 370.431 529.444 368.362 523.195 365.64C505.963 358.127 470.644 351.091 453.489 363.991C420.864 388.542 419.389 494.445 422.259 537.163L422.261 537.164Z" fill="#E64B38"/>
<path d="M498.717 157.88C500.548 160.041 501.586 162.882 501.424 165.927C501.085 172.302 495.632 177.208 489.234 176.869C482.849 176.53 477.946 171.075 478.286 164.7C478.482 161.003 480.398 157.797 483.226 155.849C480.797 153.645 479.169 150.584 478.806 147.179C476.035 148.686 472.814 149.481 469.433 149.302C467.026 149.174 464.769 148.566 462.731 147.593C461.809 152.384 457.465 155.871 452.444 155.605C446.966 155.314 442.757 150.64 443.048 145.172C443.335 139.781 447.869 135.626 453.232 135.778C452.85 134.182 452.694 132.519 452.785 130.803C453.301 121.096 461.591 113.654 471.302 114.17C481.025 114.685 488.479 122.961 487.963 132.668L487.956 132.79C489.577 132.22 491.336 131.958 493.154 132.055C500.715 132.456 506.522 138.891 506.12 146.44C505.852 151.466 502.903 155.716 498.718 157.881L498.717 157.88Z" fill="#E1E5FF"/>
<path d="M465.466 155.23C465.799 155.004 465.995 154.865 465.995 154.865L455.938 141.822C455.938 141.822 447.506 144.309 448.361 154.324L465.467 155.231L465.466 155.23Z" fill="#CCD2FF"/>
<path d="M482.665 144.331C482.665 144.331 480.302 151.135 486.78 157.849L476.291 152.732C477.369 149.168 479.216 146.164 482.665 144.331Z" fill="#CCD2FF"/>
<path d="M502.777 154.687C503.086 153.671 503.277 152.593 503.336 151.486C503.738 143.937 497.931 137.502 490.37 137.101C488.552 137.004 486.793 137.266 485.172 137.836L485.179 137.714C485.695 128.007 478.241 119.73 468.518 119.215C462.576 118.899 457.175 121.566 453.753 125.903C456.27 118.71 463.305 113.744 471.299 114.168C481.021 114.684 488.476 122.96 487.959 132.667L487.952 132.788C489.572 132.219 491.332 131.957 493.151 132.053C500.713 132.454 506.518 138.889 506.117 146.438C505.948 149.605 504.718 152.469 502.777 154.687Z" fill="#CCD2FF"/>
<path d="M495.391 201.192C493.328 207.986 486.825 212.782 479.408 212.389C471.219 211.955 464.856 205.399 464.446 197.477C477.377 197.253 488.143 199.256 495.391 201.194V201.192Z" fill="white"/>
<path d="M490.913 168.529C490.899 168.787 490.887 169.035 490.863 169.273C490.863 169.453 490.854 169.632 490.845 169.81L489.394 197.101C489.127 202.145 484.802 206.017 479.76 205.749C475.336 205.515 471.93 202.201 471.234 198.238C471.112 197.555 471.059 196.854 471.098 196.131L471.534 187.93C470.794 187.97 470.046 187.97 469.29 187.93C468.176 187.871 467.098 187.725 466.043 187.489C461.713 186.573 457.926 184.301 455.101 181.165C451.579 177.254 449.555 172.011 449.856 166.351L450.62 151.996C450.836 147.916 453.901 144.653 457.792 144.063C460.783 147.089 464.856 149.057 469.43 149.3C472.811 149.479 476.034 148.684 478.806 147.179C479.266 151.464 481.701 155.187 485.244 157.376C487.04 158.478 489.146 159.196 491.402 159.356L490.914 168.529H490.913Z" fill="#FCBBA4"/>
<path d="M476.821 187.324C476.821 187.324 472.595 191.6 471.235 198.238C471.112 197.555 471.059 196.854 471.098 196.131L471.534 187.93C470.794 187.97 470.046 187.97 469.291 187.93C468.176 187.871 467.098 187.725 466.043 187.489L476.822 187.324H476.821Z" fill="#F2A07C"/>
<path d="M488.866 167.509L490.962 167.621L491.401 159.356C484.734 158.869 479.497 153.652 478.806 147.177C476.035 148.684 472.813 149.479 469.432 149.3C464.852 149.057 460.778 147.088 457.791 144.065C454.988 144.494 452.625 146.299 451.436 148.801C452.598 147.853 454.001 147.194 455.537 146.965C458.523 149.988 462.599 151.956 467.177 152.2C470.558 152.379 473.781 151.586 476.552 150.078C477.242 156.552 482.479 161.769 489.146 162.256L488.867 167.51L488.866 167.509Z" fill="#F2A07C"/>
<path d="M490.912 168.532C490.898 168.787 490.886 169.029 490.861 169.273C490.862 169.451 490.853 169.628 490.844 169.805L490.447 177.288C490.393 176.208 490.016 175.133 489.512 174.163C488.713 172.688 487.59 171.42 486.618 170.047C485.594 168.605 484.734 167.028 484.064 165.382C483.474 163.931 483.031 162.418 482.747 160.872C482.643 160.311 482.392 159.587 482.752 159.085C483.088 158.626 483.788 158.22 484.26 157.922C484.571 157.717 484.903 157.535 485.244 157.375C487.042 158.48 489.139 159.19 491.399 159.356L490.912 168.532Z" fill="#F2A07C"/>
<path d="M490.233 179.008C490.313 178.768 490.369 178.527 490.394 178.284L490.357 178.993C490.311 179.001 490.278 179 490.234 179.008H490.233Z" fill="#F2A07C"/>
<path d="M497.516 161.269C497.314 165.05 494.08 167.957 490.289 167.756C486.502 167.554 483.594 164.322 483.796 160.541C483.997 156.756 487.231 153.853 491.018 154.054C494.809 154.255 497.717 157.484 497.516 161.269Z" fill="#F2A07C"/>
<path d="M315.063 50.7343C314.214 50.0231 313.783 48.828 312.778 48.3621C311.141 47.6053 309.308 49.276 307.519 49.0375C306.566 48.9107 305.556 48.2587 304.732 48.7522C304.019 49.1795 303.978 50.165 303.71 50.9507C303.341 52.0328 302.369 52.8888 301.248 53.119C300.718 53.2279 300.144 53.2141 299.678 53.4884C298.716 54.055 298.727 55.4885 297.968 56.3073C296.724 57.6471 291.734 57.5451 290.077 58.9677C288.731 60.1228 288.386 62.5543 290.511 65.0672C291.858 66.662 291.777 66.7227 291.458 68.9792C291.055 71.8256 293.028 71.5389 293.94 71.8877C294.509 71.7939 295.202 72.1909 295.629 72.5783C296.361 73.2427 297.105 74.9491 297.469 75.8713C298.634 78.8142 299.166 81.7848 302.285 83.3258C302.734 83.5478 302.844 83.607 303.076 84.0481C304.413 86.601 303.918 88.0883 303.71 88.1048C303.309 91.0216 301.219 92.8384 301.203 93.4752C301.192 93.8804 301.635 94.1796 302.041 94.1658C302.447 94.152 302.808 93.919 303.14 93.6833C306.573 91.2504 308.464 88.415 309.146 82.6532C309.582 78.9728 310.057 75.2386 310.093 71.532C310.097 71.0261 310.083 70.5037 310.268 70.0323C310.78 68.7338 312.434 68.3989 313.479 67.8241C314.156 67.4519 313.939 67.1087 314.273 66.731C314.348 65.7619 315.263 65.0631 315.856 64.2912C316.966 62.8479 318.711 59.5769 318.411 58.0414C318.348 57.7119 318.197 57.4059 318.037 57.1109C316.901 55.0309 315.762 54.332 315.608 53.9502C315.556 53.8206 315.556 53.6773 315.552 53.5394C315.524 52.4932 315.865 51.407 315.063 50.7343Z" fill="#0079FF"/>
<path d="M272.714 4.218C272.703 5.79078 273.429 7.37321 274.7 8.29676C275.189 8.65377 275.779 8.94324 276.051 9.48358C276.497 10.3851 275.94 11.1735 278.24 11.5622C284.535 12.636 286.658 16.2089 288.497 16.9078C289.347 17.2276 290.458 17.0884 290.943 16.3192C291.569 15.3322 291.245 12.3052 290.943 10.9943C290.733 10.0928 290.443 9.10176 290.865 8.27746C291.445 7.16645 294.164 5.76321 297.045 6.34215C299.285 6.79428 299.163 8.55039 297.632 10.0901C296.838 10.8827 295.876 11.7897 296.037 12.8952C297.132 13.634 298.092 14.5686 298.858 15.6424C297.502 18.4351 296.148 21.2278 294.795 24.0191C296.077 24.7014 296.4 26.7718 297.836 26.9937C298.756 27.1329 299.616 26.3845 300.542 26.4534C301.303 26.5099 301.898 27.0902 302.526 27.5189C303.156 27.9462 304.076 28.215 304.629 27.694C304.825 27.5093 304.95 27.2405 305.186 27.1081C305.583 26.8848 306.094 27.1619 306.35 27.541C306.605 27.9173 306.704 28.379 306.934 28.7705C307.837 30.3309 310.44 30.4384 311.008 32.1477C311.164 32.6205 311.132 33.1594 311.403 33.5757C311.954 34.4165 313.278 34.1932 314.113 34.7487C315.231 35.4959 315.004 37.1706 314.643 38.465C315.746 39.281 317.617 38.2775 317.543 36.9074C320.318 36.5049 323.648 36.3064 325.399 38.4912C326.817 40.2611 326.315 43.2192 324.395 44.4253C323.972 43.6741 323.532 42.9008 322.846 42.3742C322.162 41.8476 321.163 41.6298 320.428 42.0875C321.549 43.5376 320.611 46.0367 318.812 46.3909C318.556 46.1621 318.301 45.9374 318.048 45.7086C318.042 46.8665 318.142 48.023 318.343 49.1643C317.588 49.5076 316.746 49.6688 315.915 49.6316C315.277 50.2436 315.995 51.4277 316.874 51.5159C318.04 51.6331 318.57 51.0252 323.937 46.8872C325.145 45.9581 325.511 45.9333 326.647 46.0656C328.922 46.3179 331.805 45.7941 332.44 43.601C332.802 42.348 332.071 39.5457 334.573 36.418C335.224 38.5063 335.302 40.7725 334.791 42.8994C335.744 41.8421 335.958 40.3383 336.222 38.9392C336.693 36.4415 337.437 34.0072 338.242 31.599C330.249 13.5058 312.121 0.872559 291.039 0.872559C284.585 0.872559 278.41 2.05663 272.714 4.218Z" fill="#0079FF"/>
<path d="M317.203 41.7539C317.32 41.6725 317.512 41.7539 317.534 41.8958C317.544 41.9606 317.525 42.0282 317.543 42.0902C317.623 42.3673 318.832 42.3645 318.986 42.2625C319.093 42.1908 319.119 42.0378 319.079 41.9151C319.039 41.7925 318.948 41.6932 318.859 41.6022C317.529 40.2514 316.343 40.687 314.558 41.3955C312.724 42.1233 312.956 42.2653 312.378 42.7257C311.533 43.3983 310.755 43.0096 310.082 43.1406C309.467 43.2605 308.972 43.8339 308.943 44.4583C308.931 44.7147 309.02 44.7919 309.242 44.8884C310.935 45.6148 311.421 45.4453 312.376 44.8746C313.742 44.06 313.388 44.0655 312.825 43.9456C312.452 43.8656 312.419 43.5541 312.662 43.4038C313.072 43.1475 314.12 43.408 314.461 43.4107C315.157 43.4162 315.229 42.9945 315.448 42.7408C315.817 42.3135 316.522 42.3314 316.908 41.9193C316.967 41.8559 317.018 41.7814 317.09 41.7318C317.22 41.6422 317.409 41.6505 317.53 41.7511" fill="#0079FF"/>
<path d="M240.501 62.6053C242.315 64.6633 242.02 68.0404 244.078 69.8228C244.458 70.1508 244.898 70.4058 245.242 70.7684C245.538 71.0826 245.745 71.4658 246.006 71.8132C246.681 72.7133 247.694 73.3488 248.241 74.3343C248.782 75.3089 248.784 76.4764 248.879 77.5888C248.977 78.7949 249.305 81.4594 250.255 82.1969C250.879 82.6835 251.753 82.6587 252.539 82.5622C255.552 82.201 256.471 81.3395 257.902 79.3642C259.703 76.8762 259.579 76.6666 260.639 71.532C261.121 69.168 260.602 69.1322 260.384 67.5153C260.008 64.7157 262.282 62.2111 262.923 60.5666C263.663 58.652 263.224 56.4286 262.733 54.4368C263.979 53.2127 264.464 53.1149 265.8 53.2816C273.19 54.1886 274.236 54.6366 276.392 52.1486C276.976 51.48 277.549 50.7922 277.952 50.0065C278.554 48.8335 279.317 45.7541 279.361 44.3191C279.423 42.1715 278.487 40.0157 276.871 38.5945C275.957 37.7923 274.794 37.1499 274.343 36.0224C273.956 35.0464 274.203 34.677 272.005 33.4075C272.019 32.954 271.097 32.8947 271.166 32.4467C271.185 32.3199 271.287 32.2234 271.392 32.1518C272.439 31.4322 274.319 32.018 273.796 29.603C273.694 29.1192 273.583 28.6202 273.302 28.215C272.216 26.6408 269.777 27.3631 268.194 26.8104C268.251 25.8868 268.708 24.995 269.423 24.4105C269.619 24.2465 269.857 24.0769 269.894 23.8247C269.948 23.4539 269.55 23.1424 269.571 22.7688C269.59 22.4008 270.02 22.1761 270.391 22.205C271.095 22.256 271.903 23.0059 272.497 22.4366C272.749 22.1954 272.758 21.8025 272.747 21.4566C272.68 19.8148 272.031 19.9747 271.574 19.6039C271.039 19.1615 271.137 18.2104 270.558 17.8216C270.039 17.4757 267.98 17.619 267.954 18.6542C267.946 18.9437 268.116 19.269 267.946 19.5075C267.83 19.6742 267.594 19.7142 267.461 19.87C267.283 20.085 267.376 20.4048 267.367 20.6833C267.338 21.4703 266.394 21.9583 265.62 21.8136C264.842 21.6688 264.224 21.1051 263.651 20.5647C262.955 19.9113 263.078 19.7652 262.949 19.2083C262.807 18.5963 262.314 18.0808 261.712 17.9085C262.411 17.1297 263.883 17.8658 264.683 17.1889C263.807 15.0538 264.324 15.7209 261.758 13.3735C261.406 13.0454 261.04 12.7132 260.594 12.5354C260.053 12.3203 259.411 12.3369 258.908 12.0901C243.409 24.434 236.734 44.0393 240.502 62.6053H240.501Z" fill="#0079FF"/>
<path d="M251.476 32.5019C251.642 32.2373 251.74 31.8927 252.026 31.7659C252.378 31.6101 253.143 31.8734 254.928 31.4612C256.825 31.0229 256.701 30.1186 256.916 29.8416C257.003 29.7285 257.177 29.6651 257.29 29.752C257.354 29.8002 257.38 29.8829 257.406 29.9574C257.753 30.9609 258.69 31.8072 259.755 31.8031C260.204 31.8017 260.748 31.5081 260.679 31.0642C260.158 30.9733 259.647 30.834 259.152 30.6507C259.263 30.2234 258.87 29.7396 259.089 29.355C259.204 29.1551 259.24 29.173 262.073 27.4748C262.294 27.3425 262.525 27.206 262.78 27.1743C263.552 27.0792 264.163 27.9338 264.941 27.9421C265.22 27.9449 265.551 27.8539 265.74 28.0579C265.939 28.2729 265.805 28.6506 265.976 28.8877C266.192 29.1868 266.712 29.0545 266.972 29.3164C267.106 29.4515 267.133 29.6527 267.176 29.8374C267.702 32.0691 269.946 31.4419 270.96 32.4564C269.28 33.748 265.616 30.936 261.312 31.9437C261.14 31.9836 261.108 32.0305 261.079 32.189C260.71 34.1795 258.826 35.7812 256.799 35.8253C256.306 35.8363 256.294 35.6379 256.121 35.2491C255.769 34.451 254.695 34.2401 253.848 34.4552C252.39 34.826 251.155 36.1768 248.857 35.4656C246.85 34.8453 246.749 33.0188 247.442 32.6026C247.818 32.3765 248.291 32.7018 248.625 32.8631C249.516 33.2904 250.854 33.493 251.474 32.5006L251.476 32.5019Z" fill="white"/>
<path d="M276.497 12.7767C276.033 13.47 275.859 12.9517 275.659 12.9214C275.525 12.9021 275.383 13.0427 275.267 12.9738C275.1 12.8745 275.283 12.5244 274.654 12.4513C273.959 12.37 273.075 12.7835 273.011 13.408C272.954 13.9483 273.664 14.8581 274.884 14.8622C275.276 14.8636 275.663 14.7878 276.045 14.7037C276.754 14.5466 277.73 15.0221 277.636 13.6189C277.597 13.0455 277.448 12.8704 276.912 12.5437C276.8 12.4748 276.771 12.4265 276.673 12.5106C276.639 12.5409 276.495 12.7312 276.495 12.778L276.497 12.7767Z" fill="#0079FF"/>
<path d="M288.008 89.3564C287.324 88.4357 284.144 87.6734 281.477 89.1745C280.969 89.4598 280.215 89.7617 279.911 89.2641C279.682 88.8905 279.976 87.2475 278.809 86.2495C277.951 85.5148 276.694 85.5437 275.565 85.6126C275.329 85.6278 275.082 85.6443 274.877 85.7629C274.314 86.0868 273.646 88.1545 271.814 88.5404C269.003 89.1345 267.777 85.6402 263.369 85.5906C261.889 85.574 261.443 86.4576 261.158 88.0428C261.036 88.7169 261.102 89.0146 261.751 89.3633C265.498 91.3745 270.019 89.3702 274.281 92.7749C275.637 93.8584 275.822 94.2057 277.959 94.4649C279.681 94.6744 281.416 94.7833 283.15 94.793C284.864 94.8012 286.059 94.2113 287.337 93.1085C288.255 92.3159 288.803 90.4275 288.008 89.3551V89.3564Z" fill="#0079FF"/>
<path d="M398.982 20.3814V68.4857C398.982 74.6886 404.016 79.7019 410.229 79.7019H417.065V92.7694C417.065 95.1637 419.887 96.4456 421.701 94.8591L438.592 79.7019H521.852C527.032 79.7019 531.404 76.2104 532.701 71.4493C532.967 70.5106 533.099 69.5181 533.099 68.487V20.3814C533.099 14.1784 528.065 9.15271 521.852 9.15271H410.229C409.301 9.15271 408.413 9.25885 407.553 9.48353C402.638 10.6745 398.982 15.1048 398.982 20.3814Z" fill="#E1E5FF"/>
<path d="M404.494 12.4582V60.5625C404.494 66.753 409.528 71.7787 415.741 71.7787H422.577V84.8324C422.577 87.2391 425.411 88.5087 427.213 86.9359L444.104 71.7787H530.014C530.942 71.7787 531.842 71.6726 532.703 71.4479C532.969 70.5092 533.101 69.5167 533.101 68.4857V20.3814C533.101 14.1798 528.066 9.15271 521.854 9.15271H407.581C407.572 9.15271 407.564 9.15271 407.554 9.15271C405.887 9.15685 404.53 10.5559 404.497 12.2197C404.496 12.2997 404.494 12.3796 404.494 12.4596V12.4582Z" fill="white"/>
<path d="M214.905 425.469C212.3 444.246 199.555 462.393 181.211 467.26C170.492 470.107 159.165 468.342 148.188 466.757C137.21 465.173 125.381 462.944 115.255 467.453C103.878 472.527 99.1053 487.028 97.1571 496.907C96.0347 502.548 95.8289 506.682 95.8289 506.682C89.5731 497.693 84.5033 488.008 81.6122 477.434C78.7362 466.86 78.71 455.244 83.251 445.263C87.7782 435.295 97.298 427.311 108.212 426.176C114.881 425.494 121.525 427.284 128.13 428.43C134.747 429.577 141.906 429.989 147.814 426.82C154.922 423.021 158.546 415.036 161.346 407.489C164.145 399.954 166.945 391.855 173.29 386.895C179.676 381.925 188.86 381.255 196.329 384.384C198.058 385.118 199.695 386.032 201.232 387.101C206.302 390.629 210.211 395.845 212.519 401.602C215.537 409.11 216.015 417.455 214.905 425.466V425.469Z" fill="#E1E5FF"/>
<path d="M214.905 425.469C212.3 444.246 199.555 462.393 181.211 467.26C170.491 470.107 159.164 468.342 148.188 466.757C137.21 465.173 125.381 462.944 115.255 467.453C103.878 472.527 99.1052 487.028 97.1571 496.907C95.6742 485.664 102.691 473.997 112.34 467.53C123.072 460.343 136.334 458.207 149.168 456.635C156.108 455.785 163.139 455.038 169.743 452.745C176.348 450.441 182.604 446.384 186.112 440.342C190.485 432.795 189.982 423.51 189.905 414.79C189.828 406.072 190.68 396.464 196.832 390.282C198.121 388.995 199.618 387.925 201.231 387.101C206.301 390.629 210.209 395.845 212.518 401.602C215.536 409.11 216.014 417.455 214.904 425.466L214.905 425.469Z" fill="#CCD2FF"/>
<path d="M107.067 558.473C108.139 554.57 111.657 551.255 115.336 549.554C119.016 547.853 123.445 547.859 127.12 549.57C133.032 552.323 136.518 558.913 142.542 561.412C149.433 564.271 158.354 559.907 160.314 552.717C161.488 548.411 160.414 543.865 159.906 539.43C159.396 534.997 159.659 529.996 162.805 526.827C166.378 523.23 172.398 523.419 177.054 525.434C181.709 527.449 185.565 530.921 189.959 533.458C197.349 537.723 206.523 539.192 214.624 536.51C222.726 533.826 229.434 526.713 230.734 518.29C232.145 509.146 227.176 499.876 219.966 494.065C212.758 488.254 203.62 485.386 194.547 483.51C187.57 482.069 180.378 481.137 173.326 482.14C166.272 483.144 159.312 486.262 154.805 491.77C152.289 494.845 150.583 498.579 147.701 501.317C138.998 509.576 123.637 505.619 114.183 513.012C107.766 518.029 105.901 526.881 105.452 535.007C105.07 541.921 107.07 558.473 107.07 558.473H107.067Z" fill="#E1E5FF"/>
<path d="M83.3917 548.693C82.9913 546.298 77.0958 539.524 74.9931 538.274C73.6386 537.462 72.0522 537.076 70.4658 537.128C69.614 537.141 68.7497 537.283 67.9378 537.567C64.2224 538.854 61.7193 542.59 57.9528 543.71C53.6451 544.998 48.5753 541.843 47.8394 537.412C47.4004 534.759 48.3295 532.093 48.9108 529.466C49.4783 526.839 49.6329 523.825 47.943 521.738C46.0211 519.356 42.4092 519.099 39.4933 520.026C36.5787 520.94 34.0492 522.782 31.2506 524.044C26.5674 526.144 20.9688 526.453 16.2869 524.353C11.5912 522.241 8.00563 517.566 7.74744 512.441C7.48926 507.263 10.5336 502.37 14.7267 499.266C15.036 499.022 15.3591 498.803 15.6946 498.584C20.3765 495.532 26.04 494.385 31.5875 493.818C35.8579 493.38 40.2305 493.264 44.3974 494.295C48.5642 495.339 52.5503 497.631 54.9112 501.211C56.227 503.207 57.014 505.551 58.5741 507.367C63.2822 512.853 72.7508 511.411 77.9491 516.447C88.7335 526.905 83.3931 548.695 83.3931 548.695L83.3917 548.693Z" fill="#E1E5FF"/>
<path d="M70.4658 537.127C69.6139 537.139 68.7496 537.281 67.9378 537.565C64.2224 538.853 61.7193 542.588 57.9528 543.709C53.6451 544.996 48.5753 541.841 47.8394 537.411C47.4003 534.758 48.3295 532.092 48.9108 529.464C49.4782 526.837 49.6329 523.824 47.9429 521.737C46.021 519.355 42.4092 519.097 39.4932 520.025C36.5786 520.939 34.0492 522.78 31.2506 524.043C26.5674 526.142 20.9687 526.451 16.2869 524.352C11.5912 522.24 8.0056 517.564 7.74742 512.439C7.48923 507.262 10.5336 502.369 14.7267 499.264C17.2299 499.973 19.5384 501.39 21.2145 503.386C23.8198 506.49 24.9423 510.791 28.1289 513.302C31.6759 516.123 36.6946 515.891 41.2094 515.414C45.7118 514.937 50.6518 514.448 54.4445 516.933C56.3277 518.157 57.7084 519.999 59.0491 521.788C62.8542 526.901 66.6731 532.013 70.4658 537.127Z" fill="#CCD2FF"/>
<path d="M230.733 518.285C229.431 526.708 222.722 533.83 214.622 536.51C206.52 539.188 197.348 537.72 189.957 533.458C185.571 530.92 181.715 527.456 177.058 525.434C172.401 523.424 166.377 523.231 162.804 526.825C159.656 529.992 159.398 535.003 159.902 539.433C160.418 543.863 161.488 548.409 160.314 552.724C158.354 559.911 149.44 564.277 142.538 561.418C136.514 558.92 133.031 552.326 127.123 549.569C123.446 547.857 119.021 547.857 115.332 549.556C111.655 551.256 108.135 554.567 107.063 558.468C107.063 558.468 106.972 557.682 106.818 556.369C106.301 551.694 105.154 540.412 105.451 535.003C105.902 526.877 107.759 518.029 114.183 513.006C123.64 505.613 139.002 509.581 147.698 501.311C150.588 498.581 152.29 494.847 154.806 491.769C159.308 486.256 166.273 483.14 173.33 482.135C180.387 481.144 187.572 482.07 194.551 483.513C203.619 485.381 212.766 488.252 219.964 494.061C224.789 497.951 228.594 503.385 230.168 509.283C230.968 512.206 231.201 515.258 230.736 518.285H230.733Z" fill="#E1E5FF"/>
<path d="M230.733 518.285C229.431 526.708 222.722 533.83 214.622 536.51C206.52 539.188 197.348 537.72 189.958 533.458C185.571 530.92 181.715 527.456 177.058 525.434C172.401 523.424 166.377 523.231 162.804 526.825C159.656 529.992 159.398 535.003 159.902 539.433C160.418 543.863 161.488 548.41 160.315 552.724C158.354 559.911 149.44 564.277 142.538 561.418C136.515 558.92 133.031 552.326 127.123 549.569C123.447 547.857 119.022 547.857 115.332 549.556C111.656 551.256 108.135 554.567 107.064 558.468C107.064 558.468 106.972 557.682 106.818 556.369C108.147 552.775 111.32 549.827 114.804 548.036C119.305 545.717 124.376 544.842 129.225 543.348C134.063 541.866 138.964 539.51 141.687 535.259C143.493 532.427 144.176 529.038 145.62 526.013C148.91 519.174 156.043 514.757 163.474 513.147C170.891 511.537 178.631 512.399 186.099 513.803C193.568 515.206 200.96 517.151 208.532 517.705C214.608 518.168 221.148 517.576 226.011 513.892C227.687 512.617 229.056 511.046 230.164 509.281C230.964 512.205 231.197 515.257 230.732 518.284L230.733 518.285Z" fill="#CCD2FF"/>
<path d="M98.6408 205.555L107.009 174.534C99.5894 170.66 94.8302 162.867 94.8302 154.476C94.8302 141.44 106.087 130.511 120.019 132.008C130.275 133.131 138.655 141.358 139.933 151.585C141.116 161.04 136.311 170.168 127.93 174.534L136.299 205.555C137.035 208.248 134.998 210.903 132.197 210.903H102.741C99.9442 210.903 97.9022 208.251 98.6395 205.555H98.6408ZM134.6 206.011L126.044 174.299C125.939 173.901 126.138 173.468 126.512 173.281C134.611 169.384 139.311 160.748 138.186 151.807C137.014 142.375 129.29 134.794 119.819 133.75C106.663 132.41 96.5878 142.675 96.5878 154.475C96.5878 162.445 101.23 169.817 108.426 173.281C108.812 173.468 109 173.901 108.894 174.299L100.338 206.011C99.9055 207.572 101.074 209.149 102.74 209.149H132.195C133.813 209.149 135.045 207.625 134.598 206.011H134.6Z" fill="#1F2937"/>
<path d="M318.73 563.68H331.138L341.312 544.43C339.531 542.511 338.383 540.007 338.195 537.221C337.48 526.583 336.988 510.996 337.304 493.396C326.22 486.258 318.656 473.668 318.656 459.122C318.656 442.178 329.041 427.621 343.774 421.43C347.759 400.04 353.948 381.118 363.324 369.615C363.213 369.282 363.526 370.868 358.614 343.358H117.472C117.472 343.358 116.593 342.965 116.593 342.48V278.326C116.114 278.268 115.658 278.151 115.215 277.976C74.3553 261.839 47.3618 231.952 34.9965 189.135C25.1151 154.907 27.7411 122.072 29.3358 109.539C29.779 105.973 33.2265 103.536 36.7555 104.321C80.897 113.939 104.901 95.9894 113.176 87.8209C115.544 85.4803 119.4 85.4803 121.768 87.8209C127.358 93.3442 140.122 103.314 161.419 106.239V52.3526C161.419 51.8619 161.806 51.4746 162.299 51.4746H238.614C239.083 22.8529 262.43 0 291.041 0C319.651 0 343.48 23.3106 343.48 52.354C343.48 81.3974 319.956 104.708 291.041 104.708C262.125 104.708 239.027 81.731 238.612 53.2307H163.177V106.474C173.046 107.633 184.672 107.269 198.188 104.321C201.79 103.545 205.155 106 205.619 109.539C214.513 179.985 190.126 250.177 119.739 277.976H119.728C119.295 278.153 118.825 278.268 118.357 278.328H118.352V341.603H358.308V341.6L348.322 285.571C347.859 282.966 349.856 280.54 352.554 280.54H411.967L416.315 258.903C415.806 259.263 411.482 263.3 403.035 266.04C370.552 276.807 317.374 258.572 296.233 198.182C293.995 193.921 289.072 179.915 288.509 178.182C288.344 177.762 287.454 175.245 288.919 173.713C289.668 172.941 290.794 172.824 291.661 172.859C291.51 169.449 293.467 168.307 296.032 169.149C296.483 166.767 298.019 165.706 299.993 165.837C298.84 161.091 297.248 151.565 302.15 151.082C305.901 150.718 308.936 157.506 310.823 163.323C311.344 161.429 312.607 160.144 314.598 160.104H314.621C319.063 160.104 322.075 176.288 322.92 181.413C333.118 208.768 371.135 229.978 395.344 222.674C415.601 202.891 443.565 195.45 470.205 196.626C470.205 196.022 470.168 197.169 470.604 188.832C470.135 188.843 469.69 188.832 469.244 188.809C463.524 188.504 458.273 186.001 454.44 181.754C450.619 177.505 448.673 172.018 448.979 166.307L449.529 155.928C445.041 154.429 441.911 150.076 442.169 145.126C442.462 139.592 446.751 135.297 452.155 134.923C450.083 123.404 459.382 112.696 471.343 113.286C481.154 113.812 488.796 121.911 488.866 131.6C498.251 129.183 507.516 136.642 506.998 146.484C506.74 151.27 504.103 155.646 500.036 158.139C501.654 160.421 502.451 163.159 502.299 165.968C501.966 172.256 497.096 177.015 491.304 177.682C490.172 197.913 490.399 197.335 490.004 199.014C493.625 199.766 495.641 200.367 495.758 200.394C495.977 200.606 507.751 203.005 520.912 209.697C539.911 219.327 553.39 233.289 560.951 251.215C566.374 263.94 568.71 281.422 568.558 282.179C568.699 283.887 568.804 285.643 568.887 287.376C570.174 317.734 560.778 351.297 534.181 366.153L534.967 371.863C537.522 378.451 544.953 401.527 529.095 414.424C527.22 415.944 524.243 417.208 520.703 418.261H523.586C546.146 418.261 564.516 436.459 564.516 459.125C564.516 481.79 546.161 499.976 523.586 499.976H518.229L551.903 563.681H563.641C564.127 563.681 564.52 564.074 564.52 564.559C564.52 565.044 564.127 565.437 563.641 565.437H523.329C522.843 565.437 522.45 565.044 522.45 564.559C522.45 564.074 522.843 563.681 523.329 563.681H535.305L491.938 503.744L493.966 535.76C494.379 542.546 488.99 548.245 482.175 548.245H475.799L474.99 562.639C476.771 563.67 482.175 567.683 481.601 578.015V578.026C481.249 584.311 481.308 587.681 481.426 589.4C481.524 591.069 480.208 592.431 478.59 592.431L405.979 592.723C404.409 592.723 403.119 591.448 403.096 589.879V589.728C403.073 582.789 407.725 576.645 414.453 574.786C414.594 574.75 428.226 571.861 432.069 569.601C434.508 568.175 440.028 562.019 441.142 560.755L442.045 548.245H433.173C426.984 548.245 421.803 543.402 421.393 537.222C420.771 527.932 420.314 514.86 420.432 499.974H408.511L410.773 535.758C411.184 542.526 405.81 548.244 398.993 548.244H392.617L391.797 562.638C393.578 563.669 398.982 567.681 398.407 578.014V578.025C398.055 584.309 398.115 587.679 398.232 589.398C398.279 590.195 398.01 590.944 397.47 591.528C396.942 592.09 396.18 592.428 395.395 592.428L322.784 592.72C321.214 592.72 319.924 591.445 319.901 589.877V589.725C319.877 582.786 324.53 576.642 331.258 574.783C331.399 574.747 345.03 571.858 348.874 569.599C350.023 568.92 351.851 567.2 353.585 565.433H318.731C318.245 565.433 317.852 565.04 317.852 564.555C317.852 564.07 318.245 563.677 318.731 563.677L318.73 563.68ZM291.041 102.953C318.983 102.953 341.722 80.2506 341.722 52.354C341.722 24.4574 318.807 1.75474 291.041 1.75474C263.274 1.75474 240.359 24.5663 240.359 52.354C240.359 80.1417 263.655 102.953 291.041 102.953ZM119.082 276.351C212.674 239.384 207.645 139.497 203.872 109.763C203.557 107.228 201.123 105.481 198.562 106.042C163.266 113.733 136.382 104.701 120.536 89.0753C118.847 87.4018 116.105 87.4018 114.406 89.0753C105.931 97.4409 81.365 115.848 36.3799 106.042C33.8133 105.48 31.4095 107.224 31.0699 109.763C27.3076 139.497 22.2681 239.384 115.86 276.351C116.306 276.526 116.81 276.632 117.29 276.643H117.301C117.323 276.646 117.345 276.643 117.366 276.643C117.402 276.639 117.434 276.621 117.471 276.621C117.508 276.621 117.54 276.638 117.576 276.643C117.601 276.643 117.627 276.646 117.652 276.643C118.145 276.632 118.625 276.526 119.082 276.351ZM355.271 563.678C356.514 562.356 357.532 561.221 357.943 560.753L358.845 548.314L347.723 563.678C347.843 563.678 355.423 563.678 355.271 563.678ZM333.118 563.678H345.554L356.723 548.243H349.972C347.217 548.243 344.651 547.283 342.635 545.68L333.118 563.677V563.678ZM320.413 459.122C320.413 472.585 327.206 484.38 337.35 491.315C337.796 469.795 339.472 445.455 343.386 423.525C329.849 429.682 320.413 443.325 320.413 459.122ZM352.552 282.296C350.949 282.296 349.786 283.724 350.056 285.268L364.778 367.907C366.349 366.164 368.013 364.618 369.771 363.297C386.652 350.596 421.11 356.446 440.355 364.829C443.414 366.164 445.934 367.357 447.715 368.201C450.586 364.948 454.098 362.031 458.101 360.22C466.153 356.347 476.327 355.434 486.465 356.125C470.692 266.583 474.408 287.672 473.831 284.393C473.619 283.176 472.565 282.297 471.334 282.297H352.554L352.552 282.296ZM389.509 225.6C364.001 228.357 330.638 207.303 321.246 181.941C321.222 181.894 321.211 181.835 321.199 181.777C319.628 172.147 316.616 161.862 314.635 161.862H314.623C311.961 161.909 312.001 166.237 312.384 168.801V168.812L313.685 172.018C314.137 173.086 312.502 173.748 312.056 172.673C310.753 169.466 310.672 169.327 310.672 169.209C308.586 160.854 305.046 152.521 302.328 152.826C299.073 153.178 301.107 163.319 301.999 166.635C301.999 166.646 302.012 166.646 302.012 166.659L303.348 169.959C303.798 171.052 302.154 171.672 301.719 170.624L300.536 167.699C298.543 167.163 297.756 168.346 297.653 170.379L298.906 173.445C299.334 174.525 297.72 175.168 297.277 174.101L296.024 171.035C295.379 170.743 294.335 170.438 293.843 170.848C293.328 171.291 293.352 172.813 293.538 173.715V173.738L294.804 176.863C295.243 177.904 293.631 178.616 293.175 177.519L292.015 174.663C291.407 174.569 290.551 174.569 290.187 174.933C289.507 175.643 290.052 177.481 290.176 177.613C290.868 179.777 295.767 193.552 297.831 197.424C297.842 197.459 297.865 197.506 297.878 197.541C323.583 271.127 394.743 278.209 416.845 256.085C417.447 238.065 409.908 228.929 395.841 224.362C395.055 224.595 391.375 225.418 389.512 225.603L389.509 225.6ZM489.395 200.757C487.777 204.325 484.002 206.881 479.714 206.621C474.832 206.364 471.144 202.735 470.361 198.405C468.755 198.347 467.103 198.324 465.403 198.347C466.173 205.29 471.956 211.117 479.457 211.511C486.032 211.874 491.975 207.919 494.249 201.835C493.813 201.715 491.307 201.128 489.398 200.757H489.395ZM505.241 146.39C505.727 137.251 496.693 130.657 488.246 133.612C487.657 133.833 487.049 133.379 487.074 132.734L487.086 132.617C487.579 123.419 480.476 115.533 471.252 115.041C460.283 114.456 451.769 124.52 453.963 134.944C455.078 135.046 456.162 135.306 457.187 135.738C457.634 135.927 457.842 136.442 457.653 136.887C457.461 137.342 456.937 137.541 456.5 137.353C450.945 135.009 444.276 138.697 443.929 145.219C443.718 149.186 446.109 152.708 449.626 154.089L449.743 151.947C449.955 148.073 452.556 144.739 456.166 143.556C455.686 142.984 455.252 142.386 454.842 141.755C454.573 141.356 454.69 140.808 455.1 140.55C455.51 140.28 456.05 140.398 456.32 140.808C460.952 148.035 470.572 150.654 478.39 146.401C478.396 146.394 478.403 146.396 478.409 146.394C480.026 145.508 481.478 144.369 482.724 143.009C483.505 142.153 484.807 143.334 484.02 144.193C482.777 145.551 481.34 146.696 479.758 147.629C480.405 151.04 481.829 153.819 484.717 155.948C486.084 154.229 488.449 153.041 491.07 153.176C494.194 153.335 496.782 155.34 497.845 158.032C497.798 157.608 497.981 157.28 498.313 157.096C502.344 155.014 504.994 150.906 505.239 146.389L505.241 146.39ZM500.552 165.874C500.693 163.159 499.802 160.526 498.043 158.445C498.009 158.409 497.985 158.374 497.962 158.338C499.577 162.792 496.685 167.832 491.797 168.555C491.611 172.094 491.402 176.035 491.411 175.891C496.236 175.21 500.272 171.152 500.553 165.876L500.552 165.874ZM488.515 197.047L489.547 177.752L489.641 176.008C489.667 175.504 490.044 168.286 490.027 168.59C489.145 168.343 489.254 167.045 490.121 166.893C490.283 166.867 490.513 166.893 490.649 166.893C493.766 166.893 496.46 164.448 496.638 161.217C496.813 157.929 494.27 155.109 490.977 154.934C487.579 154.783 484.866 157.318 484.672 160.585C484.648 161.076 484.226 161.463 483.745 161.416C483.265 161.393 482.889 160.984 482.925 160.492C482.983 159.403 483.265 158.362 483.745 157.413C481.108 155.566 478.801 152.097 478.119 148.509C471.108 151.725 463.049 150.215 457.772 145.256C457.678 145.185 457.597 145.092 457.503 145.01C454.174 145.712 451.689 148.615 451.501 152.043L451.36 154.582C451.299 155.736 450.79 165.44 450.739 166.402C450.457 171.644 452.24 176.677 455.755 180.572C459.259 184.482 464.089 186.775 469.339 187.055C470.019 187.091 470.723 187.091 471.496 187.055H471.566C471.59 187.055 474.543 187.125 477.474 186.236C477.944 186.096 478.435 186.354 478.576 186.821C478.717 187.288 478.459 187.78 477.991 187.921C475.74 188.599 473.537 188.763 472.364 188.799C471.96 196.657 471.822 196.98 472.189 198.477V198.488C472.937 201.792 475.878 204.67 479.808 204.877C484.224 205.11 488.212 201.814 488.517 197.047H488.515ZM559.333 251.906C551.937 234.365 538.739 220.697 520.115 211.266C512.859 207.556 504.737 204.538 495.957 202.266C493.629 208.714 487.405 213.568 479.36 213.266C470.946 212.825 464.42 206.266 463.619 198.288C439.223 198.5 415.434 206.035 397.489 223.036C411.794 227.844 418.907 238.543 418.634 254.901C429.443 248.614 438.524 240.563 445.603 230.917C445.889 230.525 446.439 230.438 446.832 230.728C447.224 231.013 447.308 231.563 447.021 231.955C439.569 242.107 429.965 250.539 418.484 257.032L418.481 257.042L413.758 280.54H471.33C473.416 280.54 475.199 282.026 475.562 284.085L484.177 333C493.461 334.066 503.775 332.556 512.354 324.575C519.68 317.741 523.618 306.741 524.064 291.893C524.181 288.908 524.122 285.726 523.876 282.168V282.11C523.876 282.11 523.88 282.102 523.88 282.098C523.879 281.607 523.618 256.342 503.452 244.246C503.036 243.997 502.901 243.458 503.151 243.041C503.4 242.625 503.943 242.49 504.357 242.742C522.582 253.674 525.198 274.871 525.574 280.631C540.222 272.479 553.662 272.399 566.587 280.366C565.532 272.409 563.457 261.56 559.331 251.907L559.333 251.906ZM567.127 287.445C567.054 285.778 566.906 283.626 566.822 282.612C553.179 273.549 539.87 274.431 525.669 282.601C525.881 286.007 525.927 289.072 525.821 291.951C525.464 304.344 522.555 317.456 513.55 325.85C504.665 334.111 494.057 335.773 484.494 334.767L488.279 356.253C502.192 357.434 515.8 361.459 523.547 364.829C525.375 365.637 527.017 366.386 528.424 367.031C557.537 354.672 568.489 319.672 567.127 287.445ZM530.533 368.025C531.494 368.493 532.268 368.867 532.818 369.148L532.537 367.042C531.881 367.381 531.213 367.709 530.532 368.025H530.533ZM523.583 498.22C545.185 498.22 562.754 480.678 562.754 459.123C562.754 437.569 545.05 420.016 523.583 420.016H513.398C502.615 422.135 490.284 422.883 486.827 423.071L491.586 498.22H523.584H523.583ZM537.473 563.681H549.908L516.246 499.987H491.702L491.725 500.479L537.473 563.681ZM442.884 560.837V560.85C442.931 560.92 443.002 560.99 443.083 561.084C443.09 561.091 443.094 561.099 443.094 561.107C445.869 564.665 451.373 567.011 456.233 567.122C456.268 567.134 456.303 567.134 456.337 567.122C461.895 567.31 468.717 565.155 473.227 562.593L474.036 548.247H443.797L442.883 560.837H442.884ZM423.135 537.106C423.498 542.372 427.905 546.491 433.168 546.491H482.174C488.042 546.491 492.554 541.552 492.218 535.866C489.998 516.819 486.549 455.716 485.022 422.288C484.996 421.745 485.408 421.374 485.855 421.352C486.555 421.294 500.882 420.665 513.154 418.261C519.459 417.033 525.156 415.349 527.981 413.055C540.183 403.148 538.671 385.595 532.74 371.068C528.795 369.098 525.614 367.64 522.847 366.446C505.848 359.025 477.173 354.057 460.011 361.296C421.255 377.321 420.325 495.397 423.138 537.106H423.135ZM420.439 498.221C420.673 474.162 422.373 445.62 427.12 420.58C417.169 422.264 406.76 422.909 403.63 423.072L408.39 498.221H420.439ZM398.99 546.491C404.775 546.491 409.363 541.64 409.023 535.866C408.162 522.261 403.255 444.826 401.827 422.288C401.804 421.815 402.148 421.377 402.671 421.352C402.946 421.33 415.535 420.806 427.495 418.719C427.546 418.059 430.959 400.364 436.778 386.562C439.011 381.162 442.898 373.779 446.542 369.595C444.807 368.763 442.463 367.676 439.649 366.448C421.197 358.391 386.931 352.579 370.824 364.693C338.293 389.103 337.198 496.233 339.951 537.108C340.293 542.344 344.68 546.492 349.972 546.492C363.596 546.484 398.841 546.492 398.989 546.492L398.99 546.491ZM360.604 548.245L359.702 560.861C363.331 565.951 371.824 569.129 382.311 565.823C384.445 565.167 386.742 564.256 389.215 563.014C389.484 562.884 389.755 562.745 390.035 562.592L390.844 548.245H360.604Z" fill="#1F2937"/>
<path d="M428.586 330.427C428.747 335.075 425.29 338.641 420.604 338.641C415.628 338.641 410.927 334.618 410.148 329.606C409.342 324.561 412.839 320.292 418.013 320.292C423.186 320.292 428.405 325.062 428.584 330.427H428.586ZM411.884 329.339C412.529 333.494 416.443 336.886 420.604 336.886C424.158 336.886 426.75 334.326 426.816 330.941C427.051 326.615 422.864 322.047 418.014 322.047C414.198 322.047 411.249 325.004 411.884 329.338V329.339Z" fill="#1F2937"/>
<path d="M489.91 158.362C490.39 158.445 490.719 158.888 490.648 159.368C490.543 160.059 491.024 160.713 491.715 160.818C492.206 160.88 492.529 161.357 492.454 161.824C492.371 162.347 491.833 162.645 491.446 162.55C490.139 162.352 489.029 161.283 488.891 159.834C488.888 159.692 488.855 159.516 488.914 159.097C488.985 158.617 489.43 158.289 489.911 158.359L489.91 158.362Z" fill="#1F2937"/>
<path d="M469.175 160.492C470.089 160.549 470.804 161.323 470.745 162.246C470.698 163.171 469.912 163.873 468.998 163.814C468.072 163.767 467.369 162.982 467.416 162.07C467.474 161.145 468.248 160.443 469.173 160.49L469.175 160.492Z" fill="#1F2937"/>
<path d="M474.075 158.571C474.063 158.571 474.04 158.571 474.028 158.56L468.777 158.29C468.285 158.256 467.921 157.846 467.944 157.367C467.968 156.875 468.378 156.489 468.871 156.534L474.121 156.815C474.602 156.839 474.978 157.248 474.954 157.74C474.931 158.198 474.532 158.571 474.075 158.571Z" fill="#1F2937"/>
<path d="M454.981 159.742C455.908 159.788 456.611 160.573 456.564 161.496C456.517 162.409 455.731 163.11 454.806 163.064C453.892 163.017 453.188 162.232 453.235 161.321C453.282 160.396 454.067 159.693 454.981 159.74V159.742Z" fill="#1F2937"/>
<path d="M459.435 157.788C458.581 157.743 453.835 157.491 454.138 157.507C453.657 157.484 453.282 157.076 453.305 156.582C453.305 156.147 453.71 155.711 454.232 155.764C454.352 155.769 459.821 156.049 459.482 156.032C459.974 156.068 460.338 156.476 460.315 156.957C460.291 157.426 459.905 157.788 459.435 157.788Z" fill="#1F2937"/>
<path d="M464.253 169.245C464.135 169.238 462.22 169.133 462.342 169.14C460.807 169.065 459.785 167.515 460.29 166.098L462.412 159.895C462.577 159.438 463.081 159.193 463.538 159.357C463.995 159.509 464.24 160.013 464.076 160.469L461.943 166.671C461.83 167.028 462.086 167.363 462.436 167.396L464.3 167.49C464.78 167.513 465.156 167.923 465.132 168.415C465.109 168.883 464.722 169.246 464.253 169.246V169.245Z" fill="#1F2937"/>
<path d="M468.788 172.134C468.023 175.191 465.982 180.043 462.833 179.88C459.413 179.547 458.042 175.511 457.664 172.123C457.664 171.916 457.86 171.815 458.003 171.877C458.507 172.065 459.022 172.241 459.515 172.346C462.68 173.199 465.306 172.837 466.876 172.416C467.86 172.158 468.423 171.866 468.447 171.866C468.625 171.789 468.84 171.923 468.787 172.135L468.788 172.134Z" fill="#1F2937"/>
<path d="M521.849 80.58H438.935L422.291 95.5111H422.28C419.89 97.6118 416.185 95.8874 416.185 92.7612V80.58H410.23C403.549 80.58 398.11 75.1628 398.11 68.4788V20.3731C398.11 13.7029 403.549 8.27332 410.23 8.27332H521.849C528.541 8.27332 533.979 13.7029 533.979 20.3731V68.4788C533.979 75.1614 528.541 80.58 521.849 80.58ZM532.222 20.3731C532.222 14.6747 527.569 10.0294 521.849 10.0294H410.23C404.51 10.0294 399.868 14.6747 399.868 20.3731V68.4788C399.868 74.191 404.51 78.8239 410.23 78.8239H417.063C417.543 78.8239 417.942 79.2223 417.942 79.702V92.7598C417.942 94.4001 419.853 95.2864 421.119 94.2002L438.009 79.0569C438.173 78.9052 438.385 78.8239 438.594 78.8239H521.849C527.569 78.8239 532.222 74.1896 532.222 68.4788V20.3731Z" fill="#1F2937"/>
<path d="M516.78 29.0806H415.305C414.819 29.0806 414.425 28.6877 414.425 28.2025C414.425 27.7173 414.819 27.3245 415.305 27.3245H516.78C517.266 27.3245 517.66 27.7173 517.66 28.2025C517.66 28.6877 517.266 29.0806 516.78 29.0806Z" fill="#1F2937"/>
<path d="M516.78 45.3034H415.305C414.819 45.3034 414.425 44.9105 414.425 44.4253C414.425 43.9401 414.819 43.5472 415.305 43.5472H516.78C517.266 43.5472 517.66 43.9401 517.66 44.4253C517.66 44.9105 517.266 45.3034 516.78 45.3034Z" fill="#1F2937"/>
<path d="M516.78 61.5274H460.504C460.018 61.5274 459.625 61.1346 459.625 60.6494C459.625 60.1642 460.018 59.7713 460.504 59.7713H516.78C517.266 59.7713 517.66 60.1642 517.66 60.6494C517.66 61.1346 517.266 61.5274 516.78 61.5274Z" fill="#1F2937"/>
<path d="M15.5635 524.982C4.75285 519.611 3.38873 505.868 15.2114 497.846H15.2239C20.1694 494.669 25.6176 493.543 31.5047 492.943C41.0107 491.968 51.2566 493.086 56.0489 501.368C59.056 506.46 58.4969 508.726 68.6959 511.326C72.2884 512.227 76.0024 513.326 78.5649 515.807V515.818C88.3291 525.297 85.4213 543.247 84.4839 547.846V547.857C84.4839 547.857 84.4839 547.859 84.4839 547.861C87.948 554.235 90.9592 561.444 93.1158 569.532C91.1663 534.323 94.201 511.199 94.8472 506.821C94.8472 506.821 94.8472 506.821 94.8458 506.818V506.795C88.0363 496.953 83.429 487.417 80.7685 477.669V477.658C76.3752 461.571 78.663 444.152 91.4701 432.804C110.755 416.076 128.324 432.954 144.847 427.163H144.858C161.099 421.236 159.146 399.716 170.562 388.172C177.117 381.403 187.733 379.81 196.665 383.573C214.195 391 215.851 411.224 215.91 411.341C216.355 413.597 216.562 420.119 215.782 425.583C213.864 438.753 207.828 449.844 199.197 458.009C175.79 480.081 147.39 463.629 124.968 465.873C121.109 466.257 116.442 467.449 113.294 469.489C106.823 473.486 102.462 481.451 100.226 488.622C100.226 488.634 100.214 488.645 100.214 488.645C92.4338 512.375 93.7716 560.814 96.0732 585.656C97.6058 579.555 100.667 569.446 106.169 558.326C105.317 550.899 105.536 552.047 105.477 551.93C105.111 547.665 104.303 539.702 104.574 534.961C105.183 524.02 108.149 516.613 113.646 512.318C118.313 508.665 124.391 507.67 130.372 506.726C149.576 503.615 147.407 499.417 154.13 491.209C158.797 485.513 165.989 482.279 173.213 481.262C180.523 480.296 187.392 481.128 194.732 482.656C196.375 482.988 198.235 483.414 199.327 483.696C224.393 489.894 233.602 505.608 231.607 518.429C230.295 527.133 223.192 534.633 214.905 537.339C206.958 539.972 197.475 538.813 189.517 534.214C185.165 531.696 181.142 528.155 176.706 526.246C172.355 524.394 166.66 524.144 163.438 527.452C157.512 533.363 163.237 545.283 161.164 552.95C159.795 557.995 155.29 561.649 150.415 562.792C143.572 564.478 138.921 560.894 133.971 556.017C128.933 551.115 123.482 546.751 115.711 550.352C113.155 551.537 111.546 553.009 109.99 554.786C109.99 554.798 109.979 554.809 109.967 554.822C100.849 571.622 97.4429 587.027 96.6766 590.968H155.097C155.583 590.968 155.976 591.361 155.976 591.846C155.976 592.332 155.583 592.724 155.097 592.724H37.9925C37.5065 592.724 37.113 592.332 37.113 591.846C37.113 591.361 37.5065 590.968 37.9925 590.968H94.6912C93.7979 574.46 89.3162 560.745 83.3959 549.58H83.3614C83.0314 549.58 82.6158 549.29 82.5289 548.841C82.2044 546.882 77.3665 541.162 74.9917 539.327C72.6791 537.557 69.4042 538.005 69.2951 538.122C64.9708 538.966 62.5906 543.255 58.2193 544.546C53.3732 546.004 47.7856 542.474 46.9793 537.549C46.5058 534.744 47.4432 531.977 48.0576 529.275C49.6592 521.799 45.5103 517.282 34.9067 523.143C26.9941 527.466 20.6306 527.501 15.5677 524.98L15.5635 524.982ZM112.155 468.123C112.516 468.013 117.799 463.898 129.421 463.898C152.552 463.898 180.12 478.122 201.634 452.958C215.446 436.953 218.027 413.699 210.249 398.779C210.249 398.766 210.237 398.755 210.226 398.743C205.255 389.149 197.321 385.868 197.203 385.754C188.611 381.715 179.656 383.06 173.831 387.59C163.119 395.942 163.039 413.515 153.566 423.456C153.558 423.456 153.553 423.46 153.553 423.468C134.783 442.253 112.797 413.874 91.1152 435.533C82.0677 444.382 79.229 457.33 80.988 470.006V470.017C82.2665 479.312 86.4444 491.03 95.1592 504.127C95.1689 504.009 95.3125 502.744 95.3705 502.396C98.9078 472.079 112.314 448.737 142.692 443.554C162.039 440.254 174.937 433.209 181.029 422.616C187.968 410.548 183.361 397.943 183.314 397.818C183.143 397.364 183.373 396.858 183.826 396.687C184.28 396.512 184.787 396.744 184.958 397.199C185.164 397.743 189.912 410.667 182.567 423.466C176.206 434.55 162.889 441.89 142.987 445.285C123.985 448.527 110.686 459.345 103.228 477.546C105.474 474.608 107.045 471.347 112.154 468.122L112.155 468.123ZM103.224 477.56C103.22 477.569 103.217 477.578 103.213 477.587L103.224 477.567V477.56ZM135.199 554.764C139.959 559.402 143.532 562.471 150.026 561.084C154.327 560.042 158.26 556.883 159.461 552.494C161.726 544.247 154.978 533.465 162.18 526.211C166.115 522.288 172.408 522.461 177.406 524.632C182.176 526.702 186.032 530.176 190.405 532.706C197.572 536.818 206.347 538.27 214.351 535.677C222.519 533.044 228.659 525.783 229.87 518.16C232.79 499.34 213.252 488.458 194.367 484.376C187.456 482.926 180.496 482.031 173.446 483.007C165.909 484.084 159.522 487.395 155.489 492.321C148.673 500.772 150.216 505.378 130.652 508.47C124.968 509.36 119.096 510.285 114.723 513.701C109.648 517.668 106.906 524.652 106.332 535.057C106.062 539.972 107.023 549.988 107.574 555.149C107.984 554.465 108.371 553.991 108.53 553.78C123.633 526.097 147.282 507.171 178.245 501.551C179.393 501.347 179.702 503.072 178.56 503.278C143.943 509.561 123.781 531.671 112.714 550.017C112.714 550.014 112.714 550.01 112.72 550.01C121.306 544.473 128.119 547.835 135.201 554.761L135.199 554.764ZM34.0465 521.613C41.4028 517.519 48.1998 517.48 49.8704 523.661V523.685C51.6432 530.023 45.4978 536.07 50.7844 541.016C51.9773 542.131 53.5541 542.929 55.2965 543.098C55.3075 543.098 55.3075 543.109 55.3199 543.098C60.5195 543.622 63.3789 537.483 68.8464 536.417C70.5474 536.072 72.7716 536.202 74.8937 537.223H74.9048C75.515 537.528 75.8174 537.739 76.3103 538.158C62.5409 519.024 46.0984 510.369 45.8223 510.228C45.3902 510.006 45.2189 509.477 45.4412 509.047C45.6621 508.616 46.1923 508.445 46.6245 508.665C46.9434 508.829 68.4115 520.106 83.1101 545.425C84.673 536.137 84.1608 523.691 77.332 517.075C74.9821 514.785 71.4848 513.858 68.2485 513.038C56.3044 509.874 57.2736 506.377 54.1712 501.699C48.4262 492.951 33.0249 493.323 23.0164 496.268C6.18047 500.756 4.35246 518.007 16.6404 523.556C22.6132 526.231 28.3803 524.736 34.0465 521.614V521.613Z" fill="#1F2937"/>
<path d="M173.986 590.968H206.913C207.399 590.968 207.793 591.361 207.793 591.846C207.793 592.332 207.399 592.724 206.913 592.724H173.986C173.5 592.724 173.106 592.332 173.106 591.846C173.106 591.361 173.5 590.968 173.986 590.968Z" fill="#1F2937"/>
<path d="M1.86275 590.968H19.0756C19.5616 590.968 19.9551 591.361 19.9551 591.846C19.9551 592.332 19.5616 592.724 19.0756 592.724H1.86275C1.37675 592.724 0.983246 592.332 0.983246 591.846C0.983246 591.361 1.37675 590.968 1.86275 590.968Z" fill="#1F2937"/>
<path d="M460.737 177.744C461.208 178.33 461.843 178.771 462.65 178.909C462.745 178.925 462.828 178.931 462.912 178.935C463.927 178.989 464.75 178.363 465.393 177.501C464.922 176.915 464.287 176.474 463.481 176.337C463.386 176.32 463.303 176.316 463.219 176.31C462.204 176.257 461.381 176.882 460.737 177.744Z" fill="#FC6054"/>
<path d="M459.523 172.347C460.013 173.835 461.354 174.929 462.992 175.016C464.744 175.108 466.299 174.022 466.872 172.412C465.305 172.833 462.682 173.196 459.523 172.347Z" fill="white"/>
</svg>
