<svg width="969" height="1080" viewBox="0 0 969 1080" fill="none" xmlns="http://www.w3.org/2000/svg">
<rect width="969" height="1080" fill="#0079FF"/>
<path d="M449.256 888.85H452.117C452.13 889.423 452.306 889.882 452.645 890.227C452.99 890.572 453.439 890.744 453.992 890.744C454.611 890.744 455.079 890.559 455.398 890.188C455.724 889.816 455.887 889.276 455.887 888.566V878.908H458.836V888.586C458.836 890.077 458.413 891.236 457.566 892.062C456.72 892.883 455.538 893.293 454.021 893.293C452.583 893.293 451.427 892.889 450.555 892.082C449.689 891.275 449.256 890.197 449.256 888.85ZM469.646 891.779C468.715 892.743 467.452 893.225 465.857 893.225C464.262 893.225 462.999 892.74 462.068 891.77C461.137 890.799 460.672 889.462 460.672 887.756C460.672 886.07 461.141 884.742 462.078 883.771C463.022 882.795 464.282 882.307 465.857 882.307C467.439 882.307 468.699 882.795 469.637 883.771C470.574 884.742 471.043 886.07 471.043 887.756C471.043 889.468 470.577 890.809 469.646 891.779ZM465.857 891.047C466.561 891.047 467.117 890.76 467.527 890.188C467.938 889.615 468.143 888.807 468.143 887.766C468.143 886.737 467.938 885.933 467.527 885.354C467.117 884.774 466.561 884.484 465.857 884.484C465.154 884.484 464.594 884.774 464.178 885.354C463.768 885.933 463.562 886.737 463.562 887.766C463.562 888.807 463.768 889.615 464.178 890.188C464.588 890.76 465.148 891.047 465.857 891.047ZM472.566 893V882.531H475.418V893H472.566ZM475.076 880.949C474.783 881.236 474.422 881.379 473.992 881.379C473.562 881.379 473.201 881.236 472.908 880.949C472.615 880.663 472.469 880.314 472.469 879.904C472.469 879.488 472.615 879.139 472.908 878.859C473.201 878.573 473.562 878.43 473.992 878.43C474.422 878.43 474.783 878.573 475.076 878.859C475.369 879.139 475.516 879.488 475.516 879.904C475.516 880.314 475.369 880.663 475.076 880.949ZM477.322 893V882.531H480.076V884.396H480.135C480.421 883.732 480.838 883.225 481.385 882.873C481.938 882.515 482.612 882.336 483.406 882.336C484.565 882.336 485.46 882.681 486.092 883.371C486.723 884.061 487.039 885.021 487.039 886.252V893H484.188V886.848C484.188 886.158 484.025 885.627 483.699 885.256C483.374 884.885 482.895 884.699 482.264 884.699C481.632 884.699 481.124 884.911 480.74 885.334C480.363 885.757 480.174 886.311 480.174 886.994V893H477.322ZM502.479 882.531V893H499.725V891.115H499.666C499.119 892.502 498.074 893.195 496.531 893.195C495.385 893.195 494.471 892.847 493.787 892.15C493.104 891.447 492.762 890.49 492.762 889.279V882.531H495.613V888.684C495.613 889.38 495.779 889.911 496.111 890.275C496.45 890.64 496.935 890.822 497.566 890.822C498.198 890.822 498.699 890.614 499.07 890.197C499.441 889.781 499.627 889.224 499.627 888.527V882.531H502.479ZM504.158 885.607C504.158 884.611 504.559 883.814 505.359 883.215C506.16 882.609 507.231 882.307 508.572 882.307C509.881 882.307 510.932 882.613 511.727 883.225C512.521 883.837 512.928 884.65 512.947 885.666H510.32C510.288 885.243 510.112 884.911 509.793 884.67C509.48 884.429 509.061 884.309 508.533 884.309C508.038 884.309 507.641 884.413 507.342 884.621C507.049 884.823 506.902 885.093 506.902 885.432C506.902 885.939 507.358 886.301 508.27 886.516L510.271 886.945C511.32 887.18 512.072 887.521 512.527 887.971C512.99 888.413 513.221 889.025 513.221 889.807C513.221 890.835 512.791 891.662 511.932 892.287C511.072 892.912 509.949 893.225 508.562 893.225C507.182 893.225 506.079 892.919 505.252 892.307C504.425 891.695 503.973 890.871 503.895 889.836H506.678C506.749 890.279 506.951 890.62 507.283 890.861C507.622 891.102 508.074 891.223 508.641 891.223C509.181 891.223 509.604 891.125 509.91 890.93C510.223 890.728 510.379 890.454 510.379 890.109C510.379 889.842 510.281 889.631 510.086 889.475C509.891 889.312 509.559 889.175 509.09 889.064L507.156 888.635C505.158 888.179 504.158 887.17 504.158 885.607ZM515.418 878.908H518.348L518.113 888.361H515.652L515.418 878.908ZM518.006 892.805C517.7 893.098 517.326 893.244 516.883 893.244C516.44 893.244 516.062 893.098 515.75 892.805C515.444 892.505 515.291 892.141 515.291 891.711C515.291 891.281 515.444 890.92 515.75 890.627C516.062 890.327 516.44 890.178 516.883 890.178C517.326 890.178 517.7 890.327 518.006 890.627C518.318 890.92 518.475 891.281 518.475 891.711C518.475 892.141 518.318 892.505 518.006 892.805Z" fill="#E0EAFF"/>
<path d="M284.578 919.109H286.297C286.307 919.578 286.466 919.958 286.773 920.25C287.086 920.542 287.487 920.688 287.977 920.688C288.549 920.688 288.987 920.521 289.289 920.188C289.596 919.849 289.75 919.357 289.75 918.711V910.727H291.5V918.719C291.5 919.833 291.19 920.701 290.57 921.32C289.951 921.94 289.091 922.25 287.992 922.25C286.977 922.25 286.154 921.961 285.523 921.383C284.893 920.805 284.578 920.047 284.578 919.109ZM300.445 913.781V922H298.828V920.609H298.789C298.315 921.635 297.466 922.148 296.242 922.148C295.346 922.148 294.641 921.878 294.125 921.336C293.615 920.789 293.359 920.044 293.359 919.102V913.781H295.047V918.773C295.047 919.404 295.195 919.883 295.492 920.211C295.789 920.534 296.227 920.695 296.805 920.695C297.409 920.695 297.885 920.503 298.234 920.117C298.583 919.732 298.758 919.216 298.758 918.57V913.781H300.445ZM301.969 916.109C301.969 915.375 302.266 914.779 302.859 914.32C303.453 913.862 304.229 913.633 305.188 913.633C306.099 913.633 306.846 913.865 307.43 914.328C308.018 914.786 308.326 915.383 308.352 916.117H306.766C306.724 915.742 306.56 915.448 306.273 915.234C305.987 915.021 305.609 914.914 305.141 914.914C304.682 914.914 304.312 915.016 304.031 915.219C303.755 915.422 303.617 915.685 303.617 916.008C303.617 916.508 304.036 916.862 304.875 917.07L306.258 917.391C307.086 917.589 307.672 917.859 308.016 918.203C308.365 918.542 308.539 919.016 308.539 919.625C308.539 920.375 308.221 920.984 307.586 921.453C306.956 921.922 306.135 922.156 305.125 922.156C304.161 922.156 303.375 921.927 302.766 921.469C302.161 921.01 301.826 920.401 301.758 919.641H303.43C303.497 920.036 303.682 920.341 303.984 920.555C304.286 920.763 304.693 920.867 305.203 920.867C305.708 920.867 306.107 920.771 306.398 920.578C306.695 920.38 306.844 920.115 306.844 919.781C306.844 919.516 306.755 919.305 306.578 919.148C306.401 918.992 306.099 918.859 305.672 918.75L304.203 918.391C302.714 918.031 301.969 917.271 301.969 916.109ZM310.344 911.836H312.039V913.781H313.602V915.117H312.039V919.648C312.039 920.003 312.12 920.263 312.281 920.43C312.443 920.596 312.695 920.68 313.039 920.68C313.289 920.68 313.474 920.667 313.594 920.641V921.977C313.385 922.029 313.073 922.055 312.656 922.055C311.828 922.055 311.234 921.885 310.875 921.547C310.521 921.203 310.344 920.633 310.344 919.836V915.117H309.148V913.781H310.344V911.836ZM321.742 920.633C322.404 920.633 322.932 920.383 323.328 919.883C323.729 919.383 323.93 918.711 323.93 917.867C323.93 917.023 323.729 916.346 323.328 915.836C322.932 915.326 322.404 915.07 321.742 915.07C321.091 915.07 320.57 915.323 320.18 915.828C319.794 916.333 319.602 917.013 319.602 917.867C319.602 918.721 319.794 919.396 320.18 919.891C320.57 920.385 321.091 920.633 321.742 920.633ZM321.758 925.094C320.799 925.094 319.987 924.865 319.32 924.406C318.659 923.948 318.276 923.359 318.172 922.641H319.867C319.987 922.984 320.221 923.26 320.57 923.469C320.924 923.677 321.341 923.781 321.82 923.781C322.471 923.781 322.984 923.609 323.359 923.266C323.734 922.927 323.922 922.474 323.922 921.906V920.555H323.891C323.656 921.008 323.307 921.367 322.844 921.633C322.385 921.898 321.867 922.031 321.289 922.031C320.253 922.031 319.424 921.656 318.805 920.906C318.185 920.151 317.875 919.135 317.875 917.859C317.875 916.568 318.185 915.544 318.805 914.789C319.43 914.029 320.271 913.648 321.328 913.648C321.906 913.648 322.424 913.786 322.883 914.062C323.341 914.333 323.695 914.708 323.945 915.188H323.977V913.781H325.617V921.852C325.617 922.831 325.266 923.615 324.562 924.203C323.865 924.797 322.93 925.094 321.758 925.094ZM333.656 921.016C332.948 921.776 332.003 922.156 330.82 922.156C329.638 922.156 328.693 921.776 327.984 921.016C327.276 920.25 326.922 919.208 326.922 917.891C326.922 916.578 327.276 915.542 327.984 914.781C328.693 914.016 329.638 913.633 330.82 913.633C332.003 913.633 332.948 914.016 333.656 914.781C334.365 915.542 334.719 916.578 334.719 917.891C334.719 919.208 334.365 920.25 333.656 921.016ZM330.82 920.766C331.492 920.766 332.023 920.513 332.414 920.008C332.805 919.503 333 918.797 333 917.891C333 916.99 332.802 916.286 332.406 915.781C332.016 915.276 331.487 915.023 330.82 915.023C330.154 915.023 329.622 915.276 329.227 915.781C328.836 916.286 328.641 916.99 328.641 917.891C328.641 918.797 328.836 919.503 329.227 920.008C329.622 920.513 330.154 920.766 330.82 920.766ZM339.766 911.836H341.461V913.781H343.023V915.117H341.461V919.648C341.461 920.003 341.542 920.263 341.703 920.43C341.865 920.596 342.117 920.68 342.461 920.68C342.711 920.68 342.896 920.667 343.016 920.641V921.977C342.807 922.029 342.495 922.055 342.078 922.055C341.25 922.055 340.656 921.885 340.297 921.547C339.943 921.203 339.766 920.633 339.766 919.836V915.117H338.57V913.781H339.766V911.836ZM344.477 922V910.727H346.148V915.156H346.188C346.417 914.672 346.753 914.299 347.195 914.039C347.638 913.773 348.169 913.641 348.789 913.641C349.685 913.641 350.388 913.917 350.898 914.469C351.414 915.021 351.672 915.766 351.672 916.703V922H349.977V917.031C349.977 916.417 349.823 915.94 349.516 915.602C349.214 915.263 348.768 915.094 348.18 915.094C347.56 915.094 347.068 915.292 346.703 915.688C346.344 916.078 346.164 916.599 346.164 917.25V922H344.477ZM353.305 922V913.781H354.914V915.18H354.953C355.089 914.701 355.331 914.326 355.68 914.055C356.029 913.784 356.445 913.648 356.93 913.648C357.091 913.648 357.284 913.669 357.508 913.711V915.281C357.357 915.219 357.104 915.188 356.75 915.188C356.208 915.188 355.779 915.357 355.461 915.695C355.148 916.034 354.992 916.495 354.992 917.078V922H353.305ZM364.562 921.016C363.854 921.776 362.909 922.156 361.727 922.156C360.544 922.156 359.599 921.776 358.891 921.016C358.182 920.25 357.828 919.208 357.828 917.891C357.828 916.578 358.182 915.542 358.891 914.781C359.599 914.016 360.544 913.633 361.727 913.633C362.909 913.633 363.854 914.016 364.562 914.781C365.271 915.542 365.625 916.578 365.625 917.891C365.625 919.208 365.271 920.25 364.562 921.016ZM361.727 920.766C362.398 920.766 362.93 920.513 363.32 920.008C363.711 919.503 363.906 918.797 363.906 917.891C363.906 916.99 363.708 916.286 363.312 915.781C362.922 915.276 362.393 915.023 361.727 915.023C361.06 915.023 360.529 915.276 360.133 915.781C359.742 916.286 359.547 916.99 359.547 917.891C359.547 918.797 359.742 919.503 360.133 920.008C360.529 920.513 361.06 920.766 361.727 920.766ZM373.977 913.781V922H372.359V920.609H372.32C371.846 921.635 370.997 922.148 369.773 922.148C368.878 922.148 368.172 921.878 367.656 921.336C367.146 920.789 366.891 920.044 366.891 919.102V913.781H368.578V918.773C368.578 919.404 368.727 919.883 369.023 920.211C369.32 920.534 369.758 920.695 370.336 920.695C370.94 920.695 371.417 920.503 371.766 920.117C372.115 919.732 372.289 919.216 372.289 918.57V913.781H373.977ZM379.148 920.633C379.81 920.633 380.339 920.383 380.734 919.883C381.135 919.383 381.336 918.711 381.336 917.867C381.336 917.023 381.135 916.346 380.734 915.836C380.339 915.326 379.81 915.07 379.148 915.07C378.497 915.07 377.977 915.323 377.586 915.828C377.201 916.333 377.008 917.013 377.008 917.867C377.008 918.721 377.201 919.396 377.586 919.891C377.977 920.385 378.497 920.633 379.148 920.633ZM379.164 925.094C378.206 925.094 377.393 924.865 376.727 924.406C376.065 923.948 375.682 923.359 375.578 922.641H377.273C377.393 922.984 377.628 923.26 377.977 923.469C378.331 923.677 378.747 923.781 379.227 923.781C379.878 923.781 380.391 923.609 380.766 923.266C381.141 922.927 381.328 922.474 381.328 921.906V920.555H381.297C381.062 921.008 380.714 921.367 380.25 921.633C379.792 921.898 379.273 922.031 378.695 922.031C377.659 922.031 376.831 921.656 376.211 920.906C375.591 920.151 375.281 919.135 375.281 917.859C375.281 916.568 375.591 915.544 376.211 914.789C376.836 914.029 377.677 913.648 378.734 913.648C379.312 913.648 379.831 913.786 380.289 914.062C380.747 914.333 381.102 914.708 381.352 915.188H381.383V913.781H383.023V921.852C383.023 922.831 382.672 923.615 381.969 924.203C381.271 924.797 380.336 925.094 379.164 925.094ZM384.758 922V910.727H386.43V915.156H386.469C386.698 914.672 387.034 914.299 387.477 914.039C387.919 913.773 388.451 913.641 389.07 913.641C389.966 913.641 390.669 913.917 391.18 914.469C391.695 915.021 391.953 915.766 391.953 916.703V922H390.258V917.031C390.258 916.417 390.104 915.94 389.797 915.602C389.495 915.263 389.049 915.094 388.461 915.094C387.841 915.094 387.349 915.292 386.984 915.688C386.625 916.078 386.445 916.599 386.445 917.25V922H384.758ZM397.328 911.836H399.023V913.781H400.586V915.117H399.023V919.648C399.023 920.003 399.104 920.263 399.266 920.43C399.427 920.596 399.68 920.68 400.023 920.68C400.273 920.68 400.458 920.667 400.578 920.641V921.977C400.37 922.029 400.057 922.055 399.641 922.055C398.812 922.055 398.219 921.885 397.859 921.547C397.505 921.203 397.328 920.633 397.328 919.836V915.117H396.133V913.781H397.328V911.836ZM402.039 922V910.727H403.711V915.156H403.75C403.979 914.672 404.315 914.299 404.758 914.039C405.201 913.773 405.732 913.641 406.352 913.641C407.247 913.641 407.951 913.917 408.461 914.469C408.977 915.021 409.234 915.766 409.234 916.703V922H407.539V917.031C407.539 916.417 407.385 915.94 407.078 915.602C406.776 915.263 406.331 915.094 405.742 915.094C405.122 915.094 404.63 915.292 404.266 915.688C403.906 916.078 403.727 916.599 403.727 917.25V922H402.039ZM415.734 915.586C415.365 915.19 414.888 914.992 414.305 914.992C413.721 914.992 413.237 915.193 412.852 915.594C412.466 915.99 412.253 916.503 412.211 917.133H416.32C416.299 916.497 416.104 915.982 415.734 915.586ZM416.312 919.586H417.914C417.794 920.341 417.409 920.958 416.758 921.438C416.107 921.917 415.312 922.156 414.375 922.156C413.172 922.156 412.224 921.779 411.531 921.023C410.844 920.263 410.5 919.232 410.5 917.93C410.5 916.638 410.844 915.599 411.531 914.812C412.224 914.026 413.148 913.633 414.305 913.633C415.44 913.633 416.341 914.005 417.008 914.75C417.674 915.49 418.008 916.484 418.008 917.734V918.312H412.203V918.414C412.203 919.133 412.404 919.708 412.805 920.141C413.206 920.573 413.742 920.789 414.414 920.789C414.888 920.789 415.294 920.68 415.633 920.461C415.971 920.242 416.198 919.951 416.312 919.586ZM426.945 922.141C426.352 922.141 425.828 922.005 425.375 921.734C424.922 921.464 424.565 921.086 424.305 920.602H424.273V922H422.633V910.727H424.32V915.18H424.359C424.609 914.701 424.958 914.326 425.406 914.055C425.859 913.784 426.375 913.648 426.953 913.648C427.99 913.648 428.818 914.031 429.438 914.797C430.062 915.562 430.375 916.594 430.375 917.891C430.375 919.193 430.065 920.227 429.445 920.992C428.826 921.758 427.992 922.141 426.945 922.141ZM426.492 915.07C425.846 915.07 425.32 915.331 424.914 915.852C424.513 916.367 424.312 917.047 424.312 917.891C424.312 918.74 424.513 919.422 424.914 919.938C425.32 920.453 425.846 920.711 426.492 920.711C427.154 920.711 427.677 920.458 428.062 919.953C428.448 919.448 428.641 918.76 428.641 917.891C428.641 917.026 428.448 916.341 428.062 915.836C427.677 915.326 427.154 915.07 426.492 915.07ZM438.062 921.016C437.354 921.776 436.409 922.156 435.227 922.156C434.044 922.156 433.099 921.776 432.391 921.016C431.682 920.25 431.328 919.208 431.328 917.891C431.328 916.578 431.682 915.542 432.391 914.781C433.099 914.016 434.044 913.633 435.227 913.633C436.409 913.633 437.354 914.016 438.062 914.781C438.771 915.542 439.125 916.578 439.125 917.891C439.125 919.208 438.771 920.25 438.062 921.016ZM435.227 920.766C435.898 920.766 436.43 920.513 436.82 920.008C437.211 919.503 437.406 918.797 437.406 917.891C437.406 916.99 437.208 916.286 436.812 915.781C436.422 915.276 435.893 915.023 435.227 915.023C434.56 915.023 434.029 915.276 433.633 915.781C433.242 916.286 433.047 916.99 433.047 917.891C433.047 918.797 433.242 919.503 433.633 920.008C434.029 920.513 434.56 920.766 435.227 920.766ZM440.43 922V913.781H442.039V915.18H442.078C442.214 914.701 442.456 914.326 442.805 914.055C443.154 913.784 443.57 913.648 444.055 913.648C444.216 913.648 444.409 913.669 444.633 913.711V915.281C444.482 915.219 444.229 915.188 443.875 915.188C443.333 915.188 442.904 915.357 442.586 915.695C442.273 916.034 442.117 916.495 442.117 917.078V922H440.43ZM445.734 922V913.781H447.422V922H445.734ZM447.273 912.297C447.081 912.484 446.849 912.578 446.578 912.578C446.307 912.578 446.076 912.484 445.883 912.297C445.695 912.109 445.602 911.883 445.602 911.617C445.602 911.346 445.695 911.117 445.883 910.93C446.076 910.742 446.307 910.648 446.578 910.648C446.854 910.648 447.086 910.742 447.273 910.93C447.466 911.117 447.562 911.346 447.562 911.617C447.562 911.883 447.466 912.109 447.273 912.297ZM449.148 922V913.781H450.758V915.156H450.797C451.026 914.677 451.359 914.305 451.797 914.039C452.234 913.773 452.763 913.641 453.383 913.641C454.284 913.641 454.984 913.911 455.484 914.453C455.984 914.99 456.234 915.732 456.234 916.68V922H454.539V917.008C454.539 916.383 454.391 915.909 454.094 915.586C453.802 915.258 453.367 915.094 452.789 915.094C452.195 915.094 451.721 915.286 451.367 915.672C451.013 916.057 450.836 916.57 450.836 917.211V922H449.148ZM461.367 920.633C462.029 920.633 462.557 920.383 462.953 919.883C463.354 919.383 463.555 918.711 463.555 917.867C463.555 917.023 463.354 916.346 462.953 915.836C462.557 915.326 462.029 915.07 461.367 915.07C460.716 915.07 460.195 915.323 459.805 915.828C459.419 916.333 459.227 917.013 459.227 917.867C459.227 918.721 459.419 919.396 459.805 919.891C460.195 920.385 460.716 920.633 461.367 920.633ZM461.383 925.094C460.424 925.094 459.612 924.865 458.945 924.406C458.284 923.948 457.901 923.359 457.797 922.641H459.492C459.612 922.984 459.846 923.26 460.195 923.469C460.549 923.677 460.966 923.781 461.445 923.781C462.096 923.781 462.609 923.609 462.984 923.266C463.359 922.927 463.547 922.474 463.547 921.906V920.555H463.516C463.281 921.008 462.932 921.367 462.469 921.633C462.01 921.898 461.492 922.031 460.914 922.031C459.878 922.031 459.049 921.656 458.43 920.906C457.81 920.151 457.5 919.135 457.5 917.859C457.5 916.568 457.81 915.544 458.43 914.789C459.055 914.029 459.896 913.648 460.953 913.648C461.531 913.648 462.049 913.786 462.508 914.062C462.966 914.333 463.32 914.708 463.57 915.188H463.602V913.781H465.242V921.852C465.242 922.831 464.891 923.615 464.188 924.203C463.49 924.797 462.555 925.094 461.383 925.094ZM474.445 913.648C475.492 913.648 476.331 914.031 476.961 914.797C477.591 915.562 477.906 916.594 477.906 917.891C477.906 919.188 477.594 920.221 476.969 920.992C476.344 921.758 475.513 922.141 474.477 922.141C473.893 922.141 473.375 922.008 472.922 921.742C472.474 921.477 472.13 921.112 471.891 920.648H471.852V924.719H470.164V913.781H471.797V915.195H471.828C472.073 914.716 472.424 914.339 472.883 914.062C473.341 913.786 473.862 913.648 474.445 913.648ZM474 920.711C474.667 920.711 475.195 920.458 475.586 919.953C475.977 919.443 476.172 918.755 476.172 917.891C476.172 917.031 475.977 916.346 475.586 915.836C475.195 915.326 474.667 915.07 474 915.07C473.354 915.07 472.833 915.328 472.438 915.844C472.042 916.359 471.844 917.042 471.844 917.891C471.844 918.745 472.039 919.43 472.43 919.945C472.826 920.456 473.349 920.711 474 920.711ZM479.211 922V913.781H480.82V915.18H480.859C480.995 914.701 481.237 914.326 481.586 914.055C481.935 913.784 482.352 913.648 482.836 913.648C482.997 913.648 483.19 913.669 483.414 913.711V915.281C483.263 915.219 483.01 915.188 482.656 915.188C482.115 915.188 481.685 915.357 481.367 915.695C481.055 916.034 480.898 916.495 480.898 917.078V922H479.211ZM490.469 921.016C489.76 921.776 488.815 922.156 487.633 922.156C486.451 922.156 485.505 921.776 484.797 921.016C484.089 920.25 483.734 919.208 483.734 917.891C483.734 916.578 484.089 915.542 484.797 914.781C485.505 914.016 486.451 913.633 487.633 913.633C488.815 913.633 489.76 914.016 490.469 914.781C491.177 915.542 491.531 916.578 491.531 917.891C491.531 919.208 491.177 920.25 490.469 921.016ZM487.633 920.766C488.305 920.766 488.836 920.513 489.227 920.008C489.617 919.503 489.812 918.797 489.812 917.891C489.812 916.99 489.615 916.286 489.219 915.781C488.828 915.276 488.299 915.023 487.633 915.023C486.966 915.023 486.435 915.276 486.039 915.781C485.648 916.286 485.453 916.99 485.453 917.891C485.453 918.797 485.648 919.503 486.039 920.008C486.435 920.513 486.966 920.766 487.633 920.766ZM499.891 916.609H498.281C498.193 916.146 497.979 915.768 497.641 915.477C497.307 915.185 496.878 915.039 496.352 915.039C495.695 915.039 495.169 915.297 494.773 915.812C494.383 916.323 494.188 917.016 494.188 917.891C494.188 918.781 494.383 919.479 494.773 919.984C495.169 920.49 495.701 920.742 496.367 920.742C496.883 920.742 497.305 920.609 497.633 920.344C497.966 920.073 498.182 919.698 498.281 919.219H499.906C499.818 920.099 499.448 920.81 498.797 921.352C498.151 921.888 497.336 922.156 496.352 922.156C495.169 922.156 494.227 921.776 493.523 921.016C492.82 920.25 492.469 919.208 492.469 917.891C492.469 916.589 492.82 915.555 493.523 914.789C494.227 914.018 495.164 913.633 496.336 913.633C497.357 913.633 498.185 913.919 498.82 914.492C499.456 915.06 499.812 915.766 499.891 916.609ZM505.969 915.586C505.599 915.19 505.122 914.992 504.539 914.992C503.956 914.992 503.471 915.193 503.086 915.594C502.701 915.99 502.487 916.503 502.445 917.133H506.555C506.534 916.497 506.339 915.982 505.969 915.586ZM506.547 919.586H508.148C508.029 920.341 507.643 920.958 506.992 921.438C506.341 921.917 505.547 922.156 504.609 922.156C503.406 922.156 502.458 921.779 501.766 921.023C501.078 920.263 500.734 919.232 500.734 917.93C500.734 916.638 501.078 915.599 501.766 914.812C502.458 914.026 503.383 913.633 504.539 913.633C505.674 913.633 506.576 914.005 507.242 914.75C507.909 915.49 508.242 916.484 508.242 917.734V918.312H502.438V918.414C502.438 919.133 502.638 919.708 503.039 920.141C503.44 920.573 503.977 920.789 504.648 920.789C505.122 920.789 505.529 920.68 505.867 920.461C506.206 920.242 506.432 919.951 506.547 919.586ZM509.406 916.109C509.406 915.375 509.703 914.779 510.297 914.32C510.891 913.862 511.667 913.633 512.625 913.633C513.536 913.633 514.284 913.865 514.867 914.328C515.456 914.786 515.763 915.383 515.789 916.117H514.203C514.161 915.742 513.997 915.448 513.711 915.234C513.424 915.021 513.047 914.914 512.578 914.914C512.12 914.914 511.75 915.016 511.469 915.219C511.193 915.422 511.055 915.685 511.055 916.008C511.055 916.508 511.474 916.862 512.312 917.07L513.695 917.391C514.523 917.589 515.109 917.859 515.453 918.203C515.802 918.542 515.977 919.016 515.977 919.625C515.977 920.375 515.659 920.984 515.023 921.453C514.393 921.922 513.573 922.156 512.562 922.156C511.599 922.156 510.812 921.927 510.203 921.469C509.599 921.01 509.263 920.401 509.195 919.641H510.867C510.935 920.036 511.12 920.341 511.422 920.555C511.724 920.763 512.13 920.867 512.641 920.867C513.146 920.867 513.544 920.771 513.836 920.578C514.133 920.38 514.281 920.115 514.281 919.781C514.281 919.516 514.193 919.305 514.016 919.148C513.839 918.992 513.536 918.859 513.109 918.75L511.641 918.391C510.151 918.031 509.406 917.271 509.406 916.109ZM517.141 916.109C517.141 915.375 517.438 914.779 518.031 914.32C518.625 913.862 519.401 913.633 520.359 913.633C521.271 913.633 522.018 913.865 522.602 914.328C523.19 914.786 523.497 915.383 523.523 916.117H521.938C521.896 915.742 521.732 915.448 521.445 915.234C521.159 915.021 520.781 914.914 520.312 914.914C519.854 914.914 519.484 915.016 519.203 915.219C518.927 915.422 518.789 915.685 518.789 916.008C518.789 916.508 519.208 916.862 520.047 917.07L521.43 917.391C522.258 917.589 522.844 917.859 523.188 918.203C523.536 918.542 523.711 919.016 523.711 919.625C523.711 920.375 523.393 920.984 522.758 921.453C522.128 921.922 521.307 922.156 520.297 922.156C519.333 922.156 518.547 921.927 517.938 921.469C517.333 921.01 516.997 920.401 516.93 919.641H518.602C518.669 920.036 518.854 920.341 519.156 920.555C519.458 920.763 519.865 920.867 520.375 920.867C520.88 920.867 521.279 920.771 521.57 920.578C521.867 920.38 522.016 920.115 522.016 919.781C522.016 919.516 521.927 919.305 521.75 919.148C521.573 918.992 521.271 918.859 520.844 918.75L519.375 918.391C517.885 918.031 517.141 917.271 517.141 916.109ZM534.641 921.016C533.932 921.776 532.987 922.156 531.805 922.156C530.622 922.156 529.677 921.776 528.969 921.016C528.26 920.25 527.906 919.208 527.906 917.891C527.906 916.578 528.26 915.542 528.969 914.781C529.677 914.016 530.622 913.633 531.805 913.633C532.987 913.633 533.932 914.016 534.641 914.781C535.349 915.542 535.703 916.578 535.703 917.891C535.703 919.208 535.349 920.25 534.641 921.016ZM531.805 920.766C532.477 920.766 533.008 920.513 533.398 920.008C533.789 919.503 533.984 918.797 533.984 917.891C533.984 916.99 533.786 916.286 533.391 915.781C533 915.276 532.471 915.023 531.805 915.023C531.138 915.023 530.607 915.276 530.211 915.781C529.82 916.286 529.625 916.99 529.625 917.891C529.625 918.797 529.82 919.503 530.211 920.008C530.607 920.513 531.138 920.766 531.805 920.766ZM537.5 922V915.117H536.367V913.797H537.5V912.992C537.5 912.19 537.695 911.599 538.086 911.219C538.477 910.839 539.089 910.648 539.922 910.648C540.26 910.648 540.576 910.674 540.867 910.727V911.977C540.701 911.945 540.495 911.93 540.25 911.93C539.531 911.93 539.172 912.294 539.172 913.023V913.797H540.836V915.117H539.195V922H537.5ZM552.469 916.609H550.859C550.771 916.146 550.557 915.768 550.219 915.477C549.885 915.185 549.456 915.039 548.93 915.039C548.273 915.039 547.747 915.297 547.352 915.812C546.961 916.323 546.766 917.016 546.766 917.891C546.766 918.781 546.961 919.479 547.352 919.984C547.747 920.49 548.279 920.742 548.945 920.742C549.461 920.742 549.883 920.609 550.211 920.344C550.544 920.073 550.76 919.698 550.859 919.219H552.484C552.396 920.099 552.026 920.81 551.375 921.352C550.729 921.888 549.914 922.156 548.93 922.156C547.747 922.156 546.805 921.776 546.102 921.016C545.398 920.25 545.047 919.208 545.047 917.891C545.047 916.589 545.398 915.555 546.102 914.789C546.805 914.018 547.742 913.633 548.914 913.633C549.935 913.633 550.763 913.919 551.398 914.492C552.034 915.06 552.391 915.766 552.469 916.609ZM553.68 922V913.781H555.289V915.18H555.328C555.464 914.701 555.706 914.326 556.055 914.055C556.404 913.784 556.82 913.648 557.305 913.648C557.466 913.648 557.659 913.669 557.883 913.711V915.281C557.732 915.219 557.479 915.188 557.125 915.188C556.583 915.188 556.154 915.357 555.836 915.695C555.523 916.034 555.367 916.495 555.367 917.078V922H553.68ZM563.438 915.586C563.068 915.19 562.591 914.992 562.008 914.992C561.424 914.992 560.94 915.193 560.555 915.594C560.169 915.99 559.956 916.503 559.914 917.133H564.023C564.003 916.497 563.807 915.982 563.438 915.586ZM564.016 919.586H565.617C565.497 920.341 565.112 920.958 564.461 921.438C563.81 921.917 563.016 922.156 562.078 922.156C560.875 922.156 559.927 921.779 559.234 921.023C558.547 920.263 558.203 919.232 558.203 917.93C558.203 916.638 558.547 915.599 559.234 914.812C559.927 914.026 560.852 913.633 562.008 913.633C563.143 913.633 564.044 914.005 564.711 914.75C565.378 915.49 565.711 916.484 565.711 917.734V918.312H559.906V918.414C559.906 919.133 560.107 919.708 560.508 920.141C560.909 920.573 561.445 920.789 562.117 920.789C562.591 920.789 562.997 920.68 563.336 920.461C563.674 920.242 563.901 919.951 564.016 919.586ZM569.898 920.805C570.492 920.805 570.99 920.625 571.391 920.266C571.797 919.901 572 919.453 572 918.922V918.273L569.977 918.398C569.471 918.435 569.081 918.56 568.805 918.773C568.534 918.982 568.398 919.263 568.398 919.617C568.398 919.977 568.534 920.266 568.805 920.484C569.081 920.698 569.445 920.805 569.898 920.805ZM569.43 922.141C568.622 922.141 567.964 921.911 567.453 921.453C566.948 920.995 566.695 920.398 566.695 919.664C566.695 918.945 566.961 918.375 567.492 917.953C568.023 917.526 568.776 917.286 569.75 917.234L572 917.102V916.469C572 916.01 571.854 915.654 571.562 915.398C571.271 915.138 570.867 915.008 570.352 915.008C569.872 915.008 569.482 915.115 569.18 915.328C568.883 915.542 568.695 915.836 568.617 916.211H567.023C567.07 915.451 567.398 914.831 568.008 914.352C568.617 913.872 569.419 913.633 570.414 913.633C571.409 913.633 572.201 913.878 572.789 914.367C573.383 914.857 573.68 915.513 573.68 916.336V922H572.062V920.648H572.023C571.789 921.102 571.432 921.464 570.953 921.734C570.479 922.005 569.971 922.141 569.43 922.141ZM575.812 911.836H577.508V913.781H579.07V915.117H577.508V919.648C577.508 920.003 577.589 920.263 577.75 920.43C577.911 920.596 578.164 920.68 578.508 920.68C578.758 920.68 578.943 920.667 579.062 920.641V921.977C578.854 922.029 578.542 922.055 578.125 922.055C577.297 922.055 576.703 921.885 576.344 921.547C575.99 921.203 575.812 920.633 575.812 919.836V915.117H574.617V913.781H575.812V911.836ZM580.516 922V913.781H582.203V922H580.516ZM582.055 912.297C581.862 912.484 581.63 912.578 581.359 912.578C581.089 912.578 580.857 912.484 580.664 912.297C580.477 912.109 580.383 911.883 580.383 911.617C580.383 911.346 580.477 911.117 580.664 910.93C580.857 910.742 581.089 910.648 581.359 910.648C581.635 910.648 581.867 910.742 582.055 910.93C582.247 911.117 582.344 911.346 582.344 911.617C582.344 911.883 582.247 912.109 582.055 912.297ZM583.93 922V913.781H585.539V915.156H585.578C585.807 914.677 586.141 914.305 586.578 914.039C587.016 913.773 587.544 913.641 588.164 913.641C589.065 913.641 589.766 913.911 590.266 914.453C590.766 914.99 591.016 915.732 591.016 916.68V922H589.32V917.008C589.32 916.383 589.172 915.909 588.875 915.586C588.583 915.258 588.148 915.094 587.57 915.094C586.977 915.094 586.503 915.286 586.148 915.672C585.794 916.057 585.617 916.57 585.617 917.211V922H583.93ZM596.148 920.633C596.81 920.633 597.339 920.383 597.734 919.883C598.135 919.383 598.336 918.711 598.336 917.867C598.336 917.023 598.135 916.346 597.734 915.836C597.339 915.326 596.81 915.07 596.148 915.07C595.497 915.07 594.977 915.323 594.586 915.828C594.201 916.333 594.008 917.013 594.008 917.867C594.008 918.721 594.201 919.396 594.586 919.891C594.977 920.385 595.497 920.633 596.148 920.633ZM596.164 925.094C595.206 925.094 594.393 924.865 593.727 924.406C593.065 923.948 592.682 923.359 592.578 922.641H594.273C594.393 922.984 594.628 923.26 594.977 923.469C595.331 923.677 595.747 923.781 596.227 923.781C596.878 923.781 597.391 923.609 597.766 923.266C598.141 922.927 598.328 922.474 598.328 921.906V920.555H598.297C598.062 921.008 597.714 921.367 597.25 921.633C596.792 921.898 596.273 922.031 595.695 922.031C594.659 922.031 593.831 921.656 593.211 920.906C592.591 920.151 592.281 919.135 592.281 917.859C592.281 916.568 592.591 915.544 593.211 914.789C593.836 914.029 594.677 913.648 595.734 913.648C596.312 913.648 596.831 913.786 597.289 914.062C597.747 914.333 598.102 914.708 598.352 915.188H598.383V913.781H600.023V921.852C600.023 922.831 599.672 923.615 598.969 924.203C598.271 924.797 597.336 925.094 596.164 925.094ZM607.82 920.805C608.414 920.805 608.911 920.625 609.312 920.266C609.719 919.901 609.922 919.453 609.922 918.922V918.273L607.898 918.398C607.393 918.435 607.003 918.56 606.727 918.773C606.456 918.982 606.32 919.263 606.32 919.617C606.32 919.977 606.456 920.266 606.727 920.484C607.003 920.698 607.367 920.805 607.82 920.805ZM607.352 922.141C606.544 922.141 605.885 921.911 605.375 921.453C604.87 920.995 604.617 920.398 604.617 919.664C604.617 918.945 604.883 918.375 605.414 917.953C605.945 917.526 606.698 917.286 607.672 917.234L609.922 917.102V916.469C609.922 916.01 609.776 915.654 609.484 915.398C609.193 915.138 608.789 915.008 608.273 915.008C607.794 915.008 607.404 915.115 607.102 915.328C606.805 915.542 606.617 915.836 606.539 916.211H604.945C604.992 915.451 605.32 914.831 605.93 914.352C606.539 913.872 607.341 913.633 608.336 913.633C609.331 913.633 610.122 913.878 610.711 914.367C611.305 914.857 611.602 915.513 611.602 916.336V922H609.984V920.648H609.945C609.711 921.102 609.354 921.464 608.875 921.734C608.401 922.005 607.893 922.141 607.352 922.141ZM613.242 922V913.781H614.852V915.156H614.891C615.12 914.677 615.453 914.305 615.891 914.039C616.328 913.773 616.857 913.641 617.477 913.641C618.378 913.641 619.078 913.911 619.578 914.453C620.078 914.99 620.328 915.732 620.328 916.68V922H618.633V917.008C618.633 916.383 618.484 915.909 618.188 915.586C617.896 915.258 617.461 915.094 616.883 915.094C616.289 915.094 615.815 915.286 615.461 915.672C615.107 916.057 614.93 916.57 614.93 917.211V922H613.242ZM628.086 920.805C628.68 920.805 629.177 920.625 629.578 920.266C629.984 919.901 630.188 919.453 630.188 918.922V918.273L628.164 918.398C627.659 918.435 627.268 918.56 626.992 918.773C626.721 918.982 626.586 919.263 626.586 919.617C626.586 919.977 626.721 920.266 626.992 920.484C627.268 920.698 627.633 920.805 628.086 920.805ZM627.617 922.141C626.81 922.141 626.151 921.911 625.641 921.453C625.135 920.995 624.883 920.398 624.883 919.664C624.883 918.945 625.148 918.375 625.68 917.953C626.211 917.526 626.964 917.286 627.938 917.234L630.188 917.102V916.469C630.188 916.01 630.042 915.654 629.75 915.398C629.458 915.138 629.055 915.008 628.539 915.008C628.06 915.008 627.669 915.115 627.367 915.328C627.07 915.542 626.883 915.836 626.805 916.211H625.211C625.258 915.451 625.586 914.831 626.195 914.352C626.805 913.872 627.607 913.633 628.602 913.633C629.596 913.633 630.388 913.878 630.977 914.367C631.57 914.857 631.867 915.513 631.867 916.336V922H630.25V920.648H630.211C629.977 921.102 629.62 921.464 629.141 921.734C628.667 922.005 628.159 922.141 627.617 922.141ZM640.562 916.609H638.953C638.865 916.146 638.651 915.768 638.312 915.477C637.979 915.185 637.549 915.039 637.023 915.039C636.367 915.039 635.841 915.297 635.445 915.812C635.055 916.323 634.859 917.016 634.859 917.891C634.859 918.781 635.055 919.479 635.445 919.984C635.841 920.49 636.372 920.742 637.039 920.742C637.555 920.742 637.977 920.609 638.305 920.344C638.638 920.073 638.854 919.698 638.953 919.219H640.578C640.49 920.099 640.12 920.81 639.469 921.352C638.823 921.888 638.008 922.156 637.023 922.156C635.841 922.156 634.898 921.776 634.195 921.016C633.492 920.25 633.141 919.208 633.141 917.891C633.141 916.589 633.492 915.555 634.195 914.789C634.898 914.018 635.836 913.633 637.008 913.633C638.029 913.633 638.857 913.919 639.492 914.492C640.128 915.06 640.484 915.766 640.562 916.609ZM648.828 916.609H647.219C647.13 916.146 646.917 915.768 646.578 915.477C646.245 915.185 645.815 915.039 645.289 915.039C644.633 915.039 644.107 915.297 643.711 915.812C643.32 916.323 643.125 917.016 643.125 917.891C643.125 918.781 643.32 919.479 643.711 919.984C644.107 920.49 644.638 920.742 645.305 920.742C645.82 920.742 646.242 920.609 646.57 920.344C646.904 920.073 647.12 919.698 647.219 919.219H648.844C648.755 920.099 648.385 920.81 647.734 921.352C647.089 921.888 646.273 922.156 645.289 922.156C644.107 922.156 643.164 921.776 642.461 921.016C641.758 920.25 641.406 919.208 641.406 917.891C641.406 916.589 641.758 915.555 642.461 914.789C643.164 914.018 644.102 913.633 645.273 913.633C646.294 913.633 647.122 913.919 647.758 914.492C648.393 915.06 648.75 915.766 648.828 916.609ZM656.406 921.016C655.698 921.776 654.753 922.156 653.57 922.156C652.388 922.156 651.443 921.776 650.734 921.016C650.026 920.25 649.672 919.208 649.672 917.891C649.672 916.578 650.026 915.542 650.734 914.781C651.443 914.016 652.388 913.633 653.57 913.633C654.753 913.633 655.698 914.016 656.406 914.781C657.115 915.542 657.469 916.578 657.469 917.891C657.469 919.208 657.115 920.25 656.406 921.016ZM653.57 920.766C654.242 920.766 654.773 920.513 655.164 920.008C655.555 919.503 655.75 918.797 655.75 917.891C655.75 916.99 655.552 916.286 655.156 915.781C654.766 915.276 654.237 915.023 653.57 915.023C652.904 915.023 652.372 915.276 651.977 915.781C651.586 916.286 651.391 916.99 651.391 917.891C651.391 918.797 651.586 919.503 651.977 920.008C652.372 920.513 652.904 920.766 653.57 920.766ZM665.82 913.781V922H664.203V920.609H664.164C663.69 921.635 662.841 922.148 661.617 922.148C660.721 922.148 660.016 921.878 659.5 921.336C658.99 920.789 658.734 920.044 658.734 919.102V913.781H660.422V918.773C660.422 919.404 660.57 919.883 660.867 920.211C661.164 920.534 661.602 920.695 662.18 920.695C662.784 920.695 663.26 920.503 663.609 920.117C663.958 919.732 664.133 919.216 664.133 918.57V913.781H665.82ZM667.492 922V913.781H669.102V915.156H669.141C669.37 914.677 669.703 914.305 670.141 914.039C670.578 913.773 671.107 913.641 671.727 913.641C672.628 913.641 673.328 913.911 673.828 914.453C674.328 914.99 674.578 915.732 674.578 916.68V922H672.883V917.008C672.883 916.383 672.734 915.909 672.438 915.586C672.146 915.258 671.711 915.094 671.133 915.094C670.539 915.094 670.065 915.286 669.711 915.672C669.357 916.057 669.18 916.57 669.18 917.211V922H667.492ZM676.703 911.836H678.398V913.781H679.961V915.117H678.398V919.648C678.398 920.003 678.479 920.263 678.641 920.43C678.802 920.596 679.055 920.68 679.398 920.68C679.648 920.68 679.833 920.667 679.953 920.641V921.977C679.745 922.029 679.432 922.055 679.016 922.055C678.188 922.055 677.594 921.885 677.234 921.547C676.88 921.203 676.703 920.633 676.703 919.836V915.117H675.508V913.781H676.703V911.836ZM683.344 921.789C683.146 921.987 682.904 922.086 682.617 922.086C682.331 922.086 682.089 921.987 681.891 921.789C681.693 921.591 681.594 921.349 681.594 921.062C681.594 920.776 681.693 920.534 681.891 920.336C682.089 920.138 682.331 920.039 682.617 920.039C682.904 920.039 683.146 920.138 683.344 920.336C683.542 920.534 683.641 920.776 683.641 921.062C683.641 921.349 683.542 921.591 683.344 921.789Z" fill="#E0EAFF" fill-opacity="0.75"/>
<circle cx="485" cy="514" r="303" fill="url(#paint0_radial_264_29052)" fill-opacity="0.2"/>
<circle cx="485" cy="514" r="303" fill="url(#paint1_linear_264_29052)" fill-opacity="0.2"/>
<circle cx="485" cy="513" r="264" fill="url(#paint2_radial_264_29052)" fill-opacity="0.2"/>
<circle cx="485" cy="513" r="264" fill="url(#paint3_linear_264_29052)" fill-opacity="0.2"/>
<path d="M400.795 631.973C483.76 631.973 551.016 564.786 551.016 481.907C551.016 399.028 483.76 331.841 400.795 331.841C317.831 331.841 250.575 399.028 250.575 481.907C250.575 564.786 317.831 631.973 400.795 631.973Z" fill="#F2F2F2"/>
<path d="M575.015 627.533C590.725 627.533 603.459 614.811 603.459 599.118C603.459 583.425 590.725 570.703 575.015 570.703C559.306 570.703 546.571 583.425 546.571 599.118C546.571 614.811 559.306 627.533 575.015 627.533Z" fill="#F2F2F2"/>
<path d="M718.125 691.467C724.507 691.467 729.68 686.298 729.68 679.923C729.68 673.548 724.507 668.38 718.125 668.38C711.743 668.38 706.569 673.548 706.569 679.923C706.569 686.298 711.743 691.467 718.125 691.467Z" fill="#F2F2F2"/>
<path d="M520.882 675.487C449.084 675.49 386.615 621.985 377.386 549.007L379.15 548.785C388.265 620.862 449.973 673.707 520.883 673.711C526.908 673.711 532.927 673.331 538.904 672.575C617.113 662.705 672.702 591.114 662.822 512.986L664.586 512.763C674.589 591.862 618.308 664.345 539.127 674.337C533.076 675.102 526.982 675.486 520.882 675.487Z" fill="#3F3D56"/>
<path d="M524.738 705.188H496.468C495.864 705.189 495.268 705.054 494.724 704.792C494.179 704.53 493.702 704.149 493.326 703.676C492.955 703.216 492.694 702.677 492.561 702.101C492.428 701.525 492.427 700.926 492.559 700.35C495.242 688.523 495.083 676.23 492.097 664.476C491.893 663.664 491.951 662.808 492.263 662.031C492.574 661.254 493.123 660.595 493.831 660.148C503.611 654.096 514.26 654.285 526.389 660.727C526.941 661.017 527.417 661.43 527.782 661.935C528.148 662.439 528.391 663.021 528.494 663.635C530.503 676.256 530.573 689.108 528.702 701.75C528.569 702.705 528.094 703.58 527.365 704.212C526.636 704.844 525.703 705.191 524.738 705.188Z" fill="#A4BCFD"/>
<path d="M395.85 554.234H367.58C366.976 554.235 366.38 554.1 365.836 553.838C365.292 553.576 364.814 553.195 364.439 552.722C364.068 552.262 363.806 551.723 363.673 551.147C363.54 550.571 363.54 549.972 363.672 549.396C366.364 537.528 366.195 525.191 363.178 513.401C362.987 512.625 363.033 511.81 363.311 511.06C363.588 510.31 364.083 509.66 364.733 509.194C379.27 498.75 390.717 499.053 398.759 510.096C399.121 510.6 399.362 511.18 399.462 511.792C401.611 524.696 401.73 537.856 399.815 550.796C399.682 551.751 399.207 552.626 398.478 553.258C397.749 553.89 396.815 554.237 395.85 554.234Z" fill="#CCCCCC"/>
<path d="M511.529 678.683H501.804C501.267 678.682 500.752 678.468 500.373 678.089C499.994 677.709 499.781 677.194 499.781 676.658C499.781 676.121 499.994 675.607 500.373 675.227C500.752 674.847 501.267 674.633 501.804 674.632H511.529C512.067 674.632 512.582 674.846 512.963 675.225C513.343 675.605 513.557 676.121 513.557 676.658C513.557 677.195 513.343 677.71 512.963 678.09C512.582 678.47 512.067 678.683 511.529 678.683Z" fill="white"/>
<path d="M523.419 686.687H501.804C501.267 686.686 500.752 686.472 500.373 686.092C499.994 685.712 499.781 685.198 499.781 684.661C499.781 684.125 499.994 683.61 500.373 683.231C500.752 682.851 501.267 682.637 501.804 682.636H523.419C523.956 682.637 524.471 682.851 524.85 683.231C525.23 683.61 525.443 684.125 525.443 684.661C525.443 685.198 525.23 685.712 524.85 686.092C524.471 686.472 523.956 686.686 523.419 686.687Z" fill="white"/>
<path d="M387.086 525.953H377.361C376.824 525.952 376.31 525.738 375.93 525.359C375.551 524.979 375.338 524.464 375.338 523.928C375.338 523.391 375.551 522.877 375.93 522.497C376.31 522.117 376.824 521.903 377.361 521.902H387.086C387.623 521.903 388.138 522.117 388.517 522.497C388.896 522.877 389.109 523.391 389.109 523.928C389.109 524.464 388.896 524.979 388.517 525.359C388.138 525.738 387.623 525.952 387.086 525.953Z" fill="white"/>
<path d="M387.086 533.057H377.361C376.824 533.056 376.31 532.842 375.93 532.462C375.551 532.083 375.338 531.568 375.338 531.032C375.338 530.495 375.551 529.98 375.93 529.601C376.31 529.221 376.824 529.007 377.361 529.006H387.086C387.623 529.007 388.138 529.221 388.517 529.601C388.896 529.98 389.109 530.495 389.109 531.032C389.109 531.568 388.896 532.083 388.517 532.462C388.138 532.842 387.623 533.056 387.086 533.057Z" fill="white"/>
<path d="M387.086 540.161H377.361C376.824 540.16 376.31 539.946 375.93 539.566C375.551 539.186 375.338 538.672 375.338 538.135C375.338 537.599 375.551 537.084 375.93 536.704C376.31 536.325 376.824 536.111 377.361 536.11H387.086C387.623 536.111 388.138 536.325 388.517 536.704C388.896 537.084 389.109 537.599 389.109 538.135C389.109 538.672 388.896 539.186 388.517 539.566C388.138 539.946 387.623 540.16 387.086 540.161Z" fill="white"/>
<path d="M776.327 587.598H685.959C683.537 587.595 681.215 586.632 679.503 584.922C677.79 583.211 676.827 580.892 676.824 578.472V522.871C676.827 520.452 677.79 518.132 679.503 516.422C681.215 514.711 683.537 513.749 685.959 513.746H776.327C778.749 513.749 781.07 514.711 782.783 516.422C784.495 518.132 785.459 520.452 785.462 522.871V578.472C785.459 580.892 784.495 583.211 782.783 584.922C781.07 586.633 778.749 587.595 776.327 587.598Z" fill="#E6E6E6"/>
<path d="M740.422 580.436H692.311C690.043 580.433 687.869 579.532 686.265 577.93C684.661 576.328 683.758 574.155 683.756 571.89V529.454C683.758 527.188 684.661 525.016 686.265 523.413C687.869 521.811 690.043 520.91 692.311 520.907H769.975C772.243 520.91 774.417 521.811 776.021 523.413C777.625 525.016 778.527 527.188 778.53 529.454V542.368C778.518 552.461 774.5 562.137 767.356 569.273C760.212 576.41 750.525 580.424 740.422 580.436Z" fill="white"/>
<path d="M762.227 544.144H700.059C699.521 544.144 699.005 543.931 698.625 543.551C698.245 543.171 698.031 542.656 698.031 542.119C698.031 541.582 698.245 541.067 698.625 540.687C699.005 540.307 699.521 540.094 700.059 540.094H762.227C762.765 540.094 763.281 540.307 763.661 540.687C764.041 541.067 764.255 541.582 764.255 542.119C764.255 542.656 764.041 543.171 763.661 543.551C763.281 543.931 762.765 544.144 762.227 544.144Z" fill="#A4BCFD"/>
<path d="M709.783 552.148H700.059C699.521 552.147 699.007 551.933 698.628 551.553C698.248 551.173 698.035 550.659 698.035 550.122C698.035 549.586 698.248 549.071 698.628 548.692C699.007 548.312 699.521 548.098 700.059 548.097H709.783C710.32 548.098 710.835 548.312 711.214 548.692C711.594 549.071 711.807 549.586 711.807 550.122C711.807 550.659 711.594 551.173 711.214 551.553C710.835 551.933 710.32 552.147 709.783 552.148Z" fill="#A4BCFD"/>
<path d="M727.007 560.151H700.059C699.521 560.151 699.005 559.938 698.625 559.558C698.245 559.178 698.031 558.663 698.031 558.126C698.031 557.589 698.245 557.073 698.625 556.694C699.005 556.314 699.521 556.1 700.059 556.1H727.007C727.545 556.1 728.061 556.314 728.441 556.694C728.821 557.073 729.035 557.589 729.035 558.126C729.035 558.663 728.821 559.178 728.441 559.558C728.061 559.938 727.545 560.151 727.007 560.151Z" fill="#A4BCFD"/>
<path d="M673.671 531.735C684.228 531.735 692.787 523.185 692.787 512.638C692.787 502.092 684.228 493.542 673.671 493.542C663.113 493.542 654.554 502.092 654.554 512.638C654.554 523.185 663.113 531.735 673.671 531.735Z" fill="#3F3D56"/>
<path d="M457.273 367.368C458.539 360.952 461.057 354.847 464.685 349.402C468.312 343.958 472.977 339.28 478.414 335.637C489.394 328.278 502.851 325.579 515.823 328.132C522.247 329.396 528.358 331.912 533.808 335.535C539.258 339.159 543.941 343.819 547.588 349.251C551.235 354.682 553.776 360.778 555.065 367.19C556.354 373.602 556.366 380.205 555.1 386.622L553.355 386.279C555.82 373.782 553.214 360.818 546.111 350.241C539.008 339.663 527.99 332.337 515.48 329.875C502.97 327.413 489.993 330.016 479.405 337.112C468.816 344.207 461.483 355.215 459.018 367.712L457.273 367.368Z" fill="#3F3D56"/>
<path d="M476.205 398.788L447.959 399.957C447.356 399.983 446.754 399.873 446.2 399.634C445.645 399.395 445.152 399.033 444.758 398.576C444.368 398.132 444.084 397.604 443.927 397.034C443.771 396.464 443.746 395.866 443.853 395.285C446.021 383.478 445.389 371.328 442.009 359.808C441.748 358.927 441.801 357.983 442.159 357.137C442.517 356.291 443.157 355.595 443.972 355.167C455.541 349.163 466.381 348.858 476.19 354.261C476.704 354.54 477.151 354.928 477.499 355.397C477.848 355.866 478.09 356.406 478.209 356.978C480.762 369.548 481.374 382.435 480.024 395.19C479.93 396.149 479.492 397.043 478.79 397.705C478.088 398.366 477.169 398.751 476.205 398.788Z" fill="#A4BCFD"/>
<path d="M475.009 380.321L453.413 381.214C453.146 381.226 452.881 381.184 452.63 381.093C452.38 381.002 452.15 380.862 451.954 380.682C451.758 380.501 451.6 380.284 451.488 380.043C451.375 379.802 451.312 379.54 451.301 379.275C451.29 379.009 451.332 378.743 451.423 378.493C451.515 378.243 451.655 378.014 451.836 377.818C452.016 377.623 452.234 377.464 452.475 377.353C452.717 377.241 452.979 377.178 453.245 377.167L474.842 376.273C475.108 376.262 475.373 376.304 475.623 376.395C475.873 376.487 476.103 376.627 476.299 376.807C476.495 376.987 476.653 377.204 476.765 377.445C476.877 377.686 476.94 377.947 476.951 378.213C476.962 378.479 476.921 378.744 476.829 378.994C476.738 379.244 476.598 379.473 476.417 379.669C476.237 379.865 476.02 380.023 475.778 380.135C475.537 380.247 475.275 380.31 475.009 380.321Z" fill="white"/>
<path d="M474.715 373.223L453.118 374.117C452.581 374.139 452.057 373.947 451.661 373.583C451.266 373.22 451.031 372.714 451.009 372.177C450.986 371.64 451.178 371.117 451.543 370.721C451.907 370.326 452.413 370.092 452.951 370.069L474.547 369.176C475.085 369.153 475.609 369.345 476.004 369.709C476.4 370.073 476.635 370.579 476.657 371.116C476.679 371.652 476.487 372.176 476.123 372.571C475.759 372.967 475.252 373.201 474.715 373.223Z" fill="white"/>
<path d="M661.053 389.852H570.686C568.264 389.849 565.942 388.887 564.229 387.176C562.517 385.465 561.554 383.146 561.551 380.726V325.125C561.554 322.706 562.517 320.387 564.229 318.676C565.942 316.965 568.264 316.003 570.686 316H661.053C663.475 316.003 665.797 316.965 667.51 318.676C669.222 320.387 670.185 322.706 670.188 325.125V380.726C670.185 383.146 669.222 385.465 667.51 387.176C665.797 388.887 663.475 389.849 661.053 389.852Z" fill="#E6E6E6"/>
<path d="M625.149 382.69H577.038C574.77 382.687 572.595 381.786 570.991 380.184C569.387 378.582 568.485 376.41 568.482 374.144V331.708C568.485 329.442 569.387 327.27 570.991 325.668C572.595 324.065 574.77 323.164 577.038 323.162H654.701C656.97 323.164 659.144 324.065 660.748 325.668C662.352 327.27 663.254 329.442 663.256 331.708V344.622C663.245 354.715 659.226 364.391 652.082 371.528C644.938 378.664 635.252 382.679 625.149 382.69Z" fill="white"/>
<path d="M646.953 346.399H584.785C584.247 346.399 583.731 346.185 583.351 345.805C582.971 345.425 582.757 344.91 582.757 344.373C582.757 343.836 582.971 343.321 583.351 342.941C583.731 342.561 584.247 342.348 584.785 342.348H646.953C647.491 342.348 648.007 342.561 648.387 342.941C648.767 343.321 648.981 343.836 648.981 344.373C648.981 344.91 648.767 345.425 648.387 345.805C648.007 346.185 647.491 346.399 646.953 346.399Z" fill="#A4BCFD"/>
<path d="M594.51 354.402H584.785C584.248 354.401 583.733 354.187 583.354 353.807C582.975 353.428 582.762 352.913 582.762 352.377C582.762 351.84 582.975 351.326 583.354 350.946C583.733 350.566 584.248 350.352 584.785 350.351H594.51C595.047 350.352 595.562 350.566 595.941 350.946C596.32 351.326 596.533 351.84 596.533 352.377C596.533 352.913 596.32 353.428 595.941 353.807C595.562 354.187 595.047 354.401 594.51 354.402Z" fill="#A4BCFD"/>
<path d="M611.734 362.406H584.785C584.247 362.406 583.731 362.192 583.351 361.812C582.971 361.433 582.757 360.917 582.757 360.38C582.757 359.843 582.971 359.328 583.351 358.948C583.731 358.568 584.247 358.355 584.785 358.355H611.734C612.271 358.356 612.785 358.57 613.165 358.949C613.544 359.329 613.757 359.844 613.757 360.38C613.757 360.917 613.544 361.431 613.165 361.811C612.785 362.191 612.271 362.405 611.734 362.406Z" fill="#A4BCFD"/>
<path d="M572.291 399.477C577.864 390.52 575.114 378.745 566.147 373.177C557.181 367.609 545.394 370.356 539.82 379.313C534.246 388.271 536.997 400.046 545.963 405.614C554.93 411.182 566.717 408.434 572.291 399.477Z" fill="#3F3D56"/>
<path d="M301.401 538.373C293.558 517.661 294.273 494.684 303.388 474.498C312.503 454.312 329.272 438.57 350.005 430.735C370.739 422.9 393.739 423.614 413.945 432.72C434.152 441.826 449.91 458.577 457.753 479.289L456.09 479.918C452.289 469.88 446.546 460.689 439.19 452.869C431.833 445.048 423.007 438.752 413.214 434.339C403.422 429.927 392.855 427.484 382.118 427.15C371.38 426.817 360.682 428.6 350.634 432.397C340.587 436.194 331.386 441.931 323.557 449.28C315.729 456.629 309.426 465.446 305.009 475.229C300.592 485.011 298.146 495.567 297.813 506.293C297.479 517.02 299.264 527.707 303.065 537.744L301.401 538.373Z" fill="#3F3D56"/>
<path d="M374.517 455.67H346.248C345.644 455.671 345.047 455.536 344.503 455.274C343.959 455.012 343.481 454.631 343.106 454.158C342.735 453.697 342.473 453.159 342.34 452.583C342.208 452.007 342.207 451.408 342.339 450.832C345.015 439.033 344.864 426.769 341.897 415.039C341.687 414.209 341.751 413.333 342.081 412.543C342.411 411.752 342.988 411.09 343.726 410.655C353.966 404.7 364.902 404.882 376.228 411.196C376.765 411.488 377.227 411.899 377.58 412.397C377.933 412.894 378.168 413.466 378.267 414.068C380.282 426.704 380.355 439.574 378.482 452.232C378.349 453.187 377.874 454.062 377.145 454.694C376.416 455.326 375.483 455.673 374.517 455.67Z" fill="#A4BCFD"/>
<path d="M361.309 428.277H351.584C351.047 428.276 350.532 428.062 350.153 427.682C349.774 427.303 349.561 426.788 349.561 426.252C349.561 425.715 349.774 425.201 350.153 424.821C350.532 424.441 351.047 424.227 351.584 424.226H361.309C361.846 424.227 362.36 424.441 362.74 424.821C363.119 425.201 363.332 425.715 363.332 426.252C363.332 426.788 363.119 427.303 362.74 427.682C362.36 428.062 361.846 428.276 361.309 428.277Z" fill="white"/>
<path d="M373.199 436.281H351.584C351.046 436.281 350.53 436.067 350.15 435.687C349.77 435.308 349.556 434.792 349.556 434.255C349.556 433.718 349.77 433.203 350.15 432.823C350.53 432.443 351.046 432.23 351.584 432.23H373.199C373.736 432.231 374.251 432.445 374.63 432.824C375.009 433.204 375.222 433.719 375.222 434.255C375.222 434.792 375.009 435.306 374.63 435.686C374.251 436.066 373.736 436.28 373.199 436.281Z" fill="white"/>
<path d="M281.503 537.254H191.135C188.713 537.251 186.391 536.289 184.679 534.578C182.966 532.867 182.003 530.548 182 528.128V472.528C182.003 470.108 182.966 467.789 184.679 466.078C186.391 464.367 188.713 463.405 191.135 463.402H281.503C283.924 463.405 286.246 464.367 287.959 466.078C289.671 467.789 290.635 470.108 290.637 472.528V528.129C290.635 530.548 289.671 532.867 287.959 534.578C286.246 536.289 283.924 537.251 281.503 537.254Z" fill="#E6E6E6"/>
<path d="M245.598 530.092H197.487C195.219 530.09 193.044 529.188 191.44 527.586C189.836 525.984 188.934 523.812 188.932 521.546V479.11C188.934 476.844 189.836 474.672 191.44 473.07C193.044 471.468 195.219 470.566 197.487 470.564H275.151C277.419 470.566 279.593 471.468 281.197 473.07C282.801 474.672 283.703 476.844 283.706 479.11V492.024C283.694 502.117 279.676 511.793 272.531 518.93C265.387 526.066 255.701 530.081 245.598 530.092Z" fill="white"/>
<path d="M267.403 493.801H205.235C204.697 493.801 204.181 493.587 203.801 493.207C203.421 492.828 203.207 492.312 203.207 491.775C203.207 491.238 203.421 490.723 203.801 490.343C204.181 489.963 204.697 489.75 205.235 489.75H267.403C267.941 489.75 268.457 489.963 268.837 490.343C269.217 490.723 269.431 491.238 269.431 491.775C269.431 492.312 269.217 492.828 268.837 493.207C268.457 493.587 267.941 493.801 267.403 493.801Z" fill="#A4BCFD"/>
<path d="M214.959 501.804H205.234C204.697 501.803 204.183 501.589 203.803 501.21C203.424 500.83 203.211 500.315 203.211 499.779C203.211 499.242 203.424 498.728 203.803 498.348C204.183 497.968 204.697 497.754 205.234 497.753H214.959C215.496 497.754 216.011 497.968 216.39 498.348C216.769 498.728 216.982 499.242 216.982 499.779C216.982 500.315 216.769 500.83 216.39 501.21C216.011 501.589 215.496 501.803 214.959 501.804Z" fill="#A4BCFD"/>
<path d="M232.183 509.808H205.234C204.697 509.807 204.183 509.593 203.803 509.213C203.424 508.833 203.211 508.319 203.211 507.782C203.211 507.246 203.424 506.731 203.803 506.351C204.183 505.972 204.697 505.758 205.234 505.757H232.183C232.721 505.757 233.236 505.97 233.617 506.35C233.997 506.73 234.211 507.245 234.211 507.782C234.211 508.319 233.997 508.835 233.617 509.214C233.236 509.594 232.721 509.808 232.183 509.808Z" fill="#A4BCFD"/>
<path d="M317.183 545.103C322.757 536.146 320.007 524.371 311.04 518.803C302.074 513.235 290.286 515.982 284.713 524.94C279.139 533.897 281.889 545.672 290.856 551.24C299.822 556.808 311.61 554.06 317.183 545.103Z" fill="#3F3D56"/>
<path d="M471.405 508.948H443.135C442.531 508.949 441.935 508.814 441.39 508.552C440.846 508.29 440.369 507.908 439.993 507.436C439.622 506.975 439.361 506.437 439.228 505.861C439.095 505.285 439.094 504.686 439.226 504.11C441.898 492.331 441.752 480.09 438.8 468.378C438.591 467.536 438.662 466.649 439.002 465.852C439.343 465.054 439.935 464.389 440.688 463.958C454.421 456.105 465.295 456.322 473.932 464.621C474.537 465.213 474.936 465.984 475.069 466.819C477.167 479.623 477.269 492.675 475.369 505.51C475.236 506.465 474.761 507.339 474.032 507.972C473.303 508.604 472.37 508.95 471.405 508.948Z" fill="#FF6584"/>
<path d="M459.974 482.443H450.249C449.712 482.442 449.197 482.228 448.818 481.848C448.439 481.469 448.226 480.954 448.226 480.418C448.226 479.881 448.439 479.366 448.818 478.987C449.197 478.607 449.712 478.393 450.249 478.392H459.974C460.511 478.393 461.025 478.607 461.405 478.987C461.784 479.366 461.997 479.881 461.997 480.418C461.997 480.954 461.784 481.469 461.405 481.848C461.025 482.228 460.511 482.442 459.974 482.443Z" fill="white"/>
<path d="M471.865 490.447H450.249C449.712 490.447 449.196 490.233 448.816 489.853C448.435 489.473 448.222 488.958 448.222 488.421C448.222 487.884 448.435 487.369 448.816 486.989C449.196 486.609 449.712 486.395 450.249 486.395H471.865C472.402 486.397 472.916 486.61 473.296 486.99C473.675 487.37 473.888 487.885 473.888 488.421C473.888 488.957 473.675 489.472 473.296 489.852C472.916 490.232 472.402 490.445 471.865 490.447Z" fill="white"/>
<defs>
<radialGradient id="paint0_radial_264_29052" cx="0" cy="0" r="1" gradientUnits="userSpaceOnUse" gradientTransform="translate(485 514) rotate(90) scale(303)">
<stop stop-color="#444CE7" stop-opacity="0.81"/>
<stop offset="1" stop-color="#444CE7" stop-opacity="0.29"/>
</radialGradient>
<linearGradient id="paint1_linear_264_29052" x1="357.047" y1="211" x2="542.757" y2="808.559" gradientUnits="userSpaceOnUse">
<stop stop-color="#444CE7" stop-opacity="0.81"/>
<stop offset="1" stop-opacity="0"/>
</linearGradient>
<radialGradient id="paint2_radial_264_29052" cx="0" cy="0" r="1" gradientUnits="userSpaceOnUse" gradientTransform="translate(485 513) rotate(90) scale(264)">
<stop stop-color="#444CE7" stop-opacity="0.81"/>
<stop offset="1" stop-color="#444CE7" stop-opacity="0.29"/>
</radialGradient>
<linearGradient id="paint3_linear_264_29052" x1="485" y1="249" x2="538.333" y2="747.667" gradientUnits="userSpaceOnUse">
<stop stop-color="#A4BCFD"/>
<stop offset="1" stop-color="#444CE7" stop-opacity="0.81"/>
</linearGradient>
</defs>
</svg>
