<svg width="48" height="48" viewBox="0 0 48 48" fill="none" xmlns="http://www.w3.org/2000/svg">
<rect width="48" height="48" rx="8" fill="#FEF3C7"/>
<path d="M25.4002 29.42H22.8902C21.2502 29.42 19.9202 28.04 19.9202 26.34C19.9202 25.93 20.2602 25.59 20.6702 25.59C21.0802 25.59 21.4202 25.93 21.4202 26.34C21.4202 27.21 22.0802 27.92 22.8902 27.92H25.4002C26.0502 27.92 26.5902 27.34 26.5902 26.64C26.5902 25.77 26.2802 25.6 25.7702 25.42L21.7402 24C20.9602 23.73 19.9102 23.15 19.9102 21.36C19.9102 19.82 21.1202 18.58 22.6002 18.58H25.1102C26.7502 18.58 28.0802 19.96 28.0802 21.66C28.0802 22.07 27.7402 22.41 27.3302 22.41C26.9202 22.41 26.5802 22.07 26.5802 21.66C26.5802 20.79 25.9202 20.08 25.1102 20.08H22.6002C21.9502 20.08 21.4102 20.66 21.4102 21.36C21.4102 22.23 21.7202 22.4 22.2302 22.58L26.2602 24C27.0402 24.27 28.0902 24.85 28.0902 26.64C28.0802 28.17 26.8802 29.42 25.4002 29.42Z" fill="#D97706"/>
<path d="M24 30.75C23.59 30.75 23.25 30.41 23.25 30V18C23.25 17.59 23.59 17.25 24 17.25C24.41 17.25 24.75 17.59 24.75 18V30C24.75 30.41 24.41 30.75 24 30.75Z" fill="#D97706"/>
<path d="M27 34.75H21C15.57 34.75 13.25 32.43 13.25 27V21C13.25 15.57 15.57 13.25 21 13.25H27C32.43 13.25 34.75 15.57 34.75 21V27C34.75 32.43 32.43 34.75 27 34.75ZM21 14.75C16.39 14.75 14.75 16.39 14.75 21V27C14.75 31.61 16.39 33.25 21 33.25H27C31.61 33.25 33.25 31.61 33.25 27V21C33.25 16.39 31.61 14.75 27 14.75H21Z" fill="#D97706"/>
</svg>
