<svg width="73" height="73" viewBox="0 0 73 73" fill="none" xmlns="http://www.w3.org/2000/svg">
<rect x="0.5" y="0.5" width="72" height="72" rx="36" fill="#FAFAFA"/>
<path d="M19.7895 35.2867C19.9062 26.5341 27.0347 19.5 35.7881 19.5H37.421C46.0914 19.5 53.1842 26.4061 53.4153 35.0735L53.6679 44.5468C53.8211 50.2931 47.898 54.2105 42.6701 51.8206C38.7569 50.0317 34.2546 50.0567 30.3615 51.8887L28.9057 52.5738C24.5605 54.6186 19.5746 51.4077 19.6386 46.6058L19.7895 35.2867Z" fill="#FFB130"/>
<path d="M19.8334 36.8666C19.6501 27.5 27.0501 19.9166 36.4167 19.9166C45.7834 19.9166 53.1667 27.5 53.1667 36.6833V46.95C53.1667 50.2 50.4667 52.9 47.2167 52.9C43.9667 52.9 41.2667 50.2 41.2667 46.95V42.2666C41.2667 40.65 42.5334 39.2 44.3334 39.2C45.9501 39.2 47.4001 40.4666 47.4001 42.2666V47.3166" stroke="#292D32" stroke-width="1.5" stroke-linecap="round" stroke-linejoin="round"/>
<path d="M25.5997 47.3166V42.45C25.5997 40.8333 26.8663 39.3833 28.6663 39.3833C30.283 39.3833 31.733 40.65 31.733 42.45V47.1333C31.733 50.3833 29.033 53.0833 25.783 53.0833C22.533 53.0833 19.833 50.3666 19.833 47.1333V43.1666" stroke="#292D32" stroke-width="1.5" stroke-linecap="round" stroke-linejoin="round"/>
</svg>
